<?xml version="1.0" encoding="utf-8" standalone="no"?>
<!DOCTYPE svg PUBLIC "-//W3C//DTD SVG 1.1//EN"
  "http://www.w3.org/Graphics/SVG/1.1/DTD/svg11.dtd">
<!-- Created with matplotlib (https://matplotlib.org/) -->
<svg height="345.6pt" version="1.1" viewBox="0 0 460.8 345.6" width="460.8pt" xmlns="http://www.w3.org/2000/svg" xmlns:xlink="http://www.w3.org/1999/xlink">
 <defs>
  <style type="text/css">
*{stroke-linecap:butt;stroke-linejoin:round;}
  </style>
 </defs>
 <g id="figure_1">
  <g id="patch_1">
   <path d="M 0 345.6 
L 460.8 345.6 
L 460.8 0 
L 0 0 
z
" style="fill:#ffffff;"/>
  </g>
  <g id="axes_1">
   <g id="patch_2">
    <path d="M 50.565625 304.44375 
L 446.5 304.44375 
L 446.5 14.3 
L 50.565625 14.3 
z
" style="fill:#ffffff;"/>
   </g>
   <g id="matplotlib.axis_1">
    <g id="xtick_1">
     <g id="line2d_1">
      <path clip-path="url(#p4d8c08c9b2)" d="M 70.435652 304.44375 
L 70.435652 14.3 
" style="fill:none;stroke:#b0b0b0;stroke-dasharray:1,1.65;stroke-dashoffset:0;"/>
     </g>
     <g id="line2d_2">
      <defs>
       <path d="M 0 0 
L 0 3.5 
" id="m0833b0d8fd" style="stroke:#000000;stroke-width:0.8;"/>
      </defs>
      <g>
       <use style="stroke:#000000;stroke-width:0.8;" x="70.435652" xlink:href="#m0833b0d8fd" y="304.44375"/>
      </g>
     </g>
     <g id="text_1">
      <!-- 0 -->
      <defs>
       <path d="M 31.78125 66.40625 
Q 24.171875 66.40625 20.328125 58.90625 
Q 16.5 51.421875 16.5 36.375 
Q 16.5 21.390625 20.328125 13.890625 
Q 24.171875 6.390625 31.78125 6.390625 
Q 39.453125 6.390625 43.28125 13.890625 
Q 47.125 21.390625 47.125 36.375 
Q 47.125 51.421875 43.28125 58.90625 
Q 39.453125 66.40625 31.78125 66.40625 
z
M 31.78125 74.21875 
Q 44.046875 74.21875 50.515625 64.515625 
Q 56.984375 54.828125 56.984375 36.375 
Q 56.984375 17.96875 50.515625 8.265625 
Q 44.046875 -1.421875 31.78125 -1.421875 
Q 19.53125 -1.421875 13.0625 8.265625 
Q 6.59375 17.96875 6.59375 36.375 
Q 6.59375 54.828125 13.0625 64.515625 
Q 19.53125 74.21875 31.78125 74.21875 
z
" id="DejaVuSans-48"/>
      </defs>
      <g transform="translate(67.254402 319.042187)scale(0.1 -0.1)">
       <use xlink:href="#DejaVuSans-48"/>
      </g>
     </g>
    </g>
    <g id="xtick_2">
     <g id="line2d_3">
      <path clip-path="url(#p4d8c08c9b2)" d="M 151.117836 304.44375 
L 151.117836 14.3 
" style="fill:none;stroke:#b0b0b0;stroke-dasharray:1,1.65;stroke-dashoffset:0;"/>
     </g>
     <g id="line2d_4">
      <g>
       <use style="stroke:#000000;stroke-width:0.8;" x="151.117836" xlink:href="#m0833b0d8fd" y="304.44375"/>
      </g>
     </g>
     <g id="text_2">
      <!-- 10 -->
      <defs>
       <path d="M 12.40625 8.296875 
L 28.515625 8.296875 
L 28.515625 63.921875 
L 10.984375 60.40625 
L 10.984375 69.390625 
L 28.421875 72.90625 
L 38.28125 72.90625 
L 38.28125 8.296875 
L 54.390625 8.296875 
L 54.390625 0 
L 12.40625 0 
z
" id="DejaVuSans-49"/>
      </defs>
      <g transform="translate(144.755336 319.042187)scale(0.1 -0.1)">
       <use xlink:href="#DejaVuSans-49"/>
       <use x="63.623047" xlink:href="#DejaVuSans-48"/>
      </g>
     </g>
    </g>
    <g id="xtick_3">
     <g id="line2d_5">
      <path clip-path="url(#p4d8c08c9b2)" d="M 231.80002 304.44375 
L 231.80002 14.3 
" style="fill:none;stroke:#b0b0b0;stroke-dasharray:1,1.65;stroke-dashoffset:0;"/>
     </g>
     <g id="line2d_6">
      <g>
       <use style="stroke:#000000;stroke-width:0.8;" x="231.80002" xlink:href="#m0833b0d8fd" y="304.44375"/>
      </g>
     </g>
     <g id="text_3">
      <!-- 20 -->
      <defs>
       <path d="M 19.1875 8.296875 
L 53.609375 8.296875 
L 53.609375 0 
L 7.328125 0 
L 7.328125 8.296875 
Q 12.9375 14.109375 22.625 23.890625 
Q 32.328125 33.6875 34.8125 36.53125 
Q 39.546875 41.84375 41.421875 45.53125 
Q 43.3125 49.21875 43.3125 52.78125 
Q 43.3125 58.59375 39.234375 62.25 
Q 35.15625 65.921875 28.609375 65.921875 
Q 23.96875 65.921875 18.8125 64.3125 
Q 13.671875 62.703125 7.8125 59.421875 
L 7.8125 69.390625 
Q 13.765625 71.78125 18.9375 73 
Q 24.125 74.21875 28.421875 74.21875 
Q 39.75 74.21875 46.484375 68.546875 
Q 53.21875 62.890625 53.21875 53.421875 
Q 53.21875 48.921875 51.53125 44.890625 
Q 49.859375 40.875 45.40625 35.40625 
Q 44.1875 33.984375 37.640625 27.21875 
Q 31.109375 20.453125 19.1875 8.296875 
z
" id="DejaVuSans-50"/>
      </defs>
      <g transform="translate(225.43752 319.042187)scale(0.1 -0.1)">
       <use xlink:href="#DejaVuSans-50"/>
       <use x="63.623047" xlink:href="#DejaVuSans-48"/>
      </g>
     </g>
    </g>
    <g id="xtick_4">
     <g id="line2d_7">
      <path clip-path="url(#p4d8c08c9b2)" d="M 312.482204 304.44375 
L 312.482204 14.3 
" style="fill:none;stroke:#b0b0b0;stroke-dasharray:1,1.65;stroke-dashoffset:0;"/>
     </g>
     <g id="line2d_8">
      <g>
       <use style="stroke:#000000;stroke-width:0.8;" x="312.482204" xlink:href="#m0833b0d8fd" y="304.44375"/>
      </g>
     </g>
     <g id="text_4">
      <!-- 30 -->
      <defs>
       <path d="M 40.578125 39.3125 
Q 47.65625 37.796875 51.625 33 
Q 55.609375 28.21875 55.609375 21.1875 
Q 55.609375 10.40625 48.1875 4.484375 
Q 40.765625 -1.421875 27.09375 -1.421875 
Q 22.515625 -1.421875 17.65625 -0.515625 
Q 12.796875 0.390625 7.625 2.203125 
L 7.625 11.71875 
Q 11.71875 9.328125 16.59375 8.109375 
Q 21.484375 6.890625 26.8125 6.890625 
Q 36.078125 6.890625 40.9375 10.546875 
Q 45.796875 14.203125 45.796875 21.1875 
Q 45.796875 27.640625 41.28125 31.265625 
Q 36.765625 34.90625 28.71875 34.90625 
L 20.21875 34.90625 
L 20.21875 43.015625 
L 29.109375 43.015625 
Q 36.375 43.015625 40.234375 45.921875 
Q 44.09375 48.828125 44.09375 54.296875 
Q 44.09375 59.90625 40.109375 62.90625 
Q 36.140625 65.921875 28.71875 65.921875 
Q 24.65625 65.921875 20.015625 65.03125 
Q 15.375 64.15625 9.8125 62.3125 
L 9.8125 71.09375 
Q 15.4375 72.65625 20.34375 73.4375 
Q 25.25 74.21875 29.59375 74.21875 
Q 40.828125 74.21875 47.359375 69.109375 
Q 53.90625 64.015625 53.90625 55.328125 
Q 53.90625 49.265625 50.4375 45.09375 
Q 46.96875 40.921875 40.578125 39.3125 
z
" id="DejaVuSans-51"/>
      </defs>
      <g transform="translate(306.119704 319.042187)scale(0.1 -0.1)">
       <use xlink:href="#DejaVuSans-51"/>
       <use x="63.623047" xlink:href="#DejaVuSans-48"/>
      </g>
     </g>
    </g>
    <g id="xtick_5">
     <g id="line2d_9">
      <path clip-path="url(#p4d8c08c9b2)" d="M 393.164388 304.44375 
L 393.164388 14.3 
" style="fill:none;stroke:#b0b0b0;stroke-dasharray:1,1.65;stroke-dashoffset:0;"/>
     </g>
     <g id="line2d_10">
      <g>
       <use style="stroke:#000000;stroke-width:0.8;" x="393.164388" xlink:href="#m0833b0d8fd" y="304.44375"/>
      </g>
     </g>
     <g id="text_5">
      <!-- 40 -->
      <defs>
       <path d="M 37.796875 64.3125 
L 12.890625 25.390625 
L 37.796875 25.390625 
z
M 35.203125 72.90625 
L 47.609375 72.90625 
L 47.609375 25.390625 
L 58.015625 25.390625 
L 58.015625 17.1875 
L 47.609375 17.1875 
L 47.609375 0 
L 37.796875 0 
L 37.796875 17.1875 
L 4.890625 17.1875 
L 4.890625 26.703125 
z
" id="DejaVuSans-52"/>
      </defs>
      <g transform="translate(386.801888 319.042187)scale(0.1 -0.1)">
       <use xlink:href="#DejaVuSans-52"/>
       <use x="63.623047" xlink:href="#DejaVuSans-48"/>
      </g>
     </g>
    </g>
    <g id="text_6">
     <!-- min -->
     <defs>
      <path d="M 52 44.1875 
Q 55.375 50.25 60.0625 53.125 
Q 64.75 56 71.09375 56 
Q 79.640625 56 84.28125 50.015625 
Q 88.921875 44.046875 88.921875 33.015625 
L 88.921875 0 
L 79.890625 0 
L 79.890625 32.71875 
Q 79.890625 40.578125 77.09375 44.375 
Q 74.3125 48.1875 68.609375 48.1875 
Q 61.625 48.1875 57.5625 43.546875 
Q 53.515625 38.921875 53.515625 30.90625 
L 53.515625 0 
L 44.484375 0 
L 44.484375 32.71875 
Q 44.484375 40.625 41.703125 44.40625 
Q 38.921875 48.1875 33.109375 48.1875 
Q 26.21875 48.1875 22.15625 43.53125 
Q 18.109375 38.875 18.109375 30.90625 
L 18.109375 0 
L 9.078125 0 
L 9.078125 54.6875 
L 18.109375 54.6875 
L 18.109375 46.1875 
Q 21.1875 51.21875 25.484375 53.609375 
Q 29.78125 56 35.6875 56 
Q 41.65625 56 45.828125 52.96875 
Q 50 49.953125 52 44.1875 
z
" id="DejaVuSans-109"/>
      <path d="M 9.421875 54.6875 
L 18.40625 54.6875 
L 18.40625 0 
L 9.421875 0 
z
M 9.421875 75.984375 
L 18.40625 75.984375 
L 18.40625 64.59375 
L 9.421875 64.59375 
z
" id="DejaVuSans-105"/>
      <path d="M 54.890625 33.015625 
L 54.890625 0 
L 45.90625 0 
L 45.90625 32.71875 
Q 45.90625 40.484375 42.875 44.328125 
Q 39.84375 48.1875 33.796875 48.1875 
Q 26.515625 48.1875 22.3125 43.546875 
Q 18.109375 38.921875 18.109375 30.90625 
L 18.109375 0 
L 9.078125 0 
L 9.078125 54.6875 
L 18.109375 54.6875 
L 18.109375 46.1875 
Q 21.34375 51.125 25.703125 53.5625 
Q 30.078125 56 35.796875 56 
Q 45.21875 56 50.046875 50.171875 
Q 54.890625 44.34375 54.890625 33.015625 
z
" id="DejaVuSans-110"/>
     </defs>
     <g transform="translate(239.104688 332.720312)scale(0.1 -0.1)">
      <use xlink:href="#DejaVuSans-109"/>
      <use x="97.412109" xlink:href="#DejaVuSans-105"/>
      <use x="125.195312" xlink:href="#DejaVuSans-110"/>
     </g>
    </g>
   </g>
   <g id="matplotlib.axis_2">
    <g id="ytick_1">
     <g id="line2d_11">
      <path clip-path="url(#p4d8c08c9b2)" d="M 50.565625 269.94831 
L 446.5 269.94831 
" style="fill:none;stroke:#b0b0b0;stroke-dasharray:1,1.65;stroke-dashoffset:0;"/>
     </g>
     <g id="line2d_12">
      <defs>
       <path d="M 0 0 
L -3.5 0 
" id="m2a22e5be8d" style="stroke:#000000;stroke-width:0.8;"/>
      </defs>
      <g>
       <use style="stroke:#000000;stroke-width:0.8;" x="50.565625" xlink:href="#m2a22e5be8d" y="269.94831"/>
      </g>
     </g>
     <g id="text_7">
      <!-- 70 -->
      <defs>
       <path d="M 8.203125 72.90625 
L 55.078125 72.90625 
L 55.078125 68.703125 
L 28.609375 0 
L 18.3125 0 
L 43.21875 64.59375 
L 8.203125 64.59375 
z
" id="DejaVuSans-55"/>
      </defs>
      <g transform="translate(30.840625 273.747529)scale(0.1 -0.1)">
       <use xlink:href="#DejaVuSans-55"/>
       <use x="63.623047" xlink:href="#DejaVuSans-48"/>
      </g>
     </g>
    </g>
    <g id="ytick_2">
     <g id="line2d_13">
      <path clip-path="url(#p4d8c08c9b2)" d="M 50.565625 233.211953 
L 446.5 233.211953 
" style="fill:none;stroke:#b0b0b0;stroke-dasharray:1,1.65;stroke-dashoffset:0;"/>
     </g>
     <g id="line2d_14">
      <g>
       <use style="stroke:#000000;stroke-width:0.8;" x="50.565625" xlink:href="#m2a22e5be8d" y="233.211953"/>
      </g>
     </g>
     <g id="text_8">
      <!-- 75 -->
      <defs>
       <path d="M 10.796875 72.90625 
L 49.515625 72.90625 
L 49.515625 64.59375 
L 19.828125 64.59375 
L 19.828125 46.734375 
Q 21.96875 47.46875 24.109375 47.828125 
Q 26.265625 48.1875 28.421875 48.1875 
Q 40.625 48.1875 47.75 41.5 
Q 54.890625 34.8125 54.890625 23.390625 
Q 54.890625 11.625 47.5625 5.09375 
Q 40.234375 -1.421875 26.90625 -1.421875 
Q 22.3125 -1.421875 17.546875 -0.640625 
Q 12.796875 0.140625 7.71875 1.703125 
L 7.71875 11.625 
Q 12.109375 9.234375 16.796875 8.0625 
Q 21.484375 6.890625 26.703125 6.890625 
Q 35.15625 6.890625 40.078125 11.328125 
Q 45.015625 15.765625 45.015625 23.390625 
Q 45.015625 31 40.078125 35.4375 
Q 35.15625 39.890625 26.703125 39.890625 
Q 22.75 39.890625 18.8125 39.015625 
Q 14.890625 38.140625 10.796875 36.28125 
z
" id="DejaVuSans-53"/>
      </defs>
      <g transform="translate(30.840625 237.011172)scale(0.1 -0.1)">
       <use xlink:href="#DejaVuSans-55"/>
       <use x="63.623047" xlink:href="#DejaVuSans-53"/>
      </g>
     </g>
    </g>
    <g id="ytick_3">
     <g id="line2d_15">
      <path clip-path="url(#p4d8c08c9b2)" d="M 50.565625 196.475596 
L 446.5 196.475596 
" style="fill:none;stroke:#b0b0b0;stroke-dasharray:1,1.65;stroke-dashoffset:0;"/>
     </g>
     <g id="line2d_16">
      <g>
       <use style="stroke:#000000;stroke-width:0.8;" x="50.565625" xlink:href="#m2a22e5be8d" y="196.475596"/>
      </g>
     </g>
     <g id="text_9">
      <!-- 80 -->
      <defs>
       <path d="M 31.78125 34.625 
Q 24.75 34.625 20.71875 30.859375 
Q 16.703125 27.09375 16.703125 20.515625 
Q 16.703125 13.921875 20.71875 10.15625 
Q 24.75 6.390625 31.78125 6.390625 
Q 38.8125 6.390625 42.859375 10.171875 
Q 46.921875 13.96875 46.921875 20.515625 
Q 46.921875 27.09375 42.890625 30.859375 
Q 38.875 34.625 31.78125 34.625 
z
M 21.921875 38.8125 
Q 15.578125 40.375 12.03125 44.71875 
Q 8.5 49.078125 8.5 55.328125 
Q 8.5 64.0625 14.71875 69.140625 
Q 20.953125 74.21875 31.78125 74.21875 
Q 42.671875 74.21875 48.875 69.140625 
Q 55.078125 64.0625 55.078125 55.328125 
Q 55.078125 49.078125 51.53125 44.71875 
Q 48 40.375 41.703125 38.8125 
Q 48.828125 37.15625 52.796875 32.3125 
Q 56.78125 27.484375 56.78125 20.515625 
Q 56.78125 9.90625 50.3125 4.234375 
Q 43.84375 -1.421875 31.78125 -1.421875 
Q 19.734375 -1.421875 13.25 4.234375 
Q 6.78125 9.90625 6.78125 20.515625 
Q 6.78125 27.484375 10.78125 32.3125 
Q 14.796875 37.15625 21.921875 38.8125 
z
M 18.3125 54.390625 
Q 18.3125 48.734375 21.84375 45.5625 
Q 25.390625 42.390625 31.78125 42.390625 
Q 38.140625 42.390625 41.71875 45.5625 
Q 45.3125 48.734375 45.3125 54.390625 
Q 45.3125 60.0625 41.71875 63.234375 
Q 38.140625 66.40625 31.78125 66.40625 
Q 25.390625 66.40625 21.84375 63.234375 
Q 18.3125 60.0625 18.3125 54.390625 
z
" id="DejaVuSans-56"/>
      </defs>
      <g transform="translate(30.840625 200.274815)scale(0.1 -0.1)">
       <use xlink:href="#DejaVuSans-56"/>
       <use x="63.623047" xlink:href="#DejaVuSans-48"/>
      </g>
     </g>
    </g>
    <g id="ytick_4">
     <g id="line2d_17">
      <path clip-path="url(#p4d8c08c9b2)" d="M 50.565625 159.739239 
L 446.5 159.739239 
" style="fill:none;stroke:#b0b0b0;stroke-dasharray:1,1.65;stroke-dashoffset:0;"/>
     </g>
     <g id="line2d_18">
      <g>
       <use style="stroke:#000000;stroke-width:0.8;" x="50.565625" xlink:href="#m2a22e5be8d" y="159.739239"/>
      </g>
     </g>
     <g id="text_10">
      <!-- 85 -->
      <g transform="translate(30.840625 163.538457)scale(0.1 -0.1)">
       <use xlink:href="#DejaVuSans-56"/>
       <use x="63.623047" xlink:href="#DejaVuSans-53"/>
      </g>
     </g>
    </g>
    <g id="ytick_5">
     <g id="line2d_19">
      <path clip-path="url(#p4d8c08c9b2)" d="M 50.565625 123.002881 
L 446.5 123.002881 
" style="fill:none;stroke:#b0b0b0;stroke-dasharray:1,1.65;stroke-dashoffset:0;"/>
     </g>
     <g id="line2d_20">
      <g>
       <use style="stroke:#000000;stroke-width:0.8;" x="50.565625" xlink:href="#m2a22e5be8d" y="123.002881"/>
      </g>
     </g>
     <g id="text_11">
      <!-- 90 -->
      <defs>
       <path d="M 10.984375 1.515625 
L 10.984375 10.5 
Q 14.703125 8.734375 18.5 7.8125 
Q 22.3125 6.890625 25.984375 6.890625 
Q 35.75 6.890625 40.890625 13.453125 
Q 46.046875 20.015625 46.78125 33.40625 
Q 43.953125 29.203125 39.59375 26.953125 
Q 35.25 24.703125 29.984375 24.703125 
Q 19.046875 24.703125 12.671875 31.3125 
Q 6.296875 37.9375 6.296875 49.421875 
Q 6.296875 60.640625 12.9375 67.421875 
Q 19.578125 74.21875 30.609375 74.21875 
Q 43.265625 74.21875 49.921875 64.515625 
Q 56.59375 54.828125 56.59375 36.375 
Q 56.59375 19.140625 48.40625 8.859375 
Q 40.234375 -1.421875 26.421875 -1.421875 
Q 22.703125 -1.421875 18.890625 -0.6875 
Q 15.09375 0.046875 10.984375 1.515625 
z
M 30.609375 32.421875 
Q 37.25 32.421875 41.125 36.953125 
Q 45.015625 41.5 45.015625 49.421875 
Q 45.015625 57.28125 41.125 61.84375 
Q 37.25 66.40625 30.609375 66.40625 
Q 23.96875 66.40625 20.09375 61.84375 
Q 16.21875 57.28125 16.21875 49.421875 
Q 16.21875 41.5 20.09375 36.953125 
Q 23.96875 32.421875 30.609375 32.421875 
z
" id="DejaVuSans-57"/>
      </defs>
      <g transform="translate(30.840625 126.8021)scale(0.1 -0.1)">
       <use xlink:href="#DejaVuSans-57"/>
       <use x="63.623047" xlink:href="#DejaVuSans-48"/>
      </g>
     </g>
    </g>
    <g id="ytick_6">
     <g id="line2d_21">
      <path clip-path="url(#p4d8c08c9b2)" d="M 50.565625 86.266524 
L 446.5 86.266524 
" style="fill:none;stroke:#b0b0b0;stroke-dasharray:1,1.65;stroke-dashoffset:0;"/>
     </g>
     <g id="line2d_22">
      <g>
       <use style="stroke:#000000;stroke-width:0.8;" x="50.565625" xlink:href="#m2a22e5be8d" y="86.266524"/>
      </g>
     </g>
     <g id="text_12">
      <!-- 95 -->
      <g transform="translate(30.840625 90.065743)scale(0.1 -0.1)">
       <use xlink:href="#DejaVuSans-57"/>
       <use x="63.623047" xlink:href="#DejaVuSans-53"/>
      </g>
     </g>
    </g>
    <g id="ytick_7">
     <g id="line2d_23">
      <path clip-path="url(#p4d8c08c9b2)" d="M 50.565625 49.530167 
L 446.5 49.530167 
" style="fill:none;stroke:#b0b0b0;stroke-dasharray:1,1.65;stroke-dashoffset:0;"/>
     </g>
     <g id="line2d_24">
      <g>
       <use style="stroke:#000000;stroke-width:0.8;" x="50.565625" xlink:href="#m2a22e5be8d" y="49.530167"/>
      </g>
     </g>
     <g id="text_13">
      <!-- 100 -->
      <g transform="translate(24.478125 53.329385)scale(0.1 -0.1)">
       <use xlink:href="#DejaVuSans-49"/>
       <use x="63.623047" xlink:href="#DejaVuSans-48"/>
       <use x="127.246094" xlink:href="#DejaVuSans-48"/>
      </g>
     </g>
    </g>
    <g id="text_14">
     <!-- degC -->
     <defs>
      <path d="M 45.40625 46.390625 
L 45.40625 75.984375 
L 54.390625 75.984375 
L 54.390625 0 
L 45.40625 0 
L 45.40625 8.203125 
Q 42.578125 3.328125 38.25 0.953125 
Q 33.9375 -1.421875 27.875 -1.421875 
Q 17.96875 -1.421875 11.734375 6.484375 
Q 5.515625 14.40625 5.515625 27.296875 
Q 5.515625 40.1875 11.734375 48.09375 
Q 17.96875 56 27.875 56 
Q 33.9375 56 38.25 53.625 
Q 42.578125 51.265625 45.40625 46.390625 
z
M 14.796875 27.296875 
Q 14.796875 17.390625 18.875 11.75 
Q 22.953125 6.109375 30.078125 6.109375 
Q 37.203125 6.109375 41.296875 11.75 
Q 45.40625 17.390625 45.40625 27.296875 
Q 45.40625 37.203125 41.296875 42.84375 
Q 37.203125 48.484375 30.078125 48.484375 
Q 22.953125 48.484375 18.875 42.84375 
Q 14.796875 37.203125 14.796875 27.296875 
z
" id="DejaVuSans-100"/>
      <path d="M 56.203125 29.59375 
L 56.203125 25.203125 
L 14.890625 25.203125 
Q 15.484375 15.921875 20.484375 11.0625 
Q 25.484375 6.203125 34.421875 6.203125 
Q 39.59375 6.203125 44.453125 7.46875 
Q 49.3125 8.734375 54.109375 11.28125 
L 54.109375 2.78125 
Q 49.265625 0.734375 44.1875 -0.34375 
Q 39.109375 -1.421875 33.890625 -1.421875 
Q 20.796875 -1.421875 13.15625 6.1875 
Q 5.515625 13.8125 5.515625 26.8125 
Q 5.515625 40.234375 12.765625 48.109375 
Q 20.015625 56 32.328125 56 
Q 43.359375 56 49.78125 48.890625 
Q 56.203125 41.796875 56.203125 29.59375 
z
M 47.21875 32.234375 
Q 47.125 39.59375 43.09375 43.984375 
Q 39.0625 48.390625 32.421875 48.390625 
Q 24.90625 48.390625 20.390625 44.140625 
Q 15.875 39.890625 15.1875 32.171875 
z
" id="DejaVuSans-101"/>
      <path d="M 45.40625 27.984375 
Q 45.40625 37.75 41.375 43.109375 
Q 37.359375 48.484375 30.078125 48.484375 
Q 22.859375 48.484375 18.828125 43.109375 
Q 14.796875 37.75 14.796875 27.984375 
Q 14.796875 18.265625 18.828125 12.890625 
Q 22.859375 7.515625 30.078125 7.515625 
Q 37.359375 7.515625 41.375 12.890625 
Q 45.40625 18.265625 45.40625 27.984375 
z
M 54.390625 6.78125 
Q 54.390625 -7.171875 48.1875 -13.984375 
Q 42 -20.796875 29.203125 -20.796875 
Q 24.46875 -20.796875 20.265625 -20.09375 
Q 16.0625 -19.390625 12.109375 -17.921875 
L 12.109375 -9.1875 
Q 16.0625 -11.328125 19.921875 -12.34375 
Q 23.78125 -13.375 27.78125 -13.375 
Q 36.625 -13.375 41.015625 -8.765625 
Q 45.40625 -4.15625 45.40625 5.171875 
L 45.40625 9.625 
Q 42.625 4.78125 38.28125 2.390625 
Q 33.9375 0 27.875 0 
Q 17.828125 0 11.671875 7.65625 
Q 5.515625 15.328125 5.515625 27.984375 
Q 5.515625 40.671875 11.671875 48.328125 
Q 17.828125 56 27.875 56 
Q 33.9375 56 38.28125 53.609375 
Q 42.625 51.21875 45.40625 46.390625 
L 45.40625 54.6875 
L 54.390625 54.6875 
z
" id="DejaVuSans-103"/>
      <path d="M 64.40625 67.28125 
L 64.40625 56.890625 
Q 59.421875 61.53125 53.78125 63.8125 
Q 48.140625 66.109375 41.796875 66.109375 
Q 29.296875 66.109375 22.65625 58.46875 
Q 16.015625 50.828125 16.015625 36.375 
Q 16.015625 21.96875 22.65625 14.328125 
Q 29.296875 6.6875 41.796875 6.6875 
Q 48.140625 6.6875 53.78125 8.984375 
Q 59.421875 11.28125 64.40625 15.921875 
L 64.40625 5.609375 
Q 59.234375 2.09375 53.4375 0.328125 
Q 47.65625 -1.421875 41.21875 -1.421875 
Q 24.65625 -1.421875 15.125 8.703125 
Q 5.609375 18.84375 5.609375 36.375 
Q 5.609375 53.953125 15.125 64.078125 
Q 24.65625 74.21875 41.21875 74.21875 
Q 47.75 74.21875 53.53125 72.484375 
Q 59.328125 70.75 64.40625 67.28125 
z
" id="DejaVuSans-67"/>
     </defs>
     <g transform="translate(18.398438 172.288281)rotate(-90)scale(0.1 -0.1)">
      <use xlink:href="#DejaVuSans-100"/>
      <use x="63.476562" xlink:href="#DejaVuSans-101"/>
      <use x="125" xlink:href="#DejaVuSans-103"/>
      <use x="188.476562" xlink:href="#DejaVuSans-67"/>
     </g>
    </g>
   </g>
   <g id="line2d_25">
    <path clip-path="url(#p4d8c08c9b2)" d="M 68.562642 36.305078 
L 68.632015 36.305078 
L 68.840122 34.835624 
L 68.909508 34.835624 
L 69.117588 33.366169 
L 69.186947 33.366169 
L 69.325721 32.631442 
L 69.67256 32.631442 
L 69.811306 31.896715 
L 69.88068 31.896715 
L 70.019399 31.161988 
L 70.158159 31.161988 
L 70.366252 29.692534 
L 70.435652 70.102527 
L 70.574372 28.957807 
L 70.921211 28.957807 
L 71.059984 28.223079 
L 71.68429 28.223079 
L 71.823023 28.957807 
L 71.892355 28.957807 
L 72.031142 29.692534 
L 72.100502 29.692534 
L 72.310235 31.161988 
L 72.724834 31.161988 
L 72.93294 32.631442 
L 73.0023 32.631442 
L 73.141033 33.366169 
L 73.487913 33.366169 
L 73.626619 34.100897 
L 73.696019 34.100897 
L 73.834685 34.835624 
L 73.973445 34.835624 
L 74.112218 35.570351 
L 74.181564 35.570351 
L 74.459084 37.774532 
L 74.528444 37.774532 
L 74.73655 39.243987 
L 74.87527 39.243987 
L 75.08339 40.713441 
L 75.22215 40.713441 
L 75.430242 42.182895 
L 75.638349 42.182895 
L 75.778077 42.917622 
L 75.985201 42.917622 
L 76.123975 43.652349 
L 76.401414 43.652349 
L 76.540174 44.387077 
L 76.609533 44.387077 
L 76.748293 45.121804 
L 76.956386 45.121804 
L 77.095133 45.856531 
L 77.164492 45.856531 
L 77.303225 46.591258 
L 77.441958 46.591258 
L 77.580705 47.325985 
L 77.650092 47.325985 
L 77.858171 49.530167 
L 77.996958 50.264894 
L 78.066291 49.530167 
L 78.205064 50.264894 
L 78.274437 50.264894 
L 78.413143 50.999621 
L 78.690623 50.999621 
L 78.829342 51.734348 
L 78.898716 51.734348 
L 79.037476 52.469075 
L 79.106889 52.469075 
L 79.314955 54.673257 
L 79.384328 54.673257 
L 79.453715 53.203802 
L 79.523075 53.93853 
L 79.731194 53.93853 
L 79.939301 55.407984 
L 80.078047 55.407984 
L 80.21678 56.142711 
L 80.290483 56.142711 
L 80.42923 56.877438 
L 80.567949 56.877438 
L 80.706696 57.612165 
L 80.778207 57.612165 
L 80.914789 58.346892 
L 81.053535 58.346892 
L 81.192268 57.612165 
L 81.262085 57.612165 
L 81.400401 58.346892 
L 81.469761 58.346892 
L 81.677867 59.816347 
L 81.816641 59.816347 
L 82.024706 61.285801 
L 82.09408 61.285801 
L 82.302213 62.755255 
L 82.649039 62.755255 
L 82.787799 63.489982 
L 82.996066 63.489982 
L 83.134651 64.22471 
L 83.75897 64.22471 
L 83.897703 64.959437 
L 84.03645 64.959437 
L 84.175169 65.694164 
L 84.313929 65.694164 
L 84.452662 66.428891 
L 84.522049 66.428891 
L 84.660782 67.163618 
L 85.146381 67.163618 
L 85.285047 67.898345 
L 85.42378 67.898345 
L 85.562566 68.633072 
L 85.70134 68.633072 
L 85.840046 69.3678 
L 86.117552 69.3678 
L 86.256258 70.102527 
L 86.325659 70.102527 
L 86.467242 70.837254 
L 86.603125 70.837254 
L 86.741871 71.571981 
L 86.880591 71.571981 
L 87.019364 72.306708 
L 87.088697 72.306708 
L 87.227484 73.041435 
L 87.296843 73.041435 
L 87.435563 73.776162 
L 87.504923 73.776162 
L 87.713029 75.245617 
L 87.851749 75.245617 
L 87.990482 75.980344 
L 88.201102 75.980344 
L 88.337321 76.715071 
L 88.6148 76.715071 
L 88.753547 77.449798 
L 88.82292 76.715071 
L 88.961653 77.449798 
L 89.169759 77.449798 
L 89.308465 78.184525 
L 89.377866 78.184525 
L 89.516612 78.919253 
L 89.585999 78.919253 
L 89.724772 79.65398 
L 90.002171 79.65398 
L 90.140944 80.388707 
L 90.349024 80.388707 
L 90.48781 81.123434 
L 90.626597 81.123434 
L 90.765223 81.858161 
L 90.903996 81.858161 
L 91.042716 82.592888 
L 91.181489 82.592888 
L 91.250835 83.327615 
L 91.320235 82.592888 
L 91.458982 83.327615 
L 91.875181 83.327615 
L 92.013981 84.062343 
L 92.083354 84.062343 
L 92.222289 84.79707 
L 92.360767 84.79707 
L 92.499473 85.531797 
L 92.568846 85.531797 
L 92.707633 86.266524 
L 92.777006 86.266524 
L 92.915685 87.001251 
L 92.985099 87.001251 
L 93.123805 87.735978 
L 93.193165 87.735978 
L 93.262578 88.470705 
L 93.331952 87.735978 
L 93.470658 88.470705 
L 93.678804 88.470705 
L 93.891227 89.94016 
L 94.376799 89.94016 
L 94.515573 90.674887 
L 94.654279 90.674887 
L 94.793052 91.409614 
L 94.931772 91.409614 
L 95.070518 92.144341 
L 95.209265 92.144341 
L 95.348011 92.879068 
L 95.486744 92.879068 
L 95.694864 94.348523 
L 95.833583 94.348523 
L 95.97233 93.613795 
L 96.180423 93.613795 
L 96.319169 94.348523 
L 96.457915 94.348523 
L 96.596662 95.08325 
L 96.943528 95.08325 
L 97.082234 95.817977 
L 98.0535 95.817977 
L 98.192166 96.552704 
L 98.403028 96.552704 
L 98.539005 97.287431 
L 98.747138 97.287431 
L 98.886906 98.022158 
L 99.024631 98.022158 
L 99.163337 98.756885 
L 99.37416 98.756885 
L 99.510244 99.491613 
L 99.648923 99.491613 
L 99.787656 100.22634 
L 100.065135 100.22634 
L 100.203909 100.961067 
L 100.342615 100.961067 
L 100.550734 102.430521 
L 100.620135 102.430521 
L 100.758854 103.899975 
L 100.828241 103.165248 
L 100.897601 103.899975 
L 101.036334 103.165248 
L 101.108087 103.165248 
L 101.244426 103.899975 
L 101.313813 103.899975 
L 101.452533 104.634703 
L 101.660666 104.634703 
L 101.799399 105.36943 
L 101.868772 105.36943 
L 102.007492 106.104157 
L 102.215611 106.104157 
L 102.354344 106.838884 
L 102.909317 106.838884 
L 103.048036 107.573611 
L 103.602995 107.573611 
L 103.811128 109.043065 
L 103.880475 109.043065 
L 104.019248 109.777793 
L 104.435461 109.777793 
L 104.575901 110.51252 
L 104.782327 110.51252 
L 104.921019 111.247247 
L 105.198512 111.247247 
L 105.337245 111.981974 
L 105.684125 111.981974 
L 105.892245 113.451428 
L 106.169697 113.451428 
L 106.309802 112.716701 
L 106.516536 112.716701 
L 106.655269 113.451428 
L 107.002109 113.451428 
L 107.140869 114.186156 
L 107.422705 114.186156 
L 107.561438 114.920883 
L 107.700158 114.920883 
L 107.838891 115.65561 
L 107.97765 115.65561 
L 108.116451 116.390337 
L 108.185743 116.390337 
L 108.255143 115.65561 
L 108.39385 116.390337 
L 108.532623 116.390337 
L 108.671329 117.125064 
L 109.295648 117.125064 
L 109.434408 117.859791 
L 109.71186 117.859791 
L 109.850607 118.594518 
L 109.92002 118.594518 
L 110.197459 120.7987 
L 110.683072 120.7987 
L 110.821778 121.533427 
L 110.960538 121.533427 
L 111.099285 122.268154 
L 111.376764 122.268154 
L 111.515497 123.002881 
L 111.793864 123.002881 
L 111.931723 123.737608 
L 112.139829 123.737608 
L 112.278589 124.472336 
L 112.417295 124.472336 
L 112.556042 125.207063 
L 112.764995 125.207063 
L 112.902894 125.94179 
L 113.45784 125.94179 
L 113.596613 126.676517 
L 113.80476 126.676517 
L 113.943479 127.411244 
L 114.220905 127.411244 
L 114.359678 128.145971 
L 114.983984 128.145971 
L 115.122703 128.880698 
L 115.469583 128.880698 
L 115.608316 129.615426 
L 115.748985 129.615426 
L 115.885795 130.350153 
L 116.371395 130.350153 
L 116.510155 131.08488 
L 116.995727 131.08488 
L 117.13446 131.819607 
L 117.620059 131.819607 
L 117.758792 132.554334 
L 118.105645 132.554334 
L 118.244378 133.289061 
L 118.59123 133.289061 
L 118.732935 134.023788 
L 119.007443 134.023788 
L 119.146189 134.758516 
L 119.284896 134.758516 
L 119.423682 135.493243 
L 119.839881 135.493243 
L 119.978628 136.22797 
L 120.186721 136.22797 
L 120.325481 136.962697 
L 120.741666 136.962697 
L 120.884783 137.697424 
L 121.092889 137.697424 
L 121.233021 138.432151 
L 121.370355 138.432151 
L 121.509102 139.166878 
L 121.647848 139.166878 
L 121.786581 139.901606 
L 121.994687 139.901606 
L 122.133434 140.636333 
L 122.5497 140.636333 
L 122.688393 141.37106 
L 122.896472 141.37106 
L 123.035232 142.105787 
L 123.659564 142.105787 
L 123.798297 142.840514 
L 124.422656 142.840514 
L 124.561376 143.575241 
L 124.838842 143.575241 
L 125.046962 145.044696 
L 125.255054 145.044696 
L 125.393801 144.309969 
L 125.740667 144.309969 
L 125.879387 145.044696 
L 126.01812 145.044696 
L 126.226226 146.51415 
L 126.434332 146.51415 
L 126.573119 145.779423 
L 126.850585 145.779423 
L 126.989304 146.51415 
L 127.128038 146.51415 
L 127.266797 147.248877 
L 127.474917 147.248877 
L 127.61365 146.51415 
L 127.821756 146.51415 
L 127.960476 147.248877 
L 128.168636 147.248877 
L 128.307315 147.983604 
L 128.931674 147.983604 
L 129.070421 148.718331 
L 129.417247 148.718331 
L 129.556006 149.453059 
L 129.694726 149.453059 
L 129.833499 150.187786 
L 129.902846 150.187786 
L 130.110939 151.65724 
L 130.319058 151.65724 
L 130.457818 150.922513 
L 130.527178 150.922513 
L 130.665897 151.65724 
L 130.94339 151.65724 
L 131.082177 152.391967 
L 131.706456 152.391967 
L 131.845189 153.126694 
L 132.123838 153.126694 
L 132.192068 153.861421 
L 132.330788 153.126694 
L 132.538921 153.126694 
L 132.677627 153.861421 
L 132.885747 153.861421 
L 133.024507 154.596149 
L 133.510079 154.596149 
L 133.648812 155.330876 
L 133.995665 155.330876 
L 134.134411 156.065603 
L 134.273117 156.065603 
L 134.342558 155.330876 
L 134.48558 156.065603 
L 134.971206 156.065603 
L 135.109926 156.80033 
L 135.179313 156.80033 
L 135.318046 157.535057 
L 135.734258 157.535057 
L 135.873906 158.269784 
L 136.497296 158.269784 
L 136.636083 159.004511 
L 137.052282 159.004511 
L 137.191015 159.739239 
L 137.815348 159.739239 
L 137.954107 160.473966 
L 138.300933 160.473966 
L 138.439693 161.208693 
L 138.717146 161.208693 
L 138.857882 161.94342 
L 139.063985 161.94342 
L 139.202745 162.678147 
L 139.410838 162.678147 
L 139.549598 163.412874 
L 139.618957 163.412874 
L 139.757704 164.147601 
L 140.24329 164.147601 
L 140.382036 164.882329 
L 140.936982 164.882329 
L 141.075728 165.617056 
L 142.116259 165.617056 
L 142.255019 166.351783 
L 142.393739 166.351783 
L 142.532499 167.08651 
L 142.740659 167.08651 
L 142.879351 167.821237 
L 142.948711 167.821237 
L 143.018071 167.08651 
L 143.226177 168.555964 
L 143.43431 168.555964 
L 143.573043 167.821237 
L 143.71183 168.555964 
L 144.266762 168.555964 
L 144.405536 169.290691 
L 144.682961 169.290691 
L 144.821694 170.025419 
L 145.446013 170.025419 
L 145.584773 170.760146 
L 145.792879 170.760146 
L 145.931612 171.494873 
L 146.280805 171.494873 
L 146.417211 172.2296 
L 146.694704 172.2296 
L 146.83341 172.964327 
L 146.972184 172.964327 
L 147.110944 173.699054 
L 147.527116 173.699054 
L 147.665876 174.433781 
L 148.918843 174.433781 
L 149.05763 175.168509 
L 149.473829 175.168509 
L 149.612549 175.903236 
L 150.444987 175.903236 
L 150.583747 176.637963 
L 150.861226 176.637963 
L 150.999959 177.37269 
L 151.416172 177.37269 
L 151.554972 178.107417 
L 152.040504 178.107417 
L 152.179237 178.842144 
L 152.66485 178.842144 
L 152.803569 179.576872 
L 153.011729 179.576872 
L 153.150489 180.311599 
L 153.705381 180.311599 
L 153.844141 181.046326 
L 154.19098 181.046326 
L 154.329727 181.781053 
L 154.469925 181.781053 
L 154.607233 182.51578 
L 155.092792 182.51578 
L 155.231552 183.250507 
L 155.370285 183.250507 
L 155.509004 183.985234 
L 156.272123 183.985234 
L 156.410816 184.719962 
L 157.312628 184.719962 
L 157.453875 185.454689 
L 157.590094 185.454689 
L 157.728867 186.189416 
L 157.867587 186.189416 
L 158.006306 185.454689 
L 158.075706 185.454689 
L 158.214426 186.189416 
L 158.283786 186.189416 
L 158.422519 186.924143 
L 158.491919 186.924143 
L 158.630638 187.65887 
L 158.769385 186.924143 
L 159.254957 186.924143 
L 159.393717 187.65887 
L 159.948703 187.65887 
L 160.295569 190.597779 
L 160.364902 190.597779 
L 160.503635 189.128324 
L 160.711741 189.128324 
L 160.850474 192.067233 
L 160.921743 192.067233 
L 161.058634 192.80196 
L 161.19734 189.863052 
L 161.266714 189.863052 
L 161.405635 190.597779 
L 161.687875 190.597779 
L 161.826002 191.332506 
L 162.034673 191.332506 
L 162.172855 192.067233 
L 163.768399 192.067233 
L 163.907092 192.80196 
L 164.184585 192.80196 
L 164.323318 193.536687 
L 164.392704 193.536687 
L 164.531464 194.271414 
L 165.01701 194.271414 
L 165.155729 195.006142 
L 166.126954 195.006142 
L 166.265674 195.740869 
L 166.820633 195.740869 
L 166.959366 196.475596 
L 167.722472 196.475596 
L 167.861178 197.210323 
L 168.832336 197.210323 
L 168.971096 197.94505 
L 169.456681 197.94505 
L 169.595441 198.679777 
L 170.08104 198.679777 
L 170.219747 199.414504 
L 170.635959 199.414504 
L 170.774705 200.149232 
L 171.052239 200.149232 
L 171.190931 200.883959 
L 171.607198 200.883959 
L 171.745971 201.618686 
L 172.023383 201.618686 
L 172.162143 202.353413 
L 172.508982 202.353413 
L 172.647715 203.08814 
L 173.202688 203.08814 
L 173.341381 203.822867 
L 174.03557 203.822867 
L 174.173873 204.557594 
L 174.520752 204.557594 
L 174.728832 206.027049 
L 174.867551 206.027049 
L 175.006311 205.292322 
L 175.288148 205.292322 
L 175.426854 206.027049 
L 175.981813 206.027049 
L 176.120546 206.761776 
L 176.189932 206.761776 
L 176.328854 207.496503 
L 176.467385 206.761776 
L 177.022344 206.761776 
L 177.16109 207.496503 
L 177.785409 207.496503 
L 177.924169 208.23123 
L 178.271035 208.23123 
L 178.409755 208.965957 
L 178.964727 208.965957 
L 179.1035 209.700685 
L 179.242193 208.965957 
L 179.38094 209.700685 
L 180.005285 209.700685 
L 180.144005 210.435412 
L 180.490857 210.435412 
L 180.629631 211.170139 
L 181.045816 211.170139 
L 181.25395 212.639593 
L 181.323323 212.639593 
L 181.462042 211.904866 
L 181.947615 211.904866 
L 182.086388 212.639593 
L 182.502601 212.639593 
L 182.64132 213.37432 
L 183.057546 213.37432 
L 183.196266 214.109047 
L 184.098064 214.109047 
L 184.236837 214.843775 
L 184.306237 214.843775 
L 184.44493 215.578502 
L 184.583717 215.578502 
L 184.722436 214.843775 
L 184.930569 214.843775 
L 185.069316 215.578502 
L 185.208022 214.843775 
L 185.485717 214.843775 
L 185.624248 215.578502 
L 186.04046 215.578502 
L 186.179261 216.313229 
L 186.456673 216.313229 
L 186.595433 217.047956 
L 186.872872 217.047956 
L 187.011632 217.782683 
L 187.289125 217.782683 
L 187.427858 217.047956 
L 187.566591 217.782683 
L 187.913444 217.782683 
L 188.05219 218.51741 
L 188.888958 218.51741 
L 189.027718 219.252137 
L 189.513291 219.252137 
L 189.652037 219.986865 
L 190.068263 219.986865 
L 190.20701 220.721592 
L 190.623249 220.721592 
L 190.761968 221.456319 
L 191.871873 221.456319 
L 192.010619 222.191046 
L 192.357459 222.191046 
L 192.496219 222.925773 
L 192.634978 222.925773 
L 192.773671 222.191046 
L 192.912431 222.191046 
L 193.051164 222.925773 
L 193.744869 222.925773 
L 193.883629 223.6605 
L 194.161069 223.6605 
L 194.299842 224.395227 
L 194.716041 224.395227 
L 194.785428 223.6605 
L 194.924846 224.395227 
L 195.340373 224.395227 
L 195.479106 225.129955 
L 195.756572 225.129955 
L 195.895346 225.864682 
L 196.519664 225.864682 
L 196.65876 226.599409 
L 197.629569 226.599409 
L 197.768329 227.334136 
L 198.045875 227.334136 
L 198.184528 228.068863 
L 199.086339 228.068863 
L 199.225099 228.80359 
L 200.057538 228.80359 
L 200.196284 229.538317 
L 200.265644 228.80359 
L 200.40439 229.538317 
L 200.75123 229.538317 
L 200.89276 230.273045 
L 201.098082 230.273045 
L 201.236802 231.007772 
L 201.791761 231.007772 
L 201.930521 231.742499 
L 202.13864 231.742499 
L 202.281744 231.007772 
L 202.420436 231.742499 
L 202.697943 231.742499 
L 202.836662 232.477226 
L 203.599768 232.477226 
L 203.738541 233.211953 
L 204.709659 233.211953 
L 204.848379 233.94668 
L 205.264631 233.94668 
L 205.403391 234.681407 
L 205.542151 234.681407 
L 205.680844 235.416135 
L 205.819577 235.416135 
L 205.95831 234.681407 
L 206.305163 234.681407 
L 206.443923 235.416135 
L 206.790748 235.416135 
L 206.929481 236.150862 
L 207.137601 236.150862 
L 207.276348 235.416135 
L 207.415094 236.150862 
L 208.178159 236.150862 
L 208.316919 236.885589 
L 209.010611 236.885589 
L 209.149358 237.620316 
L 209.704303 237.620316 
L 209.843023 238.355043 
L 210.398008 238.355043 
L 210.467382 239.08977 
L 210.606115 238.355043 
L 210.744834 238.355043 
L 210.883635 239.08977 
L 211.230501 239.08977 
L 211.36918 239.824497 
L 212.549735 239.824497 
L 212.687204 240.559225 
L 213.658375 240.559225 
L 213.799784 241.293952 
L 214.283689 241.293952 
L 214.421468 242.028679 
L 214.976427 242.028679 
L 215.11516 242.763406 
L 215.462039 242.763406 
L 215.600772 243.498133 
L 216.437527 243.498133 
L 216.576287 244.23286 
L 217.0619 244.23286 
L 217.20066 244.967588 
L 217.755551 244.967588 
L 217.894298 245.702315 
L 219.212335 245.702315 
L 219.351082 246.437042 
L 220.18352 246.437042 
L 220.322267 247.171769 
L 220.599733 247.171769 
L 220.738479 247.906496 
L 221.154692 247.906496 
L 221.293452 248.641223 
L 221.432198 247.906496 
L 221.570931 248.641223 
L 221.917757 248.641223 
L 222.056517 249.37595 
L 222.26461 249.37595 
L 222.403369 248.641223 
L 222.611503 248.641223 
L 222.750222 249.37595 
L 222.888996 249.37595 
L 223.097061 250.845405 
L 223.305168 250.845405 
L 223.443914 250.110678 
L 224.137646 250.110678 
L 224.276339 250.845405 
L 225.178151 250.845405 
L 225.316897 251.580132 
L 225.73311 251.580132 
L 225.802483 250.845405 
L 225.941243 251.580132 
L 226.565575 251.580132 
L 226.706809 252.314859 
L 227.328613 252.314859 
L 227.467387 253.049586 
L 228.230439 253.049586 
L 228.369212 253.784313 
L 229.344727 253.784313 
L 229.483419 254.51904 
L 230.177138 254.51904 
L 230.315858 255.253768 
L 231.356443 255.253768 
L 231.495162 255.988495 
L 232.396974 255.988495 
L 232.535721 256.723222 
L 232.81324 256.723222 
L 232.951933 257.457949 
L 233.368159 257.457949 
L 233.506905 258.192676 
L 234.269971 258.192676 
L 234.408757 258.927403 
L 234.824916 258.927403 
L 234.96369 259.66213 
L 235.033036 259.66213 
L 235.171796 258.927403 
L 235.310529 259.66213 
L 236.629844 259.66213 
L 236.697926 260.396858 
L 236.836659 259.66213 
L 237.044779 259.66213 
L 237.183512 260.396858 
L 237.807844 260.396858 
L 237.946644 261.131585 
L 238.15467 261.131585 
L 238.29343 260.396858 
L 238.363758 260.396858 
L 238.501523 261.131585 
L 238.987108 261.131585 
L 239.195241 262.601039 
L 239.333974 262.601039 
L 239.472734 261.866312 
L 239.958293 261.866312 
L 240.097725 262.601039 
L 240.790759 262.601039 
L 240.929532 263.335766 
L 241.276358 263.335766 
L 241.623197 266.274675 
L 241.69257 266.274675 
L 241.831666 264.070493 
L 242.039423 264.070493 
L 242.178169 264.80522 
L 243.014978 264.80522 
L 243.153738 265.539948 
L 244.263656 265.539948 
L 244.402335 266.274675 
L 245.234774 266.274675 
L 245.373507 267.009402 
L 246.344705 267.009402 
L 246.483451 267.744129 
L 246.691558 267.744129 
L 246.831824 267.009402 
L 246.899637 267.009402 
L 247.03841 267.744129 
L 247.662729 267.744129 
L 247.801462 268.478856 
L 248.148328 268.478856 
L 248.217702 267.744129 
L 248.356408 268.478856 
L 249.258233 268.478856 
L 249.396966 269.213583 
L 250.229431 269.213583 
L 250.368164 269.94831 
L 250.786918 269.94831 
L 250.92315 270.683038 
L 251.408749 270.683038 
L 251.547482 271.417765 
L 251.686188 271.417765 
L 251.755588 270.683038 
L 251.894308 271.417765 
L 252.310534 271.417765 
L 252.44928 272.152492 
L 253.420452 272.152492 
L 253.559239 272.887219 
L 254.044797 272.887219 
L 254.18353 273.621946 
L 255.154702 273.621946 
L 255.293435 274.356673 
L 256.477056 274.356673 
L 256.615802 275.091401 
L 256.685189 275.091401 
L 256.823949 275.826128 
L 257.101402 275.826128 
L 257.170802 275.091401 
L 257.309508 275.826128 
L 257.517614 275.826128 
L 257.656374 276.560855 
L 257.86448 276.560855 
L 257.93384 275.826128 
L 258.072613 276.560855 
L 258.141987 275.826128 
L 258.280693 276.560855 
L 258.350066 276.560855 
L 258.419466 275.826128 
L 258.558199 276.560855 
L 259.321251 276.560855 
L 259.459984 277.295582 
L 260.431182 277.295582 
L 260.569915 278.030309 
L 261.402367 278.030309 
L 261.541087 278.765036 
L 261.610473 278.765036 
L 261.749247 279.499763 
L 262.93116 279.499763 
L 263.067217 280.234491 
L 263.275364 280.234491 
L 263.344697 279.499763 
L 263.483672 280.234491 
L 263.83035 280.234491 
L 263.899696 279.499763 
L 264.038442 280.234491 
L 264.870854 280.234491 
L 265.009627 280.969218 
L 266.119505 280.969218 
L 266.258265 281.703945 
L 267.021357 281.703945 
L 267.160076 282.438672 
L 267.715049 282.438672 
L 267.853755 283.173399 
L 268.9637 283.173399 
L 269.102433 283.908126 
L 270.077948 283.908126 
L 270.216708 284.642853 
L 270.424814 284.642853 
L 270.563574 283.908126 
L 270.633028 283.908126 
L 270.77168 284.642853 
L 271.395985 284.642853 
L 271.534745 286.112308 
L 271.673451 286.112308 
L 271.812225 285.377581 
L 272.575263 285.377581 
L 272.714023 286.112308 
L 273.060876 286.112308 
L 273.199609 286.847035 
L 274.51766 286.847035 
L 274.656393 287.581762 
L 275.211338 287.581762 
L 275.350098 288.316489 
L 275.488831 287.581762 
L 275.696937 287.581762 
L 275.838171 288.316489 
L 277.223068 288.316489 
L 277.361828 289.051216 
L 278.471732 289.051216 
L 278.610559 289.785943 
L 279.234811 289.785943 
L 279.373557 290.520671 
L 280.275355 290.520671 
L 280.344742 291.255398 
L 280.483475 290.520671 
L 280.691595 290.520671 
L 280.830341 291.255398 
L 280.969074 291.255398 
L 280.969074 291.255398 
" style="fill:none;stroke:#1f77b4;stroke-linecap:square;stroke-width:1.5;"/>
   </g>
   <g id="line2d_26">
    <path clip-path="url(#p4d8c08c9b2)" d="M 69.81136 66.428891 
L 69.88072 65.694164 
L 70.088826 56.142711 
L 70.158199 55.407984 
L 70.505025 47.325985 
L 70.854729 41.448168 
L 70.921251 41.448168 
L 71.198731 37.774532 
L 71.545597 34.835624 
L 71.62086 34.835624 
L 71.82742 33.366169 
L 71.89678 33.366169 
L 72.104859 31.896715 
L 72.174259 31.896715 
L 72.382379 30.427261 
L 72.521112 30.427261 
L 72.729231 28.957807 
L 72.937311 28.957807 
L 73.076071 28.223079 
L 74.255321 28.223079 
L 74.394068 27.488352 
L 74.463428 27.488352 
L 74.602161 28.223079 
L 75.989558 28.223079 
L 76.128305 27.488352 
L 76.197678 27.488352 
L 76.336424 28.223079 
L 76.475184 28.223079 
L 76.613904 27.488352 
L 76.960756 27.488352 
L 77.099489 28.223079 
L 77.446342 28.223079 
L 77.585116 28.957807 
L 77.862582 28.957807 
L 78.001315 29.692534 
L 78.486914 29.692534 
L 78.625633 30.427261 
L 78.972473 30.427261 
L 79.111232 31.161988 
L 79.180646 31.161988 
L 79.250019 30.427261 
L 79.388752 31.161988 
L 80.22115 31.161988 
L 80.359897 31.896715 
L 81.122962 31.896715 
L 81.261722 32.631442 
L 82.02476 32.631442 
L 82.163534 33.366169 
L 82.30224 33.366169 
L 82.441 32.631442 
L 82.649092 32.631442 
L 82.787866 33.366169 
L 83.134692 33.366169 
L 83.273452 34.100897 
L 83.342811 34.100897 
L 83.550944 35.570351 
L 83.620318 35.570351 
L 83.759064 34.100897 
L 83.897784 34.835624 
L 84.105877 34.835624 
L 84.244636 35.570351 
L 84.31401 35.570351 
L 84.452756 34.835624 
L 84.732858 37.039805 
L 84.868996 37.039805 
L 85.077102 35.570351 
L 86.676935 35.570351 
L 86.815628 36.305078 
L 87.370614 36.305078 
L 87.509387 37.039805 
L 87.78688 37.039805 
L 87.925586 37.774532 
L 88.619278 37.774532 
L 88.758038 38.509259 
L 89.104891 38.509259 
L 89.243624 39.243987 
L 89.59049 39.243987 
L 89.72921 39.978714 
L 90.700435 39.978714 
L 90.839141 40.713441 
L 90.977874 40.713441 
L 91.11662 41.448168 
L 91.532833 41.448168 
L 91.671969 42.182895 
L 91.810312 42.182895 
L 91.879686 41.448168 
L 92.018446 42.182895 
L 92.504018 42.182895 
L 92.642778 42.917622 
L 92.921978 42.917622 
L 93.058977 43.652349 
L 93.197723 42.917622 
L 94.168922 42.917622 
L 94.307655 43.652349 
L 94.862614 43.652349 
L 95.001347 44.387077 
L 95.905982 44.387077 
L 96.041985 45.121804 
L 96.596877 45.121804 
L 96.735624 45.856531 
L 97.498675 45.856531 
L 97.637435 46.591258 
L 97.776182 46.591258 
L 97.914888 45.856531 
L 97.984274 45.856531 
L 98.123021 46.591258 
L 98.67798 46.591258 
L 98.821164 47.325985 
L 99.098509 47.325985 
L 99.237282 48.060712 
L 99.377212 47.325985 
L 99.445375 47.325985 
L 99.653481 48.79544 
L 100.485933 48.79544 
L 100.627248 49.530167 
L 101.387745 49.530167 
L 101.526505 50.264894 
L 102.361283 50.264894 
L 102.497703 50.999621 
L 102.845067 50.999621 
L 102.983262 51.734348 
L 103.330115 51.734348 
L 103.468875 52.469075 
L 104.509392 52.469075 
L 104.648179 53.203802 
L 105.550152 53.203802 
L 105.68871 53.93853 
L 105.758084 53.93853 
L 105.89683 54.673257 
L 106.03555 53.93853 
L 106.243669 53.93853 
L 106.382429 54.673257 
L 106.451829 54.673257 
L 106.590522 55.407984 
L 107.284254 55.407984 
L 107.422987 56.142711 
L 108.463545 56.142711 
L 108.602279 56.877438 
L 109.087878 56.877438 
L 109.29597 58.346892 
L 109.365398 58.346892 
L 109.504117 57.612165 
L 110.059076 57.612165 
L 110.197782 58.346892 
L 110.405929 58.346892 
L 110.544648 59.08162 
L 111.58518 59.08162 
L 111.723926 59.816347 
L 112.352588 59.816347 
L 112.491321 60.551074 
L 112.699481 60.551074 
L 112.838228 59.816347 
L 112.976961 60.551074 
L 113.393173 60.551074 
L 113.53434 61.285801 
L 113.878786 61.285801 
L 114.086852 62.755255 
L 114.225612 62.755255 
L 114.294971 63.489982 
L 114.433704 62.755255 
L 114.572451 62.755255 
L 114.641811 62.020528 
L 114.780557 62.755255 
L 115.543663 62.755255 
L 115.751755 64.22471 
L 115.890488 64.22471 
L 116.029235 63.489982 
L 116.653554 63.489982 
L 116.792354 64.22471 
L 117.486019 64.22471 
L 117.624739 64.959437 
L 118.387817 64.959437 
L 118.526564 65.694164 
L 119.359002 65.694164 
L 119.497735 66.428891 
L 120.260827 66.428891 
L 120.399547 67.163618 
L 121.093252 67.163618 
L 121.231999 67.898345 
L 121.928434 67.898345 
L 122.064451 68.633072 
L 122.480663 68.633072 
L 122.619436 69.3678 
L 123.243755 69.3678 
L 123.382475 70.102527 
L 124.214913 70.102527 
L 124.353646 70.837254 
L 125.602337 70.837254 
L 125.74107 71.571981 
L 125.95356 71.571981 
L 126.09224 72.306708 
L 126.231 72.306708 
L 126.300373 71.571981 
L 126.439133 72.306708 
L 126.924718 72.306708 
L 127.063425 73.041435 
L 127.202198 73.041435 
L 127.271558 72.306708 
L 127.412509 73.041435 
L 127.549024 73.041435 
L 127.61841 72.306708 
L 127.757157 73.041435 
L 127.896401 73.041435 
L 128.034636 73.776162 
L 128.103996 73.041435 
L 128.242716 73.776162 
L 129.213927 73.776162 
L 129.35266 74.51089 
L 129.976993 74.51089 
L 130.115739 75.245617 
L 130.462578 75.245617 
L 130.601311 75.980344 
L 130.740071 75.980344 
L 130.809445 75.245617 
L 130.948164 75.980344 
L 131.503137 75.980344 
L 131.64187 76.715071 
L 131.780643 76.715071 
L 131.919349 77.449798 
L 132.058095 77.449798 
L 132.196855 76.715071 
L 132.266202 76.715071 
L 132.335588 75.980344 
L 132.474308 76.715071 
L 132.821255 76.715071 
L 132.959921 77.449798 
L 133.30676 77.449798 
L 133.44556 78.184525 
L 133.653599 78.184525 
L 133.722999 77.449798 
L 133.861719 78.184525 
L 134.763544 78.184525 
L 134.90229 78.919253 
L 135.457236 78.919253 
L 135.596009 79.65398 
L 135.734702 79.65398 
L 135.804129 78.919253 
L 135.942875 79.65398 
L 136.775273 79.65398 
L 136.91402 80.388707 
L 137.468952 80.388707 
L 137.607725 81.123434 
L 138.162657 81.123434 
L 138.301417 81.858161 
L 138.995096 81.858161 
L 139.133842 82.592888 
L 139.203216 81.858161 
L 139.346305 82.592888 
L 140.248117 82.592888 
L 140.386904 83.327615 
L 141.496808 83.327615 
L 141.635528 84.062343 
L 142.26181 84.062343 
L 142.398593 84.79707 
L 142.606686 84.79707 
L 142.676032 84.062343 
L 142.814792 84.79707 
L 143.300445 84.79707 
L 143.439124 85.531797 
L 143.647244 85.531797 
L 143.785977 86.266524 
L 144.063443 86.266524 
L 144.202216 85.531797 
L 144.410309 85.531797 
L 144.549083 86.266524 
L 145.450867 86.266524 
L 145.5896 87.001251 
L 146.005894 87.001251 
L 146.144559 87.735978 
L 147.046358 87.735978 
L 147.185117 88.470705 
L 147.878823 88.470705 
L 148.017529 89.205433 
L 148.711248 89.205433 
L 148.849994 89.94016 
L 148.988727 89.205433 
L 149.196834 89.205433 
L 149.335594 89.94016 
L 149.543673 89.94016 
L 149.684786 92.144341 
L 149.890526 92.144341 
L 150.029272 90.674887 
L 150.237432 90.674887 
L 150.376165 93.613795 
L 150.584258 93.613795 
L 150.722991 90.674887 
L 150.861737 90.674887 
L 151.000457 91.409614 
L 151.832976 91.409614 
L 151.971655 92.144341 
L 152.041028 92.144341 
L 152.110375 91.409614 
L 152.249108 92.144341 
L 152.665347 92.144341 
L 152.80408 92.879068 
L 153.294023 92.879068 
L 153.363396 92.144341 
L 153.502143 92.879068 
L 153.848982 92.879068 
L 153.987701 93.613795 
L 154.68142 93.613795 
L 154.820167 94.348523 
L 155.513859 94.348523 
L 155.583259 95.08325 
L 155.721951 94.348523 
L 156.068871 94.348523 
L 156.207578 95.08325 
L 156.623763 95.08325 
L 156.762496 95.817977 
L 156.831923 95.08325 
L 156.970643 95.817977 
L 157.248109 95.817977 
L 157.317482 95.08325 
L 157.456202 95.817977 
L 158.011187 95.817977 
L 158.152865 96.552704 
L 158.843626 96.552704 
L 158.982386 97.287431 
L 160.23101 97.287431 
L 160.369716 98.022158 
L 160.857857 98.022158 
L 160.994062 98.756885 
L 161.618421 98.756885 
L 161.757167 99.491613 
L 161.895914 98.756885 
L 162.242739 98.756885 
L 162.381472 99.491613 
L 162.728352 99.491613 
L 162.867085 100.22634 
L 163.838256 100.22634 
L 164.115749 102.430521 
L 164.254469 102.430521 
L 164.393242 100.961067 
L 164.809441 100.961067 
L 164.948228 101.695794 
L 165.156307 101.695794 
L 165.296883 102.430521 
L 165.641866 102.430521 
L 165.711253 101.695794 
L 165.849999 102.430521 
L 166.825555 102.430521 
L 166.964234 103.165248 
L 167.935446 103.165248 
L 168.074179 103.899975 
L 168.559751 103.899975 
L 168.698524 104.634703 
L 168.906617 104.634703 
L 169.046977 103.899975 
L 169.392243 103.899975 
L 169.530936 104.634703 
L 169.947162 104.634703 
L 170.085895 105.36943 
L 170.29704 105.36943 
L 170.432747 106.104157 
L 170.571467 105.36943 
L 171.403932 105.36943 
L 171.542679 106.104157 
L 171.612039 106.104157 
L 171.681398 106.838884 
L 171.820158 106.104157 
L 172.028238 106.104157 
L 172.166998 106.838884 
L 173.415662 106.838884 
L 173.554462 107.573611 
L 174.38682 107.573611 
L 174.525607 108.308338 
L 175.427405 108.308338 
L 175.566151 109.043065 
L 175.635498 108.308338 
L 175.774271 109.043065 
L 176.398576 109.043065 
L 176.537296 109.777793 
L 177.439135 109.777793 
L 177.577881 110.51252 
L 178.895919 110.51252 
L 179.034652 111.247247 
L 179.242744 111.247247 
L 179.381531 110.51252 
L 179.520224 111.247247 
L 179.65897 111.247247 
L 179.797717 111.981974 
L 180.287633 111.981974 
L 180.426366 112.716701 
L 181.328204 112.716701 
L 181.466937 113.451428 
L 182.854321 113.451428 
L 182.993068 114.186156 
L 183.825533 114.186156 
L 183.964239 114.920883 
L 184.866064 114.920883 
L 185.004811 115.65561 
L 185.074184 115.65561 
L 185.212903 116.390337 
L 185.351663 115.65561 
L 185.909123 115.65561 
L 186.045369 116.390337 
L 187.01654 116.390337 
L 187.155287 117.125064 
L 187.918338 117.125064 
L 188.057112 117.859791 
L 188.195898 117.125064 
L 188.473311 117.125064 
L 188.61203 117.859791 
L 189.377018 117.859791 
L 189.513829 118.594518 
L 190.207574 118.594518 
L 190.346294 119.329246 
L 191.386865 119.329246 
L 191.525598 120.063973 
L 192.011211 120.063973 
L 192.08053 119.329246 
L 192.21929 120.063973 
L 192.70493 120.063973 
L 192.844846 120.7987 
L 193.888511 120.7987 
L 194.027271 121.533427 
L 194.512829 121.533427 
L 194.720949 123.002881 
L 194.929069 123.002881 
L 195.067802 122.268154 
L 196.038973 122.268154 
L 196.17772 123.002881 
L 196.524559 123.002881 
L 196.663305 123.737608 
L 196.802079 123.002881 
L 196.871439 123.737608 
L 196.940785 123.002881 
L 197.079545 123.737608 
L 197.703904 123.737608 
L 197.845004 124.472336 
L 198.120076 124.472336 
L 198.258863 123.737608 
L 198.328895 123.737608 
L 198.466969 124.472336 
L 199.715633 124.472336 
L 199.85438 125.207063 
L 200.131806 125.207063 
L 200.270566 125.94179 
L 201.72735 125.94179 
L 201.866083 126.676517 
L 202.837254 126.676517 
L 202.975974 127.411244 
L 204.224732 127.411244 
L 204.363384 128.145971 
L 204.848997 128.145971 
L 204.987757 128.880698 
L 206.167035 128.880698 
L 206.305754 129.615426 
L 207.420002 129.615426 
L 207.558775 130.350153 
L 208.460641 130.350153 
L 208.599334 131.08488 
L 208.807453 131.08488 
L 208.876786 130.350153 
L 209.015546 131.08488 
L 209.847971 131.08488 
L 209.989246 131.819607 
L 210.40293 131.819607 
L 210.541677 132.554334 
L 211.374128 132.554334 
L 211.512902 133.289061 
L 212.414673 133.289061 
L 212.553379 134.023788 
L 212.761512 134.023788 
L 212.830939 133.289061 
L 212.969672 134.023788 
L 213.732697 134.023788 
L 213.871444 134.758516 
L 214.079536 134.758516 
L 214.218283 134.023788 
L 214.287723 134.023788 
L 214.428231 134.758516 
L 215.328214 134.758516 
L 215.466961 135.493243 
L 216.576879 135.493243 
L 216.715598 136.22797 
L 217.548077 136.22797 
L 217.686797 136.962697 
L 218.658049 136.962697 
L 218.727341 137.697424 
L 218.866101 136.962697 
L 219.004888 136.962697 
L 219.146136 137.697424 
L 219.767899 137.697424 
L 219.906646 138.432151 
L 221.090294 138.432151 
L 221.229013 139.166878 
L 221.992092 139.166878 
L 222.130812 139.901606 
L 223.518222 139.901606 
L 223.656982 140.636333 
L 224.281274 140.636333 
L 224.420021 141.37106 
L 224.630252 141.37106 
L 224.697554 140.636333 
L 224.836274 141.37106 
L 225.876872 141.37106 
L 226.015592 142.105787 
L 227.541735 142.105787 
L 227.680495 142.840514 
L 228.304814 142.840514 
L 228.443547 143.575241 
L 228.512853 143.575241 
L 228.651667 144.309969 
L 228.859786 144.309969 
L 228.998506 143.575241 
L 229.345372 143.575241 
L 229.484119 144.309969 
L 230.24717 144.309969 
L 230.38593 145.779423 
L 230.594023 145.779423 
L 230.73277 145.044696 
L 230.940862 145.044696 
L 231.079622 147.983604 
L 231.148982 147.983604 
L 231.218355 147.248877 
L 231.357102 145.044696 
L 231.634581 145.044696 
L 231.773328 145.779423 
L 232.675139 145.779423 
L 232.813872 146.51415 
L 232.952619 146.51415 
L 233.091365 145.779423 
L 233.230098 146.51415 
L 234.483025 146.51415 
L 234.621785 147.248877 
L 235.731717 147.248877 
L 235.87045 147.983604 
L 236.702902 147.983604 
L 236.841635 148.718331 
L 236.980368 147.983604 
L 237.049741 147.983604 
L 237.18846 148.718331 
L 238.229045 148.718331 
L 238.367778 149.453059 
L 238.992084 149.453059 
L 239.130844 150.187786 
L 239.271177 149.453059 
L 239.40839 150.187786 
L 239.824536 150.187786 
L 239.963309 150.922513 
L 241.142573 150.922513 
L 241.281347 151.65724 
L 241.420039 150.922513 
L 242.044385 150.922513 
L 242.183185 151.65724 
L 242.460584 151.65724 
L 242.530011 152.391967 
L 242.668771 151.65724 
L 242.73809 151.65724 
L 242.876823 152.391967 
L 243.847995 152.391967 
L 243.986822 153.126694 
L 244.680474 153.126694 
L 244.819207 153.861421 
L 245.721005 153.861421 
L 245.929111 155.330876 
L 246.067844 154.596149 
L 247.594015 154.596149 
L 247.737064 155.330876 
L 249.194225 155.330876 
L 249.332635 156.065603 
L 250.373139 156.065603 
L 250.511873 156.80033 
L 250.719979 156.80033 
L 250.858725 157.535057 
L 250.928193 157.535057 
L 250.997472 158.269784 
L 251.136245 157.535057 
L 251.275005 157.535057 
L 251.413698 156.80033 
L 251.552431 156.80033 
L 251.691191 157.535057 
L 251.82991 157.535057 
L 251.96867 158.269784 
L 253.564174 158.269784 
L 253.702907 159.004511 
L 253.980467 159.004511 
L 254.119133 159.739239 
L 254.18856 159.739239 
L 254.327225 159.004511 
L 255.020944 159.004511 
L 255.159704 159.739239 
L 255.506557 159.739239 
L 255.575917 159.004511 
L 255.71465 159.739239 
L 256.338955 159.739239 
L 256.477728 160.473966 
L 257.587633 160.473966 
L 257.726393 161.208693 
L 259.044403 161.208693 
L 259.183163 161.94342 
L 260.293068 161.94342 
L 260.431841 162.678147 
L 260.848054 162.678147 
L 261.056146 164.147601 
L 261.125587 164.147601 
L 261.338037 162.678147 
L 261.546089 162.678147 
L 261.684835 163.412874 
L 262.586647 163.412874 
L 262.725353 164.147601 
L 263.557886 164.147601 
L 263.627178 164.882329 
L 263.765938 164.147601 
L 264.52899 164.147601 
L 264.66775 164.882329 
L 265.292055 164.882329 
L 265.430788 165.617056 
L 266.67948 165.617056 
L 266.818199 166.351783 
L 267.92813 166.351783 
L 268.066863 167.08651 
L 268.968675 167.08651 
L 269.107435 167.821237 
L 270.425473 167.821237 
L 270.564179 168.555964 
L 271.396658 168.555964 
L 271.535404 169.290691 
L 272.020963 169.290691 
L 272.159736 170.025419 
L 272.367842 170.025419 
L 272.508229 169.290691 
L 272.992175 169.290691 
L 273.130921 170.025419 
L 273.963319 170.025419 
L 274.102093 170.760146 
L 274.310212 170.760146 
L 274.379559 170.025419 
L 274.518305 170.760146 
L 275.146954 170.760146 
L 275.2857 171.494873 
L 276.95059 171.494873 
L 277.158697 172.964327 
L 277.297443 172.964327 
L 277.436176 172.2296 
L 278.129935 172.2296 
L 278.268615 172.964327 
L 279.447919 172.964327 
L 279.586706 173.699054 
L 280.83533 173.699054 
L 280.974036 174.433781 
L 282.153381 174.433781 
L 282.292114 175.168509 
L 282.431277 174.433781 
L 282.569553 175.168509 
L 283.124526 175.168509 
L 283.263299 175.903236 
L 284.928162 175.903236 
L 285.066936 176.637963 
L 285.899361 176.637963 
L 285.968721 177.37269 
L 286.10744 176.637963 
L 286.2462 177.37269 
L 286.665331 177.37269 
L 286.801172 178.107417 
L 286.870519 177.37269 
L 287.009265 178.107417 
L 288.886619 178.107417 
L 289.02558 178.842144 
L 289.441551 178.842144 
L 289.580297 179.576872 
L 289.649738 179.576872 
L 289.78843 178.842144 
L 290.065896 178.842144 
L 290.204629 179.576872 
L 290.482122 179.576872 
L 290.620909 178.842144 
L 290.759615 179.576872 
L 291.592054 179.576872 
L 291.73076 180.311599 
L 292.563239 180.311599 
L 292.701958 181.046326 
L 292.771358 180.311599 
L 292.910064 181.046326 
L 293.118211 181.046326 
L 293.256917 181.781053 
L 293.395677 181.781053 
L 293.534423 181.046326 
L 294.158729 181.046326 
L 294.297489 181.781053 
L 294.991181 181.781053 
L 295.129941 182.51578 
L 295.26866 182.51578 
L 295.33841 181.781053 
L 295.476766 182.51578 
L 296.239845 182.51578 
L 296.378591 183.250507 
L 296.447965 183.250507 
L 296.588379 182.51578 
L 297.21103 182.51578 
L 297.349776 183.250507 
L 298.182215 183.250507 
L 298.322293 183.985234 
L 299.847132 183.985234 
L 299.985811 184.719962 
L 300.610197 184.719962 
L 300.748944 185.454689 
L 302.210098 185.454689 
L 302.34875 186.189416 
L 302.487497 186.189416 
L 302.556857 185.454689 
L 302.695617 186.189416 
L 303.736188 186.189416 
L 303.874908 186.924143 
L 304.499267 186.924143 
L 304.637973 187.65887 
L 304.846106 187.65887 
L 304.984826 186.924143 
L 305.123572 187.65887 
L 305.331705 187.65887 
L 305.470532 186.924143 
L 305.609158 187.65887 
L 306.372236 187.65887 
L 306.510983 188.393597 
L 307.274048 188.393597 
L 307.412781 189.128324 
L 307.620901 189.128324 
L 307.690287 188.393597 
L 307.82902 189.128324 
L 308.661445 189.128324 
L 308.800205 189.863052 
L 309.216404 189.863052 
L 309.355151 190.597779 
L 309.563257 190.597779 
L 309.702044 189.863052 
L 310.118203 189.863052 
L 310.187603 190.597779 
L 310.326336 189.863052 
L 310.465069 189.863052 
L 310.603842 190.597779 
L 311.366907 190.597779 
L 311.505694 191.332506 
L 311.575 191.332506 
L 311.713787 192.80196 
L 311.92188 192.80196 
L 312.060626 191.332506 
L 312.684905 191.332506 
L 312.754291 190.597779 
L 312.893024 191.332506 
L 312.963366 191.332506 
L 313.101131 192.067233 
L 315.112887 192.067233 
L 315.251607 192.80196 
L 316.229515 192.80196 
L 316.365895 193.536687 
L 316.920867 193.536687 
L 317.059587 194.271414 
L 318.516425 194.271414 
L 318.655158 195.006142 
L 318.793837 195.006142 
L 318.93261 194.271414 
L 319.07133 195.006142 
L 319.973155 195.006142 
L 320.111955 195.740869 
L 321.568632 195.740869 
L 321.707392 196.475596 
L 323.302882 196.475596 
L 323.441642 197.210323 
L 324.27408 197.210323 
L 324.41284 197.94505 
L 325.037172 197.94505 
L 325.106545 198.679777 
L 325.245292 197.94505 
L 325.314652 197.94505 
L 325.522758 199.414504 
L 325.661518 199.414504 
L 325.800224 197.94505 
L 325.939011 198.679777 
L 326.216463 198.679777 
L 326.355223 199.414504 
L 326.632689 199.414504 
L 326.771436 198.679777 
L 327.048915 198.679777 
L 327.187635 199.414504 
L 327.81198 199.414504 
L 327.95074 198.679777 
L 328.08946 199.414504 
L 329.064961 199.414504 
L 329.203721 200.149232 
L 330.313653 200.149232 
L 330.452359 200.883959 
L 331.284864 200.883959 
L 331.492917 202.353413 
L 331.562384 202.353413 
L 331.70105 201.618686 
L 332.533475 201.618686 
L 332.672208 202.353413 
L 332.949701 202.353413 
L 333.019074 201.618686 
L 333.157807 202.353413 
L 334.475831 202.353413 
L 334.614605 203.08814 
L 336.002029 203.08814 
L 336.140735 203.822867 
L 337.181293 203.822867 
L 337.32008 204.557594 
L 338.984916 204.557594 
L 339.12369 205.292322 
L 340.302941 205.292322 
L 340.441674 206.027049 
L 340.649807 206.027049 
L 340.788567 205.292322 
L 340.9273 206.027049 
L 341.482272 206.027049 
L 341.620978 206.761776 
L 341.690392 206.761776 
L 341.829125 207.496503 
L 341.967831 206.027049 
L 342.037258 206.027049 
L 342.175951 206.761776 
L 342.943373 206.761776 
L 343.082106 207.496503 
L 344.747036 207.496503 
L 344.885716 208.23123 
L 346.689648 208.23123 
L 346.828139 208.965957 
L 347.938003 208.965957 
L 348.076777 209.700685 
L 348.146136 208.965957 
L 348.284856 209.700685 
L 349.741653 209.700685 
L 349.880427 210.435412 
L 351.406544 210.435412 
L 351.545263 211.170139 
L 352.724568 211.170139 
L 352.863341 211.904866 
L 353.002047 211.904866 
L 353.140848 211.170139 
L 353.27954 211.904866 
L 354.181352 211.904866 
L 354.320098 212.639593 
L 355.568776 212.639593 
L 355.707509 213.37432 
L 355.846242 213.37432 
L 355.984962 214.109047 
L 356.054349 214.109047 
L 356.128079 213.37432 
L 356.197425 214.109047 
L 356.336158 213.37432 
L 357.168596 213.37432 
L 357.307316 214.109047 
L 357.654209 214.109047 
L 357.792942 214.843775 
L 358.001048 214.843775 
L 358.139808 214.109047 
L 358.278555 214.109047 
L 358.418565 214.843775 
L 358.7641 214.843775 
L 358.833527 214.109047 
L 358.972233 214.843775 
L 360.082165 214.843775 
L 360.220884 215.578502 
L 360.77587 215.578502 
L 360.914603 216.313229 
L 361.192069 216.313229 
L 361.330829 215.578502 
L 361.469549 216.313229 
L 361.955201 216.313229 
L 362.093961 215.578502 
L 362.232627 216.313229 
L 363.342559 216.313229 
L 363.481292 217.047956 
L 364.938062 217.047956 
L 365.076795 217.782683 
L 366.394846 217.782683 
L 366.533593 218.51741 
L 367.227312 218.51741 
L 367.366031 219.252137 
L 367.504764 219.252137 
L 367.643538 218.51741 
L 367.782284 219.252137 
L 368.961548 219.252137 
L 369.100295 219.986865 
L 369.239041 219.986865 
L 369.377868 219.252137 
L 369.447188 219.252137 
L 369.585907 219.986865 
L 370.561436 219.986865 
L 370.700155 220.721592 
L 370.977621 220.721592 
L 371.116354 221.456319 
L 371.255114 221.456319 
L 371.393847 220.721592 
L 372.295645 220.721592 
L 372.434405 221.456319 
L 373.266844 221.456319 
L 373.336257 222.191046 
L 373.474923 221.456319 
L 373.683056 221.456319 
L 373.891176 222.925773 
L 374.099282 222.925773 
L 374.238029 222.191046 
L 375.001094 222.191046 
L 375.13984 222.925773 
L 376.735371 222.925773 
L 376.874117 223.6605 
L 377.014692 222.925773 
L 377.220956 222.925773 
L 377.359703 223.6605 
L 378.261488 223.6605 
L 378.400261 224.395227 
L 378.81646 224.395227 
L 378.885833 223.6605 
L 379.024593 224.395227 
L 380.203884 224.395227 
L 380.342604 225.129955 
L 381.175042 225.129955 
L 381.244456 225.864682 
L 381.383176 225.129955 
L 381.591268 225.129955 
L 381.732637 225.864682 
L 382.423707 225.864682 
L 382.562494 226.599409 
L 382.631826 226.599409 
L 382.77056 225.864682 
L 383.954194 225.864682 
L 384.092954 226.599409 
L 384.509193 226.599409 
L 384.647926 227.334136 
L 385.966609 227.334136 
L 386.104697 228.068863 
L 386.24343 228.068863 
L 386.382136 227.334136 
L 386.520923 228.068863 
L 388.116413 228.068863 
L 388.255213 228.80359 
L 389.434437 228.80359 
L 389.573197 229.538317 
L 389.781317 229.538317 
L 389.850744 228.80359 
L 389.989396 230.273045 
L 390.058823 230.273045 
L 390.197529 231.007772 
L 390.405649 229.538317 
L 390.891235 229.538317 
L 391.029968 230.273045 
L 391.238061 230.273045 
L 391.307501 229.538317 
L 391.515567 231.742499 
L 391.655698 231.742499 
L 391.793033 230.273045 
L 392.209272 230.273045 
L 392.486752 232.477226 
L 392.625539 232.477226 
L 392.833605 230.273045 
L 393.180457 230.273045 
L 393.31919 231.007772 
L 394.639662 231.007772 
L 394.775988 231.742499 
L 395.8166 231.742499 
L 395.955252 232.477226 
L 397.27766 232.477226 
L 397.41638 233.211953 
L 397.555139 233.211953 
L 397.693872 232.477226 
L 398.040698 232.477226 
L 398.179458 233.211953 
L 399.150643 233.211953 
L 399.220003 233.94668 
L 399.358736 233.211953 
L 399.497509 233.94668 
L 400.954266 233.94668 
L 401.092999 234.681407 
L 402.341637 234.681407 
L 402.48041 235.416135 
L 402.68853 235.416135 
L 402.757984 234.681407 
L 402.896623 235.416135 
L 404.422793 235.416135 
L 404.562723 236.150862 
L 404.977752 236.150862 
L 405.116512 235.416135 
L 405.185872 235.416135 
L 405.324565 236.150862 
L 406.018311 236.150862 
L 406.15703 236.885589 
L 406.22639 236.885589 
L 406.365136 237.620316 
L 406.503883 236.885589 
L 406.712016 236.885589 
L 406.850736 237.620316 
L 406.920122 237.620316 
L 407.058855 238.355043 
L 407.197615 237.620316 
L 407.336348 237.620316 
L 407.475068 236.885589 
L 407.546714 236.885589 
L 407.683174 237.620316 
L 408.862505 237.620316 
L 409.001225 238.355043 
L 409.140012 238.355043 
L 409.209318 237.620316 
L 409.348078 238.355043 
L 409.764532 238.355043 
L 409.83365 239.08977 
L 409.972423 238.355043 
L 410.462379 238.355043 
L 410.601139 239.08977 
L 411.780793 239.08977 
L 411.988483 240.559225 
L 412.127256 240.559225 
L 412.265976 239.824497 
L 412.335362 239.824497 
L 412.474069 239.08977 
L 412.612815 239.824497 
L 413.167774 239.824497 
L 413.306507 240.559225 
L 413.44524 240.559225 
L 413.583987 239.824497 
L 413.653373 239.824497 
L 413.79212 240.559225 
L 414.971465 240.559225 
L 415.110211 241.293952 
L 416.985964 241.293952 
L 417.052581 242.028679 
L 417.121927 241.293952 
L 417.260674 242.028679 
L 418.925564 242.028679 
L 419.06431 242.763406 
L 419.272363 242.763406 
L 419.341763 242.028679 
L 419.480536 242.763406 
L 420.453832 242.763406 
L 420.590454 243.498133 
L 420.729201 243.498133 
L 420.86792 242.763406 
L 421.00668 243.498133 
L 422.187773 243.498133 
L 422.324704 244.23286 
L 422.949063 244.23286 
L 423.087783 243.498133 
L 423.226516 244.23286 
L 423.434609 244.23286 
L 423.573355 244.967588 
L 423.781421 244.967588 
L 423.924538 244.23286 
L 424.063284 244.967588 
L 425.450695 244.967588 
L 425.589428 245.702315 
L 426.005641 245.702315 
L 426.075041 244.967588 
L 426.213734 245.702315 
L 427.948024 245.702315 
L 428.086744 246.437042 
L 428.502983 246.437042 
L 428.502983 246.437042 
" style="fill:none;stroke:#ff7f0e;stroke-linecap:square;stroke-width:1.5;"/>
   </g>
   <g id="patch_3">
    <path d="M 50.565625 304.44375 
L 50.565625 14.3 
" style="fill:none;stroke:#000000;stroke-linecap:square;stroke-linejoin:miter;stroke-width:0.8;"/>
   </g>
   <g id="patch_4">
    <path d="M 446.5 304.44375 
L 446.5 14.3 
" style="fill:none;stroke:#000000;stroke-linecap:square;stroke-linejoin:miter;stroke-width:0.8;"/>
   </g>
   <g id="patch_5">
    <path d="M 50.565625 304.44375 
L 446.5 304.44375 
" style="fill:none;stroke:#000000;stroke-linecap:square;stroke-linejoin:miter;stroke-width:0.8;"/>
   </g>
   <g id="patch_6">
    <path d="M 50.565625 14.3 
L 446.5 14.3 
" style="fill:none;stroke:#000000;stroke-linecap:square;stroke-linejoin:miter;stroke-width:0.8;"/>
   </g>
   <g id="legend_1">
    <g id="patch_7">
     <path d="M 269.8 52.2125 
L 439.5 52.2125 
Q 441.5 52.2125 441.5 50.2125 
L 441.5 21.3 
Q 441.5 19.3 439.5 19.3 
L 269.8 19.3 
Q 267.8 19.3 267.8 21.3 
L 267.8 50.2125 
Q 267.8 52.2125 269.8 52.2125 
z
" style="fill:#ffffff;opacity:0.8;stroke:#cccccc;stroke-linejoin:miter;"/>
    </g>
    <g id="line2d_27">
     <path d="M 271.8 27.398438 
L 291.8 27.398438 
" style="fill:none;stroke:#1f77b4;stroke-linecap:square;stroke-width:1.5;"/>
    </g>
    <g id="line2d_28"/>
    <g id="text_15">
     <!-- cooldown_open_podlid.csv -->
     <defs>
      <path d="M 48.78125 52.59375 
L 48.78125 44.1875 
Q 44.96875 46.296875 41.140625 47.34375 
Q 37.3125 48.390625 33.40625 48.390625 
Q 24.65625 48.390625 19.8125 42.84375 
Q 14.984375 37.3125 14.984375 27.296875 
Q 14.984375 17.28125 19.8125 11.734375 
Q 24.65625 6.203125 33.40625 6.203125 
Q 37.3125 6.203125 41.140625 7.25 
Q 44.96875 8.296875 48.78125 10.40625 
L 48.78125 2.09375 
Q 45.015625 0.34375 40.984375 -0.53125 
Q 36.96875 -1.421875 32.421875 -1.421875 
Q 20.0625 -1.421875 12.78125 6.34375 
Q 5.515625 14.109375 5.515625 27.296875 
Q 5.515625 40.671875 12.859375 48.328125 
Q 20.21875 56 33.015625 56 
Q 37.15625 56 41.109375 55.140625 
Q 45.0625 54.296875 48.78125 52.59375 
z
" id="DejaVuSans-99"/>
      <path d="M 30.609375 48.390625 
Q 23.390625 48.390625 19.1875 42.75 
Q 14.984375 37.109375 14.984375 27.296875 
Q 14.984375 17.484375 19.15625 11.84375 
Q 23.34375 6.203125 30.609375 6.203125 
Q 37.796875 6.203125 41.984375 11.859375 
Q 46.1875 17.53125 46.1875 27.296875 
Q 46.1875 37.015625 41.984375 42.703125 
Q 37.796875 48.390625 30.609375 48.390625 
z
M 30.609375 56 
Q 42.328125 56 49.015625 48.375 
Q 55.71875 40.765625 55.71875 27.296875 
Q 55.71875 13.875 49.015625 6.21875 
Q 42.328125 -1.421875 30.609375 -1.421875 
Q 18.84375 -1.421875 12.171875 6.21875 
Q 5.515625 13.875 5.515625 27.296875 
Q 5.515625 40.765625 12.171875 48.375 
Q 18.84375 56 30.609375 56 
z
" id="DejaVuSans-111"/>
      <path d="M 9.421875 75.984375 
L 18.40625 75.984375 
L 18.40625 0 
L 9.421875 0 
z
" id="DejaVuSans-108"/>
      <path d="M 4.203125 54.6875 
L 13.1875 54.6875 
L 24.421875 12.015625 
L 35.59375 54.6875 
L 46.1875 54.6875 
L 57.421875 12.015625 
L 68.609375 54.6875 
L 77.59375 54.6875 
L 63.28125 0 
L 52.6875 0 
L 40.921875 44.828125 
L 29.109375 0 
L 18.5 0 
z
" id="DejaVuSans-119"/>
      <path d="M 50.984375 -16.609375 
L 50.984375 -23.578125 
L -0.984375 -23.578125 
L -0.984375 -16.609375 
z
" id="DejaVuSans-95"/>
      <path d="M 18.109375 8.203125 
L 18.109375 -20.796875 
L 9.078125 -20.796875 
L 9.078125 54.6875 
L 18.109375 54.6875 
L 18.109375 46.390625 
Q 20.953125 51.265625 25.265625 53.625 
Q 29.59375 56 35.59375 56 
Q 45.5625 56 51.78125 48.09375 
Q 58.015625 40.1875 58.015625 27.296875 
Q 58.015625 14.40625 51.78125 6.484375 
Q 45.5625 -1.421875 35.59375 -1.421875 
Q 29.59375 -1.421875 25.265625 0.953125 
Q 20.953125 3.328125 18.109375 8.203125 
z
M 48.6875 27.296875 
Q 48.6875 37.203125 44.609375 42.84375 
Q 40.53125 48.484375 33.40625 48.484375 
Q 26.265625 48.484375 22.1875 42.84375 
Q 18.109375 37.203125 18.109375 27.296875 
Q 18.109375 17.390625 22.1875 11.75 
Q 26.265625 6.109375 33.40625 6.109375 
Q 40.53125 6.109375 44.609375 11.75 
Q 48.6875 17.390625 48.6875 27.296875 
z
" id="DejaVuSans-112"/>
      <path d="M 10.6875 12.40625 
L 21 12.40625 
L 21 0 
L 10.6875 0 
z
" id="DejaVuSans-46"/>
      <path d="M 44.28125 53.078125 
L 44.28125 44.578125 
Q 40.484375 46.53125 36.375 47.5 
Q 32.28125 48.484375 27.875 48.484375 
Q 21.1875 48.484375 17.84375 46.4375 
Q 14.5 44.390625 14.5 40.28125 
Q 14.5 37.15625 16.890625 35.375 
Q 19.28125 33.59375 26.515625 31.984375 
L 29.59375 31.296875 
Q 39.15625 29.25 43.1875 25.515625 
Q 47.21875 21.78125 47.21875 15.09375 
Q 47.21875 7.46875 41.1875 3.015625 
Q 35.15625 -1.421875 24.609375 -1.421875 
Q 20.21875 -1.421875 15.453125 -0.5625 
Q 10.6875 0.296875 5.421875 2 
L 5.421875 11.28125 
Q 10.40625 8.6875 15.234375 7.390625 
Q 20.0625 6.109375 24.8125 6.109375 
Q 31.15625 6.109375 34.5625 8.28125 
Q 37.984375 10.453125 37.984375 14.40625 
Q 37.984375 18.0625 35.515625 20.015625 
Q 33.0625 21.96875 24.703125 23.78125 
L 21.578125 24.515625 
Q 13.234375 26.265625 9.515625 29.90625 
Q 5.8125 33.546875 5.8125 39.890625 
Q 5.8125 47.609375 11.28125 51.796875 
Q 16.75 56 26.8125 56 
Q 31.78125 56 36.171875 55.265625 
Q 40.578125 54.546875 44.28125 53.078125 
z
" id="DejaVuSans-115"/>
      <path d="M 2.984375 54.6875 
L 12.5 54.6875 
L 29.59375 8.796875 
L 46.6875 54.6875 
L 56.203125 54.6875 
L 35.6875 0 
L 23.484375 0 
z
" id="DejaVuSans-118"/>
     </defs>
     <g transform="translate(299.8 30.898438)scale(0.1 -0.1)">
      <use xlink:href="#DejaVuSans-99"/>
      <use x="54.980469" xlink:href="#DejaVuSans-111"/>
      <use x="116.162109" xlink:href="#DejaVuSans-111"/>
      <use x="177.34375" xlink:href="#DejaVuSans-108"/>
      <use x="205.126953" xlink:href="#DejaVuSans-100"/>
      <use x="268.603516" xlink:href="#DejaVuSans-111"/>
      <use x="329.785156" xlink:href="#DejaVuSans-119"/>
      <use x="411.572266" xlink:href="#DejaVuSans-110"/>
      <use x="474.951172" xlink:href="#DejaVuSans-95"/>
      <use x="524.951172" xlink:href="#DejaVuSans-111"/>
      <use x="586.132812" xlink:href="#DejaVuSans-112"/>
      <use x="649.609375" xlink:href="#DejaVuSans-101"/>
      <use x="711.132812" xlink:href="#DejaVuSans-110"/>
      <use x="774.511719" xlink:href="#DejaVuSans-95"/>
      <use x="824.511719" xlink:href="#DejaVuSans-112"/>
      <use x="887.988281" xlink:href="#DejaVuSans-111"/>
      <use x="949.169922" xlink:href="#DejaVuSans-100"/>
      <use x="1012.646484" xlink:href="#DejaVuSans-108"/>
      <use x="1040.429688" xlink:href="#DejaVuSans-105"/>
      <use x="1068.212891" xlink:href="#DejaVuSans-100"/>
      <use x="1131.689453" xlink:href="#DejaVuSans-46"/>
      <use x="1163.476562" xlink:href="#DejaVuSans-99"/>
      <use x="1218.457031" xlink:href="#DejaVuSans-115"/>
      <use x="1270.556641" xlink:href="#DejaVuSans-118"/>
     </g>
    </g>
    <g id="line2d_29">
     <path d="M 271.8 42.354688 
L 291.8 42.354688 
" style="fill:none;stroke:#ff7f0e;stroke-linecap:square;stroke-width:1.5;"/>
    </g>
    <g id="line2d_30"/>
    <g id="text_16">
     <!-- cooldown_closed_potlid.csv -->
     <defs>
      <path d="M 18.3125 70.21875 
L 18.3125 54.6875 
L 36.8125 54.6875 
L 36.8125 47.703125 
L 18.3125 47.703125 
L 18.3125 18.015625 
Q 18.3125 11.328125 20.140625 9.421875 
Q 21.96875 7.515625 27.59375 7.515625 
L 36.8125 7.515625 
L 36.8125 0 
L 27.59375 0 
Q 17.1875 0 13.234375 3.875 
Q 9.28125 7.765625 9.28125 18.015625 
L 9.28125 47.703125 
L 2.6875 47.703125 
L 2.6875 54.6875 
L 9.28125 54.6875 
L 9.28125 70.21875 
z
" id="DejaVuSans-116"/>
     </defs>
     <g transform="translate(299.8 45.854688)scale(0.1 -0.1)">
      <use xlink:href="#DejaVuSans-99"/>
      <use x="54.980469" xlink:href="#DejaVuSans-111"/>
      <use x="116.162109" xlink:href="#DejaVuSans-111"/>
      <use x="177.34375" xlink:href="#DejaVuSans-108"/>
      <use x="205.126953" xlink:href="#DejaVuSans-100"/>
      <use x="268.603516" xlink:href="#DejaVuSans-111"/>
      <use x="329.785156" xlink:href="#DejaVuSans-119"/>
      <use x="411.572266" xlink:href="#DejaVuSans-110"/>
      <use x="474.951172" xlink:href="#DejaVuSans-95"/>
      <use x="524.951172" xlink:href="#DejaVuSans-99"/>
      <use x="579.931641" xlink:href="#DejaVuSans-108"/>
      <use x="607.714844" xlink:href="#DejaVuSans-111"/>
      <use x="668.896484" xlink:href="#DejaVuSans-115"/>
      <use x="720.996094" xlink:href="#DejaVuSans-101"/>
      <use x="782.519531" xlink:href="#DejaVuSans-100"/>
      <use x="845.996094" xlink:href="#DejaVuSans-95"/>
      <use x="895.996094" xlink:href="#DejaVuSans-112"/>
      <use x="959.472656" xlink:href="#DejaVuSans-111"/>
      <use x="1020.654297" xlink:href="#DejaVuSans-116"/>
      <use x="1059.863281" xlink:href="#DejaVuSans-108"/>
      <use x="1087.646484" xlink:href="#DejaVuSans-105"/>
      <use x="1115.429688" xlink:href="#DejaVuSans-100"/>
      <use x="1178.90625" xlink:href="#DejaVuSans-46"/>
      <use x="1210.693359" xlink:href="#DejaVuSans-99"/>
      <use x="1265.673828" xlink:href="#DejaVuSans-115"/>
      <use x="1317.773438" xlink:href="#DejaVuSans-118"/>
     </g>
    </g>
   </g>
  </g>
 </g>
 <defs>
  <clipPath id="p4d8c08c9b2">
   <rect height="290.14375" width="395.934375" x="50.565625" y="14.3"/>
  </clipPath>
 </defs>
</svg>
