<?xml version="1.0" encoding="utf-8" standalone="no"?>
<!DOCTYPE svg PUBLIC "-//W3C//DTD SVG 1.1//EN"
  "http://www.w3.org/Graphics/SVG/1.1/DTD/svg11.dtd">
<!-- Created with matplotlib (https://matplotlib.org/) -->
<svg height="345.6pt" version="1.1" viewBox="0 0 460.8 345.6" width="460.8pt" xmlns="http://www.w3.org/2000/svg" xmlns:xlink="http://www.w3.org/1999/xlink">
 <defs>
  <style type="text/css">
*{stroke-linecap:butt;stroke-linejoin:round;}
  </style>
 </defs>
 <g id="figure_1">
  <g id="patch_1">
   <path d="M 0 345.6 
L 460.8 345.6 
L 460.8 0 
L 0 0 
z
" style="fill:#ffffff;"/>
  </g>
  <g id="axes_1">
   <g id="patch_2">
    <path d="M 50.565625 304.44375 
L 446.5 304.44375 
L 446.5 14.3 
L 50.565625 14.3 
z
" style="fill:#ffffff;"/>
   </g>
   <g id="matplotlib.axis_1">
    <g id="xtick_1">
     <g id="line2d_1">
      <path clip-path="url(#pc215fb5bb8)" d="M 68.495024 304.44375 
L 68.495024 14.3 
" style="fill:none;stroke:#b0b0b0;stroke-dasharray:1,1.65;stroke-dashoffset:0;"/>
     </g>
     <g id="line2d_2">
      <defs>
       <path d="M 0 0 
L 0 3.5 
" id="m3f1c5fde9a" style="stroke:#000000;stroke-width:0.8;"/>
      </defs>
      <g>
       <use style="stroke:#000000;stroke-width:0.8;" x="68.495024" xlink:href="#m3f1c5fde9a" y="304.44375"/>
      </g>
     </g>
     <g id="text_1">
      <!-- 0 -->
      <defs>
       <path d="M 31.78125 66.40625 
Q 24.171875 66.40625 20.328125 58.90625 
Q 16.5 51.421875 16.5 36.375 
Q 16.5 21.390625 20.328125 13.890625 
Q 24.171875 6.390625 31.78125 6.390625 
Q 39.453125 6.390625 43.28125 13.890625 
Q 47.125 21.390625 47.125 36.375 
Q 47.125 51.421875 43.28125 58.90625 
Q 39.453125 66.40625 31.78125 66.40625 
z
M 31.78125 74.21875 
Q 44.046875 74.21875 50.515625 64.515625 
Q 56.984375 54.828125 56.984375 36.375 
Q 56.984375 17.96875 50.515625 8.265625 
Q 44.046875 -1.421875 31.78125 -1.421875 
Q 19.53125 -1.421875 13.0625 8.265625 
Q 6.59375 17.96875 6.59375 36.375 
Q 6.59375 54.828125 13.0625 64.515625 
Q 19.53125 74.21875 31.78125 74.21875 
z
" id="DejaVuSans-48"/>
      </defs>
      <g transform="translate(65.313774 319.042187)scale(0.1 -0.1)">
       <use xlink:href="#DejaVuSans-48"/>
      </g>
     </g>
    </g>
    <g id="xtick_2">
     <g id="line2d_3">
      <path clip-path="url(#pc215fb5bb8)" d="M 149.458088 304.44375 
L 149.458088 14.3 
" style="fill:none;stroke:#b0b0b0;stroke-dasharray:1,1.65;stroke-dashoffset:0;"/>
     </g>
     <g id="line2d_4">
      <g>
       <use style="stroke:#000000;stroke-width:0.8;" x="149.458088" xlink:href="#m3f1c5fde9a" y="304.44375"/>
      </g>
     </g>
     <g id="text_2">
      <!-- 10 -->
      <defs>
       <path d="M 12.40625 8.296875 
L 28.515625 8.296875 
L 28.515625 63.921875 
L 10.984375 60.40625 
L 10.984375 69.390625 
L 28.421875 72.90625 
L 38.28125 72.90625 
L 38.28125 8.296875 
L 54.390625 8.296875 
L 54.390625 0 
L 12.40625 0 
z
" id="DejaVuSans-49"/>
      </defs>
      <g transform="translate(143.095588 319.042187)scale(0.1 -0.1)">
       <use xlink:href="#DejaVuSans-49"/>
       <use x="63.623047" xlink:href="#DejaVuSans-48"/>
      </g>
     </g>
    </g>
    <g id="xtick_3">
     <g id="line2d_5">
      <path clip-path="url(#pc215fb5bb8)" d="M 230.421152 304.44375 
L 230.421152 14.3 
" style="fill:none;stroke:#b0b0b0;stroke-dasharray:1,1.65;stroke-dashoffset:0;"/>
     </g>
     <g id="line2d_6">
      <g>
       <use style="stroke:#000000;stroke-width:0.8;" x="230.421152" xlink:href="#m3f1c5fde9a" y="304.44375"/>
      </g>
     </g>
     <g id="text_3">
      <!-- 20 -->
      <defs>
       <path d="M 19.1875 8.296875 
L 53.609375 8.296875 
L 53.609375 0 
L 7.328125 0 
L 7.328125 8.296875 
Q 12.9375 14.109375 22.625 23.890625 
Q 32.328125 33.6875 34.8125 36.53125 
Q 39.546875 41.84375 41.421875 45.53125 
Q 43.3125 49.21875 43.3125 52.78125 
Q 43.3125 58.59375 39.234375 62.25 
Q 35.15625 65.921875 28.609375 65.921875 
Q 23.96875 65.921875 18.8125 64.3125 
Q 13.671875 62.703125 7.8125 59.421875 
L 7.8125 69.390625 
Q 13.765625 71.78125 18.9375 73 
Q 24.125 74.21875 28.421875 74.21875 
Q 39.75 74.21875 46.484375 68.546875 
Q 53.21875 62.890625 53.21875 53.421875 
Q 53.21875 48.921875 51.53125 44.890625 
Q 49.859375 40.875 45.40625 35.40625 
Q 44.1875 33.984375 37.640625 27.21875 
Q 31.109375 20.453125 19.1875 8.296875 
z
" id="DejaVuSans-50"/>
      </defs>
      <g transform="translate(224.058652 319.042187)scale(0.1 -0.1)">
       <use xlink:href="#DejaVuSans-50"/>
       <use x="63.623047" xlink:href="#DejaVuSans-48"/>
      </g>
     </g>
    </g>
    <g id="xtick_4">
     <g id="line2d_7">
      <path clip-path="url(#pc215fb5bb8)" d="M 311.384216 304.44375 
L 311.384216 14.3 
" style="fill:none;stroke:#b0b0b0;stroke-dasharray:1,1.65;stroke-dashoffset:0;"/>
     </g>
     <g id="line2d_8">
      <g>
       <use style="stroke:#000000;stroke-width:0.8;" x="311.384216" xlink:href="#m3f1c5fde9a" y="304.44375"/>
      </g>
     </g>
     <g id="text_4">
      <!-- 30 -->
      <defs>
       <path d="M 40.578125 39.3125 
Q 47.65625 37.796875 51.625 33 
Q 55.609375 28.21875 55.609375 21.1875 
Q 55.609375 10.40625 48.1875 4.484375 
Q 40.765625 -1.421875 27.09375 -1.421875 
Q 22.515625 -1.421875 17.65625 -0.515625 
Q 12.796875 0.390625 7.625 2.203125 
L 7.625 11.71875 
Q 11.71875 9.328125 16.59375 8.109375 
Q 21.484375 6.890625 26.8125 6.890625 
Q 36.078125 6.890625 40.9375 10.546875 
Q 45.796875 14.203125 45.796875 21.1875 
Q 45.796875 27.640625 41.28125 31.265625 
Q 36.765625 34.90625 28.71875 34.90625 
L 20.21875 34.90625 
L 20.21875 43.015625 
L 29.109375 43.015625 
Q 36.375 43.015625 40.234375 45.921875 
Q 44.09375 48.828125 44.09375 54.296875 
Q 44.09375 59.90625 40.109375 62.90625 
Q 36.140625 65.921875 28.71875 65.921875 
Q 24.65625 65.921875 20.015625 65.03125 
Q 15.375 64.15625 9.8125 62.3125 
L 9.8125 71.09375 
Q 15.4375 72.65625 20.34375 73.4375 
Q 25.25 74.21875 29.59375 74.21875 
Q 40.828125 74.21875 47.359375 69.109375 
Q 53.90625 64.015625 53.90625 55.328125 
Q 53.90625 49.265625 50.4375 45.09375 
Q 46.96875 40.921875 40.578125 39.3125 
z
" id="DejaVuSans-51"/>
      </defs>
      <g transform="translate(305.021716 319.042187)scale(0.1 -0.1)">
       <use xlink:href="#DejaVuSans-51"/>
       <use x="63.623047" xlink:href="#DejaVuSans-48"/>
      </g>
     </g>
    </g>
    <g id="xtick_5">
     <g id="line2d_9">
      <path clip-path="url(#pc215fb5bb8)" d="M 392.34728 304.44375 
L 392.34728 14.3 
" style="fill:none;stroke:#b0b0b0;stroke-dasharray:1,1.65;stroke-dashoffset:0;"/>
     </g>
     <g id="line2d_10">
      <g>
       <use style="stroke:#000000;stroke-width:0.8;" x="392.34728" xlink:href="#m3f1c5fde9a" y="304.44375"/>
      </g>
     </g>
     <g id="text_5">
      <!-- 40 -->
      <defs>
       <path d="M 37.796875 64.3125 
L 12.890625 25.390625 
L 37.796875 25.390625 
z
M 35.203125 72.90625 
L 47.609375 72.90625 
L 47.609375 25.390625 
L 58.015625 25.390625 
L 58.015625 17.1875 
L 47.609375 17.1875 
L 47.609375 0 
L 37.796875 0 
L 37.796875 17.1875 
L 4.890625 17.1875 
L 4.890625 26.703125 
z
" id="DejaVuSans-52"/>
      </defs>
      <g transform="translate(385.98478 319.042187)scale(0.1 -0.1)">
       <use xlink:href="#DejaVuSans-52"/>
       <use x="63.623047" xlink:href="#DejaVuSans-48"/>
      </g>
     </g>
    </g>
    <g id="text_6">
     <!-- min -->
     <defs>
      <path d="M 52 44.1875 
Q 55.375 50.25 60.0625 53.125 
Q 64.75 56 71.09375 56 
Q 79.640625 56 84.28125 50.015625 
Q 88.921875 44.046875 88.921875 33.015625 
L 88.921875 0 
L 79.890625 0 
L 79.890625 32.71875 
Q 79.890625 40.578125 77.09375 44.375 
Q 74.3125 48.1875 68.609375 48.1875 
Q 61.625 48.1875 57.5625 43.546875 
Q 53.515625 38.921875 53.515625 30.90625 
L 53.515625 0 
L 44.484375 0 
L 44.484375 32.71875 
Q 44.484375 40.625 41.703125 44.40625 
Q 38.921875 48.1875 33.109375 48.1875 
Q 26.21875 48.1875 22.15625 43.53125 
Q 18.109375 38.875 18.109375 30.90625 
L 18.109375 0 
L 9.078125 0 
L 9.078125 54.6875 
L 18.109375 54.6875 
L 18.109375 46.1875 
Q 21.1875 51.21875 25.484375 53.609375 
Q 29.78125 56 35.6875 56 
Q 41.65625 56 45.828125 52.96875 
Q 50 49.953125 52 44.1875 
z
" id="DejaVuSans-109"/>
      <path d="M 9.421875 54.6875 
L 18.40625 54.6875 
L 18.40625 0 
L 9.421875 0 
z
M 9.421875 75.984375 
L 18.40625 75.984375 
L 18.40625 64.59375 
L 9.421875 64.59375 
z
" id="DejaVuSans-105"/>
      <path d="M 54.890625 33.015625 
L 54.890625 0 
L 45.90625 0 
L 45.90625 32.71875 
Q 45.90625 40.484375 42.875 44.328125 
Q 39.84375 48.1875 33.796875 48.1875 
Q 26.515625 48.1875 22.3125 43.546875 
Q 18.109375 38.921875 18.109375 30.90625 
L 18.109375 0 
L 9.078125 0 
L 9.078125 54.6875 
L 18.109375 54.6875 
L 18.109375 46.1875 
Q 21.34375 51.125 25.703125 53.5625 
Q 30.078125 56 35.796875 56 
Q 45.21875 56 50.046875 50.171875 
Q 54.890625 44.34375 54.890625 33.015625 
z
" id="DejaVuSans-110"/>
     </defs>
     <g transform="translate(239.104688 332.720312)scale(0.1 -0.1)">
      <use xlink:href="#DejaVuSans-109"/>
      <use x="97.412109" xlink:href="#DejaVuSans-105"/>
      <use x="125.195312" xlink:href="#DejaVuSans-110"/>
     </g>
    </g>
   </g>
   <g id="matplotlib.axis_2">
    <g id="ytick_1">
     <g id="line2d_11">
      <path clip-path="url(#pc215fb5bb8)" d="M 50.565625 269.94831 
L 446.5 269.94831 
" style="fill:none;stroke:#b0b0b0;stroke-dasharray:1,1.65;stroke-dashoffset:0;"/>
     </g>
     <g id="line2d_12">
      <defs>
       <path d="M 0 0 
L -3.5 0 
" id="mdf5adbc6a5" style="stroke:#000000;stroke-width:0.8;"/>
      </defs>
      <g>
       <use style="stroke:#000000;stroke-width:0.8;" x="50.565625" xlink:href="#mdf5adbc6a5" y="269.94831"/>
      </g>
     </g>
     <g id="text_7">
      <!-- 70 -->
      <defs>
       <path d="M 8.203125 72.90625 
L 55.078125 72.90625 
L 55.078125 68.703125 
L 28.609375 0 
L 18.3125 0 
L 43.21875 64.59375 
L 8.203125 64.59375 
z
" id="DejaVuSans-55"/>
      </defs>
      <g transform="translate(30.840625 273.747529)scale(0.1 -0.1)">
       <use xlink:href="#DejaVuSans-55"/>
       <use x="63.623047" xlink:href="#DejaVuSans-48"/>
      </g>
     </g>
    </g>
    <g id="ytick_2">
     <g id="line2d_13">
      <path clip-path="url(#pc215fb5bb8)" d="M 50.565625 233.211953 
L 446.5 233.211953 
" style="fill:none;stroke:#b0b0b0;stroke-dasharray:1,1.65;stroke-dashoffset:0;"/>
     </g>
     <g id="line2d_14">
      <g>
       <use style="stroke:#000000;stroke-width:0.8;" x="50.565625" xlink:href="#mdf5adbc6a5" y="233.211953"/>
      </g>
     </g>
     <g id="text_8">
      <!-- 75 -->
      <defs>
       <path d="M 10.796875 72.90625 
L 49.515625 72.90625 
L 49.515625 64.59375 
L 19.828125 64.59375 
L 19.828125 46.734375 
Q 21.96875 47.46875 24.109375 47.828125 
Q 26.265625 48.1875 28.421875 48.1875 
Q 40.625 48.1875 47.75 41.5 
Q 54.890625 34.8125 54.890625 23.390625 
Q 54.890625 11.625 47.5625 5.09375 
Q 40.234375 -1.421875 26.90625 -1.421875 
Q 22.3125 -1.421875 17.546875 -0.640625 
Q 12.796875 0.140625 7.71875 1.703125 
L 7.71875 11.625 
Q 12.109375 9.234375 16.796875 8.0625 
Q 21.484375 6.890625 26.703125 6.890625 
Q 35.15625 6.890625 40.078125 11.328125 
Q 45.015625 15.765625 45.015625 23.390625 
Q 45.015625 31 40.078125 35.4375 
Q 35.15625 39.890625 26.703125 39.890625 
Q 22.75 39.890625 18.8125 39.015625 
Q 14.890625 38.140625 10.796875 36.28125 
z
" id="DejaVuSans-53"/>
      </defs>
      <g transform="translate(30.840625 237.011172)scale(0.1 -0.1)">
       <use xlink:href="#DejaVuSans-55"/>
       <use x="63.623047" xlink:href="#DejaVuSans-53"/>
      </g>
     </g>
    </g>
    <g id="ytick_3">
     <g id="line2d_15">
      <path clip-path="url(#pc215fb5bb8)" d="M 50.565625 196.475596 
L 446.5 196.475596 
" style="fill:none;stroke:#b0b0b0;stroke-dasharray:1,1.65;stroke-dashoffset:0;"/>
     </g>
     <g id="line2d_16">
      <g>
       <use style="stroke:#000000;stroke-width:0.8;" x="50.565625" xlink:href="#mdf5adbc6a5" y="196.475596"/>
      </g>
     </g>
     <g id="text_9">
      <!-- 80 -->
      <defs>
       <path d="M 31.78125 34.625 
Q 24.75 34.625 20.71875 30.859375 
Q 16.703125 27.09375 16.703125 20.515625 
Q 16.703125 13.921875 20.71875 10.15625 
Q 24.75 6.390625 31.78125 6.390625 
Q 38.8125 6.390625 42.859375 10.171875 
Q 46.921875 13.96875 46.921875 20.515625 
Q 46.921875 27.09375 42.890625 30.859375 
Q 38.875 34.625 31.78125 34.625 
z
M 21.921875 38.8125 
Q 15.578125 40.375 12.03125 44.71875 
Q 8.5 49.078125 8.5 55.328125 
Q 8.5 64.0625 14.71875 69.140625 
Q 20.953125 74.21875 31.78125 74.21875 
Q 42.671875 74.21875 48.875 69.140625 
Q 55.078125 64.0625 55.078125 55.328125 
Q 55.078125 49.078125 51.53125 44.71875 
Q 48 40.375 41.703125 38.8125 
Q 48.828125 37.15625 52.796875 32.3125 
Q 56.78125 27.484375 56.78125 20.515625 
Q 56.78125 9.90625 50.3125 4.234375 
Q 43.84375 -1.421875 31.78125 -1.421875 
Q 19.734375 -1.421875 13.25 4.234375 
Q 6.78125 9.90625 6.78125 20.515625 
Q 6.78125 27.484375 10.78125 32.3125 
Q 14.796875 37.15625 21.921875 38.8125 
z
M 18.3125 54.390625 
Q 18.3125 48.734375 21.84375 45.5625 
Q 25.390625 42.390625 31.78125 42.390625 
Q 38.140625 42.390625 41.71875 45.5625 
Q 45.3125 48.734375 45.3125 54.390625 
Q 45.3125 60.0625 41.71875 63.234375 
Q 38.140625 66.40625 31.78125 66.40625 
Q 25.390625 66.40625 21.84375 63.234375 
Q 18.3125 60.0625 18.3125 54.390625 
z
" id="DejaVuSans-56"/>
      </defs>
      <g transform="translate(30.840625 200.274815)scale(0.1 -0.1)">
       <use xlink:href="#DejaVuSans-56"/>
       <use x="63.623047" xlink:href="#DejaVuSans-48"/>
      </g>
     </g>
    </g>
    <g id="ytick_4">
     <g id="line2d_17">
      <path clip-path="url(#pc215fb5bb8)" d="M 50.565625 159.739239 
L 446.5 159.739239 
" style="fill:none;stroke:#b0b0b0;stroke-dasharray:1,1.65;stroke-dashoffset:0;"/>
     </g>
     <g id="line2d_18">
      <g>
       <use style="stroke:#000000;stroke-width:0.8;" x="50.565625" xlink:href="#mdf5adbc6a5" y="159.739239"/>
      </g>
     </g>
     <g id="text_10">
      <!-- 85 -->
      <g transform="translate(30.840625 163.538457)scale(0.1 -0.1)">
       <use xlink:href="#DejaVuSans-56"/>
       <use x="63.623047" xlink:href="#DejaVuSans-53"/>
      </g>
     </g>
    </g>
    <g id="ytick_5">
     <g id="line2d_19">
      <path clip-path="url(#pc215fb5bb8)" d="M 50.565625 123.002881 
L 446.5 123.002881 
" style="fill:none;stroke:#b0b0b0;stroke-dasharray:1,1.65;stroke-dashoffset:0;"/>
     </g>
     <g id="line2d_20">
      <g>
       <use style="stroke:#000000;stroke-width:0.8;" x="50.565625" xlink:href="#mdf5adbc6a5" y="123.002881"/>
      </g>
     </g>
     <g id="text_11">
      <!-- 90 -->
      <defs>
       <path d="M 10.984375 1.515625 
L 10.984375 10.5 
Q 14.703125 8.734375 18.5 7.8125 
Q 22.3125 6.890625 25.984375 6.890625 
Q 35.75 6.890625 40.890625 13.453125 
Q 46.046875 20.015625 46.78125 33.40625 
Q 43.953125 29.203125 39.59375 26.953125 
Q 35.25 24.703125 29.984375 24.703125 
Q 19.046875 24.703125 12.671875 31.3125 
Q 6.296875 37.9375 6.296875 49.421875 
Q 6.296875 60.640625 12.9375 67.421875 
Q 19.578125 74.21875 30.609375 74.21875 
Q 43.265625 74.21875 49.921875 64.515625 
Q 56.59375 54.828125 56.59375 36.375 
Q 56.59375 19.140625 48.40625 8.859375 
Q 40.234375 -1.421875 26.421875 -1.421875 
Q 22.703125 -1.421875 18.890625 -0.6875 
Q 15.09375 0.046875 10.984375 1.515625 
z
M 30.609375 32.421875 
Q 37.25 32.421875 41.125 36.953125 
Q 45.015625 41.5 45.015625 49.421875 
Q 45.015625 57.28125 41.125 61.84375 
Q 37.25 66.40625 30.609375 66.40625 
Q 23.96875 66.40625 20.09375 61.84375 
Q 16.21875 57.28125 16.21875 49.421875 
Q 16.21875 41.5 20.09375 36.953125 
Q 23.96875 32.421875 30.609375 32.421875 
z
" id="DejaVuSans-57"/>
      </defs>
      <g transform="translate(30.840625 126.8021)scale(0.1 -0.1)">
       <use xlink:href="#DejaVuSans-57"/>
       <use x="63.623047" xlink:href="#DejaVuSans-48"/>
      </g>
     </g>
    </g>
    <g id="ytick_6">
     <g id="line2d_21">
      <path clip-path="url(#pc215fb5bb8)" d="M 50.565625 86.266524 
L 446.5 86.266524 
" style="fill:none;stroke:#b0b0b0;stroke-dasharray:1,1.65;stroke-dashoffset:0;"/>
     </g>
     <g id="line2d_22">
      <g>
       <use style="stroke:#000000;stroke-width:0.8;" x="50.565625" xlink:href="#mdf5adbc6a5" y="86.266524"/>
      </g>
     </g>
     <g id="text_12">
      <!-- 95 -->
      <g transform="translate(30.840625 90.065743)scale(0.1 -0.1)">
       <use xlink:href="#DejaVuSans-57"/>
       <use x="63.623047" xlink:href="#DejaVuSans-53"/>
      </g>
     </g>
    </g>
    <g id="ytick_7">
     <g id="line2d_23">
      <path clip-path="url(#pc215fb5bb8)" d="M 50.565625 49.530167 
L 446.5 49.530167 
" style="fill:none;stroke:#b0b0b0;stroke-dasharray:1,1.65;stroke-dashoffset:0;"/>
     </g>
     <g id="line2d_24">
      <g>
       <use style="stroke:#000000;stroke-width:0.8;" x="50.565625" xlink:href="#mdf5adbc6a5" y="49.530167"/>
      </g>
     </g>
     <g id="text_13">
      <!-- 100 -->
      <g transform="translate(24.478125 53.329385)scale(0.1 -0.1)">
       <use xlink:href="#DejaVuSans-49"/>
       <use x="63.623047" xlink:href="#DejaVuSans-48"/>
       <use x="127.246094" xlink:href="#DejaVuSans-48"/>
      </g>
     </g>
    </g>
    <g id="text_14">
     <!-- degC -->
     <defs>
      <path d="M 45.40625 46.390625 
L 45.40625 75.984375 
L 54.390625 75.984375 
L 54.390625 0 
L 45.40625 0 
L 45.40625 8.203125 
Q 42.578125 3.328125 38.25 0.953125 
Q 33.9375 -1.421875 27.875 -1.421875 
Q 17.96875 -1.421875 11.734375 6.484375 
Q 5.515625 14.40625 5.515625 27.296875 
Q 5.515625 40.1875 11.734375 48.09375 
Q 17.96875 56 27.875 56 
Q 33.9375 56 38.25 53.625 
Q 42.578125 51.265625 45.40625 46.390625 
z
M 14.796875 27.296875 
Q 14.796875 17.390625 18.875 11.75 
Q 22.953125 6.109375 30.078125 6.109375 
Q 37.203125 6.109375 41.296875 11.75 
Q 45.40625 17.390625 45.40625 27.296875 
Q 45.40625 37.203125 41.296875 42.84375 
Q 37.203125 48.484375 30.078125 48.484375 
Q 22.953125 48.484375 18.875 42.84375 
Q 14.796875 37.203125 14.796875 27.296875 
z
" id="DejaVuSans-100"/>
      <path d="M 56.203125 29.59375 
L 56.203125 25.203125 
L 14.890625 25.203125 
Q 15.484375 15.921875 20.484375 11.0625 
Q 25.484375 6.203125 34.421875 6.203125 
Q 39.59375 6.203125 44.453125 7.46875 
Q 49.3125 8.734375 54.109375 11.28125 
L 54.109375 2.78125 
Q 49.265625 0.734375 44.1875 -0.34375 
Q 39.109375 -1.421875 33.890625 -1.421875 
Q 20.796875 -1.421875 13.15625 6.1875 
Q 5.515625 13.8125 5.515625 26.8125 
Q 5.515625 40.234375 12.765625 48.109375 
Q 20.015625 56 32.328125 56 
Q 43.359375 56 49.78125 48.890625 
Q 56.203125 41.796875 56.203125 29.59375 
z
M 47.21875 32.234375 
Q 47.125 39.59375 43.09375 43.984375 
Q 39.0625 48.390625 32.421875 48.390625 
Q 24.90625 48.390625 20.390625 44.140625 
Q 15.875 39.890625 15.1875 32.171875 
z
" id="DejaVuSans-101"/>
      <path d="M 45.40625 27.984375 
Q 45.40625 37.75 41.375 43.109375 
Q 37.359375 48.484375 30.078125 48.484375 
Q 22.859375 48.484375 18.828125 43.109375 
Q 14.796875 37.75 14.796875 27.984375 
Q 14.796875 18.265625 18.828125 12.890625 
Q 22.859375 7.515625 30.078125 7.515625 
Q 37.359375 7.515625 41.375 12.890625 
Q 45.40625 18.265625 45.40625 27.984375 
z
M 54.390625 6.78125 
Q 54.390625 -7.171875 48.1875 -13.984375 
Q 42 -20.796875 29.203125 -20.796875 
Q 24.46875 -20.796875 20.265625 -20.09375 
Q 16.0625 -19.390625 12.109375 -17.921875 
L 12.109375 -9.1875 
Q 16.0625 -11.328125 19.921875 -12.34375 
Q 23.78125 -13.375 27.78125 -13.375 
Q 36.625 -13.375 41.015625 -8.765625 
Q 45.40625 -4.15625 45.40625 5.171875 
L 45.40625 9.625 
Q 42.625 4.78125 38.28125 2.390625 
Q 33.9375 0 27.875 0 
Q 17.828125 0 11.671875 7.65625 
Q 5.515625 15.328125 5.515625 27.984375 
Q 5.515625 40.671875 11.671875 48.328125 
Q 17.828125 56 27.875 56 
Q 33.9375 56 38.28125 53.609375 
Q 42.625 51.21875 45.40625 46.390625 
L 45.40625 54.6875 
L 54.390625 54.6875 
z
" id="DejaVuSans-103"/>
      <path d="M 64.40625 67.28125 
L 64.40625 56.890625 
Q 59.421875 61.53125 53.78125 63.8125 
Q 48.140625 66.109375 41.796875 66.109375 
Q 29.296875 66.109375 22.65625 58.46875 
Q 16.015625 50.828125 16.015625 36.375 
Q 16.015625 21.96875 22.65625 14.328125 
Q 29.296875 6.6875 41.796875 6.6875 
Q 48.140625 6.6875 53.78125 8.984375 
Q 59.421875 11.28125 64.40625 15.921875 
L 64.40625 5.609375 
Q 59.234375 2.09375 53.4375 0.328125 
Q 47.65625 -1.421875 41.21875 -1.421875 
Q 24.65625 -1.421875 15.125 8.703125 
Q 5.609375 18.84375 5.609375 36.375 
Q 5.609375 53.953125 15.125 64.078125 
Q 24.65625 74.21875 41.21875 74.21875 
Q 47.75 74.21875 53.53125 72.484375 
Q 59.328125 70.75 64.40625 67.28125 
z
" id="DejaVuSans-67"/>
     </defs>
     <g transform="translate(18.398438 172.288281)rotate(-90)scale(0.1 -0.1)">
      <use xlink:href="#DejaVuSans-100"/>
      <use x="63.476562" xlink:href="#DejaVuSans-101"/>
      <use x="125" xlink:href="#DejaVuSans-103"/>
      <use x="188.476562" xlink:href="#DejaVuSans-67"/>
     </g>
    </g>
   </g>
   <g id="line2d_25">
    <path clip-path="url(#pc215fb5bb8)" d="M 81.500337 36.305078 
L 81.569952 36.305078 
L 81.778783 34.835624 
L 81.848411 34.835624 
L 82.057215 33.366169 
L 82.126816 33.366169 
L 82.266072 32.631442 
L 82.614119 32.631442 
L 82.753349 31.896715 
L 82.822963 31.896715 
L 82.962166 31.161988 
L 83.101409 31.161988 
L 83.310226 29.692534 
L 83.379868 70.102527 
L 83.51907 28.957807 
L 83.867117 28.957807 
L 84.006373 28.223079 
L 84.632852 28.223079 
L 84.772068 28.957807 
L 84.841642 28.957807 
L 84.980912 29.692534 
L 85.050514 29.692534 
L 85.260977 31.161988 
L 85.677019 31.161988 
L 85.88585 32.631442 
L 85.955451 32.631442 
L 86.094667 33.366169 
L 86.442754 33.366169 
L 86.581943 34.100897 
L 86.651585 34.100897 
L 86.790734 34.835624 
L 86.929977 34.835624 
L 87.069233 35.570351 
L 87.138821 35.570351 
L 87.417307 37.774532 
L 87.486908 37.774532 
L 87.695739 39.243987 
L 87.834941 39.243987 
L 88.043786 40.713441 
L 88.183029 40.713441 
L 88.391846 42.182895 
L 88.600677 42.182895 
L 88.740891 42.917622 
L 88.948737 42.917622 
L 89.087993 43.652349 
L 89.366398 43.652349 
L 89.505641 44.387077 
L 89.575242 44.387077 
L 89.714485 45.121804 
L 89.923303 45.121804 
L 90.062532 45.856531 
L 90.132133 45.856531 
L 90.271349 46.591258 
L 90.410565 46.591258 
L 90.549795 47.325985 
L 90.619423 47.325985 
L 90.828227 49.530167 
L 90.967497 50.264894 
L 91.037071 49.530167 
L 91.176328 50.264894 
L 91.245942 50.264894 
L 91.385131 50.999621 
L 91.663577 50.999621 
L 91.802779 51.734348 
L 91.872394 51.734348 
L 92.011637 52.469075 
L 92.081292 52.469075 
L 92.290082 54.673257 
L 92.359697 54.673257 
L 92.429325 53.203802 
L 92.498927 53.93853 
L 92.707771 53.93853 
L 92.916602 55.407984 
L 93.055831 55.407984 
L 93.195047 56.142711 
L 93.269007 56.142711 
L 93.408236 56.877438 
L 93.547439 56.877438 
L 93.686668 57.612165 
L 93.758429 57.612165 
L 93.895486 58.346892 
L 94.034715 58.346892 
L 94.173931 57.612165 
L 94.243991 57.612165 
L 94.382789 58.346892 
L 94.45239 58.346892 
L 94.661221 59.816347 
L 94.800477 59.816347 
L 95.009267 61.285801 
L 95.078882 61.285801 
L 95.28774 62.755255 
L 95.635773 62.755255 
L 95.775016 63.489982 
L 95.984009 63.489982 
L 96.123076 64.22471 
L 96.749568 64.22471 
L 96.888784 64.959437 
L 97.028014 64.959437 
L 97.167216 65.694164 
L 97.306459 65.694164 
L 97.445675 66.428891 
L 97.515304 66.428891 
L 97.65452 67.163618 
L 98.141809 67.163618 
L 98.280958 67.898345 
L 98.420174 67.898345 
L 98.559444 68.633072 
L 98.6987 68.633072 
L 98.837889 69.3678 
L 99.116362 69.3678 
L 99.255551 70.102527 
L 99.325192 70.102527 
L 99.467269 70.837254 
L 99.603624 70.837254 
L 99.742854 71.571981 
L 99.882056 71.571981 
L 100.021313 72.306708 
L 100.090887 72.306708 
L 100.230157 73.041435 
L 100.299758 73.041435 
L 100.438961 73.776162 
L 100.508562 73.776162 
L 100.717393 75.245617 
L 100.856595 75.245617 
L 100.995811 75.980344 
L 101.207165 75.980344 
L 101.343858 76.715071 
L 101.622303 76.715071 
L 101.761533 77.449798 
L 101.831148 76.715071 
L 101.970364 77.449798 
L 102.179194 77.449798 
L 102.318383 78.184525 
L 102.388025 78.184525 
L 102.527255 78.919253 
L 102.596883 78.919253 
L 102.736139 79.65398 
L 103.014504 79.65398 
L 103.15376 80.388707 
L 103.362564 80.388707 
L 103.501834 81.123434 
L 103.641104 81.123434 
L 103.780212 81.858161 
L 103.919468 81.858161 
L 104.058671 82.592888 
L 104.197927 82.592888 
L 104.267515 83.327615 
L 104.337157 82.592888 
L 104.476386 83.327615 
L 104.894034 83.327615 
L 105.033318 84.062343 
L 105.102933 84.062343 
L 105.242351 84.79707 
L 105.381311 84.79707 
L 105.5205 85.531797 
L 105.590114 85.531797 
L 105.729384 86.266524 
L 105.798999 86.266524 
L 105.938161 87.001251 
L 106.007816 87.001251 
L 106.147005 87.735978 
L 106.216607 87.735978 
L 106.286262 88.470705 
L 106.355876 87.735978 
L 106.495065 88.470705 
L 106.703937 88.470705 
L 106.917099 89.94016 
L 107.404362 89.94016 
L 107.543618 90.674887 
L 107.682807 90.674887 
L 107.822064 91.409614 
L 107.961266 91.409614 
L 108.100496 92.144341 
L 108.239725 92.144341 
L 108.378955 92.879068 
L 108.518171 92.879068 
L 108.727015 94.348523 
L 108.866217 94.348523 
L 109.005447 93.613795 
L 109.214264 93.613795 
L 109.353493 94.348523 
L 109.492723 94.348523 
L 109.631952 95.08325 
L 109.980026 95.08325 
L 110.119215 95.817977 
L 111.093862 95.817977 
L 111.23301 96.552704 
L 111.444607 96.552704 
L 111.581057 97.287431 
L 111.789915 97.287431 
L 111.93017 98.022158 
L 112.068374 98.022158 
L 112.207563 98.756885 
L 112.419119 98.756885 
L 112.555677 99.491613 
L 112.694839 99.491613 
L 112.834055 100.22634 
L 113.112501 100.22634 
L 113.251757 100.961067 
L 113.390946 100.961067 
L 113.59979 102.430521 
L 113.669432 102.430521 
L 113.808634 103.899975 
L 113.878263 103.165248 
L 113.947864 103.899975 
L 114.08708 103.165248 
L 114.159083 103.165248 
L 114.295897 103.899975 
L 114.365525 103.899975 
L 114.504728 104.634703 
L 114.713586 104.634703 
L 114.852802 105.36943 
L 114.922416 105.36943 
L 115.061619 106.104157 
L 115.270463 106.104157 
L 115.409679 106.838884 
L 115.966583 106.838884 
L 116.105786 107.573611 
L 116.662677 107.573611 
L 116.871535 109.043065 
L 116.941122 109.043065 
L 117.080379 109.777793 
L 117.49804 109.777793 
L 117.63897 110.51252 
L 117.846114 110.51252 
L 117.98529 111.247247 
L 118.263749 111.247247 
L 118.402965 111.981974 
L 118.751052 111.981974 
L 118.959896 113.451428 
L 119.238314 113.451428 
L 119.378907 112.716701 
L 119.586361 112.716701 
L 119.725577 113.451428 
L 120.073624 113.451428 
L 120.212867 114.186156 
L 120.495684 114.186156 
L 120.6349 114.920883 
L 120.774103 114.920883 
L 120.913319 115.65561 
L 121.052562 115.65561 
L 121.191845 116.390337 
L 121.261379 116.390337 
L 121.331021 115.65561 
L 121.47021 116.390337 
L 121.609466 116.390337 
L 121.748655 117.125064 
L 122.375147 117.125064 
L 122.51439 117.859791 
L 122.792809 117.859791 
L 122.932038 118.594518 
L 123.001694 118.594518 
L 123.280099 120.7987 
L 123.767402 120.7987 
L 123.906591 121.533427 
L 124.045834 121.533427 
L 124.185063 122.268154 
L 124.463509 122.268154 
L 124.602725 123.002881 
L 124.882061 123.002881 
L 125.0204 123.737608 
L 125.22923 123.737608 
L 125.368473 124.472336 
L 125.507662 124.472336 
L 125.646892 125.207063 
L 125.856573 125.207063 
L 125.994952 125.94179 
L 126.551829 125.94179 
L 126.691086 126.676517 
L 126.899957 126.676517 
L 127.03916 127.411244 
L 127.317551 127.411244 
L 127.456808 128.145971 
L 128.083286 128.145971 
L 128.222489 128.880698 
L 128.570576 128.880698 
L 128.709792 129.615426 
L 128.850951 129.615426 
L 128.988237 130.350153 
L 129.475527 130.350153 
L 129.61477 131.08488 
L 130.102033 131.08488 
L 130.241249 131.819607 
L 130.728538 131.819607 
L 130.867754 132.554334 
L 131.215815 132.554334 
L 131.355031 133.289061 
L 131.703091 133.289061 
L 131.845289 134.023788 
L 132.120752 134.023788 
L 132.259982 134.758516 
L 132.399171 134.758516 
L 132.538441 135.493243 
L 132.956089 135.493243 
L 133.095318 136.22797 
L 133.304135 136.22797 
L 133.443378 136.962697 
L 133.861013 136.962697 
L 134.004628 137.697424 
L 134.213459 137.697424 
L 134.354078 138.432151 
L 134.491891 138.432151 
L 134.63112 139.166878 
L 134.77035 139.166878 
L 134.909566 139.901606 
L 135.118396 139.901606 
L 135.257626 140.636333 
L 135.675341 140.636333 
L 135.814517 141.37106 
L 136.02332 141.37106 
L 136.162563 142.105787 
L 136.789069 142.105787 
L 136.928285 142.840514 
L 137.554818 142.840514 
L 137.69402 143.575241 
L 137.972452 143.575241 
L 138.181296 145.044696 
L 138.390114 145.044696 
L 138.529343 144.309969 
L 138.877417 144.309969 
L 139.016619 145.044696 
L 139.155835 145.044696 
L 139.364666 146.51415 
L 139.573497 146.51415 
L 139.712767 145.779423 
L 139.991199 145.779423 
L 140.130401 146.51415 
L 140.269617 146.51415 
L 140.40886 147.248877 
L 140.617704 147.248877 
L 140.75692 146.51415 
L 140.965751 146.51415 
L 141.104954 147.248877 
L 141.313838 147.248877 
L 141.453 147.983604 
L 142.079533 147.983604 
L 142.218763 148.718331 
L 142.566796 148.718331 
L 142.706039 149.453059 
L 142.845241 149.453059 
L 142.984498 150.187786 
L 143.054085 150.187786 
L 143.262903 151.65724 
L 143.471747 151.65724 
L 143.61099 150.922513 
L 143.680591 150.922513 
L 143.819794 151.65724 
L 144.098253 151.65724 
L 144.237523 152.391967 
L 144.863974 152.391967 
L 145.00319 153.126694 
L 145.28281 153.126694 
L 145.351277 153.861421 
L 145.49048 153.126694 
L 145.699338 153.126694 
L 145.838527 153.861421 
L 146.047371 153.861421 
L 146.186614 154.596149 
L 146.673877 154.596149 
L 146.813093 155.330876 
L 147.161153 155.330876 
L 147.300382 156.065603 
L 147.439571 156.065603 
L 147.509253 155.330876 
L 147.652774 156.065603 
L 148.140091 156.065603 
L 148.279293 156.80033 
L 148.348921 156.80033 
L 148.488137 157.535057 
L 148.905799 157.535057 
L 149.045932 158.269784 
L 149.671494 158.269784 
L 149.810764 159.004511 
L 150.228411 159.004511 
L 150.367627 159.739239 
L 150.994133 159.739239 
L 151.133376 160.473966 
L 151.481409 160.473966 
L 151.620652 161.208693 
L 151.899071 161.208693 
L 152.040297 161.94342 
L 152.247118 161.94342 
L 152.386361 162.678147 
L 152.595178 162.678147 
L 152.734421 163.412874 
L 152.804022 163.412874 
L 152.943251 164.147601 
L 153.430528 164.147601 
L 153.569757 164.882329 
L 154.126635 164.882329 
L 154.265864 165.617056 
L 155.310018 165.617056 
L 155.449261 166.351783 
L 155.588463 166.351783 
L 155.727706 167.08651 
L 155.936591 167.08651 
L 156.075766 167.821237 
L 156.145368 167.821237 
L 156.214969 167.08651 
L 156.4238 168.555964 
L 156.632657 168.555964 
L 156.771873 167.821237 
L 156.911143 168.555964 
L 157.468007 168.555964 
L 157.607264 169.290691 
L 157.885655 169.290691 
L 158.024871 170.025419 
L 158.651363 170.025419 
L 158.790606 170.760146 
L 158.999437 170.760146 
L 159.138653 171.494873 
L 159.489061 171.494873 
L 159.625943 172.2296 
L 159.904402 172.2296 
L 160.043591 172.964327 
L 160.182847 172.964327 
L 160.32209 173.699054 
L 160.739711 173.699054 
L 160.878954 174.433781 
L 162.136284 174.433781 
L 162.275553 175.168509 
L 162.693201 175.168509 
L 162.832404 175.903236 
L 163.66774 175.903236 
L 163.806983 176.637963 
L 164.085429 176.637963 
L 164.224645 177.37269 
L 164.642306 177.37269 
L 164.78159 178.107417 
L 165.268812 178.107417 
L 165.408028 178.842144 
L 165.895331 178.842144 
L 166.034534 179.576872 
L 166.243418 179.576872 
L 166.382661 180.311599 
L 166.939485 180.311599 
L 167.078728 181.046326 
L 167.426774 181.046326 
L 167.566004 181.781053 
L 167.706691 181.781053 
L 167.844476 182.51578 
L 168.331726 182.51578 
L 168.470969 183.250507 
L 168.610185 183.250507 
L 168.749387 183.985234 
L 169.515163 183.985234 
L 169.654338 184.719962 
L 170.559289 184.719962 
L 170.701029 185.454689 
L 170.837721 185.454689 
L 170.976978 186.189416 
L 171.11618 186.189416 
L 171.255383 185.454689 
L 171.325025 185.454689 
L 171.464227 186.189416 
L 171.533828 186.189416 
L 171.673044 186.924143 
L 171.742686 186.924143 
L 171.881888 187.65887 
L 172.021118 186.924143 
L 172.508381 186.924143 
L 172.647624 187.65887 
L 173.204542 187.65887 
L 173.552615 190.597779 
L 173.62219 190.597779 
L 173.761406 189.128324 
L 173.970236 189.128324 
L 174.109452 192.067233 
L 174.18097 192.067233 
L 174.318337 192.80196 
L 174.457526 189.863052 
L 174.527141 189.863052 
L 174.666546 190.597779 
L 174.949768 190.597779 
L 175.088377 191.332506 
L 175.297774 191.332506 
L 175.436437 192.067233 
L 177.037535 192.067233 
L 177.176711 192.80196 
L 177.45517 192.80196 
L 177.594386 193.536687 
L 177.664014 193.536687 
L 177.803257 194.271414 
L 178.290493 194.271414 
L 178.429695 195.006142 
L 179.404302 195.006142 
L 179.543504 195.740869 
L 180.100395 195.740869 
L 180.239611 196.475596 
L 181.005373 196.475596 
L 181.144562 197.210323 
L 182.119101 197.210323 
L 182.258344 197.94505 
L 182.74562 197.94505 
L 182.884863 198.679777 
L 183.372153 198.679777 
L 183.511342 199.414504 
L 183.929004 199.414504 
L 184.068233 200.149232 
L 184.346732 200.149232 
L 184.485908 200.883959 
L 184.903623 200.883959 
L 185.04288 201.618686 
L 185.321258 201.618686 
L 185.460501 202.353413 
L 185.808548 202.353413 
L 185.947764 203.08814 
L 186.504668 203.08814 
L 186.643843 203.822867 
L 187.34045 203.822867 
L 187.479234 204.557594 
L 187.827321 204.557594 
L 188.036125 206.027049 
L 188.175327 206.027049 
L 188.31457 205.292322 
L 188.597388 205.292322 
L 188.736577 206.027049 
L 189.293468 206.027049 
L 189.432684 206.761776 
L 189.502312 206.761776 
L 189.641717 207.496503 
L 189.78073 206.761776 
L 190.337621 206.761776 
L 190.476851 207.496503 
L 191.103343 207.496503 
L 191.242586 208.23123 
L 191.59066 208.23123 
L 191.729862 208.965957 
L 192.286767 208.965957 
L 192.426023 209.700685 
L 192.565199 208.965957 
L 192.704428 209.700685 
L 193.330947 209.700685 
L 193.47015 210.435412 
L 193.81821 210.435412 
L 193.957466 211.170139 
L 194.375101 211.170139 
L 194.583959 212.639593 
L 194.653573 212.639593 
L 194.792776 211.904866 
L 195.280039 211.904866 
L 195.419295 212.639593 
L 195.836957 212.639593 
L 195.976159 213.37432 
L 196.393834 213.37432 
L 196.533036 214.109047 
L 197.437974 214.109047 
L 197.577231 214.843775 
L 197.646872 214.843775 
L 197.786048 215.578502 
L 197.925318 215.578502 
L 198.06452 214.843775 
L 198.273378 214.843775 
L 198.412607 215.578502 
L 198.551796 214.843775 
L 198.830458 214.843775 
L 198.969471 215.578502 
L 199.387133 215.578502 
L 199.526416 216.313229 
L 199.804794 216.313229 
L 199.944037 217.047956 
L 200.222442 217.047956 
L 200.361685 217.782683 
L 200.640144 217.782683 
L 200.77936 217.047956 
L 200.918576 217.782683 
L 201.266636 217.782683 
L 201.405866 218.51741 
L 202.245547 218.51741 
L 202.38479 219.252137 
L 202.872053 219.252137 
L 203.011283 219.986865 
L 203.428957 219.986865 
L 203.568187 220.721592 
L 203.985875 220.721592 
L 204.125078 221.456319 
L 205.238846 221.456319 
L 205.378076 222.191046 
L 205.726122 222.191046 
L 205.865365 222.925773 
L 206.004608 222.925773 
L 206.143784 222.191046 
L 206.283027 222.191046 
L 206.422243 222.925773 
L 207.118363 222.925773 
L 207.257606 223.6605 
L 207.536011 223.6605 
L 207.675268 224.395227 
L 208.092916 224.395227 
L 208.162544 223.6605 
L 208.302448 224.395227 
L 208.719421 224.395227 
L 208.858637 225.129955 
L 209.137069 225.129955 
L 209.276326 225.864682 
L 209.902818 225.864682 
L 210.042398 226.599409 
L 211.016586 226.599409 
L 211.155829 227.334136 
L 211.434342 227.334136 
L 211.573477 228.068863 
L 212.478429 228.068863 
L 212.617672 228.80359 
L 213.453008 228.80359 
L 213.592237 229.538317 
L 213.661839 228.80359 
L 213.801068 229.538317 
L 214.149115 229.538317 
L 214.291138 230.273045 
L 214.497175 230.273045 
L 214.636378 231.007772 
L 215.193269 231.007772 
L 215.332511 231.742499 
L 215.541356 231.742499 
L 215.684957 231.007772 
L 215.824133 231.742499 
L 216.102605 231.742499 
L 216.241808 232.477226 
L 217.00757 232.477226 
L 217.146826 233.211953 
L 218.121325 233.211953 
L 218.260527 233.94668 
L 218.678229 233.94668 
L 218.817472 234.681407 
L 218.956715 234.681407 
L 219.095891 235.416135 
L 219.235107 235.416135 
L 219.374323 234.681407 
L 219.722383 234.681407 
L 219.861626 235.416135 
L 220.209659 235.416135 
L 220.348875 236.150862 
L 220.557719 236.150862 
L 220.696949 235.416135 
L 220.836178 236.150862 
L 221.6019 236.150862 
L 221.741143 236.885589 
L 222.43725 236.885589 
L 222.576479 237.620316 
L 223.133357 237.620316 
L 223.272559 238.355043 
L 223.829477 238.355043 
L 223.899092 239.08977 
L 224.038308 238.355043 
L 224.17751 238.355043 
L 224.316794 239.08977 
L 224.664867 239.08977 
L 224.80403 239.824497 
L 225.988695 239.824497 
L 226.126642 240.559225 
L 227.101195 240.559225 
L 227.243096 241.293952 
L 227.728685 241.293952 
L 227.866943 242.028679 
L 228.423834 242.028679 
L 228.56305 242.763406 
L 228.911137 242.763406 
L 229.050353 243.498133 
L 229.890021 243.498133 
L 230.029264 244.23286 
L 230.516567 244.23286 
L 230.65581 244.967588 
L 231.212634 244.967588 
L 231.351863 245.702315 
L 232.674489 245.702315 
L 232.813719 246.437042 
L 233.649055 246.437042 
L 233.788285 247.171769 
L 234.066717 247.171769 
L 234.205946 247.906496 
L 234.623608 247.906496 
L 234.762851 248.641223 
L 234.90208 247.906496 
L 235.041296 248.641223 
L 235.389329 248.641223 
L 235.528572 249.37595 
L 235.73739 249.37595 
L 235.876633 248.641223 
L 236.08549 248.641223 
L 236.224693 249.37595 
L 236.363949 249.37595 
L 236.57274 250.845405 
L 236.78157 250.845405 
L 236.9208 250.110678 
L 237.616947 250.110678 
L 237.756123 250.845405 
L 238.661074 250.845405 
L 238.800303 251.580132 
L 239.217965 251.580132 
L 239.287579 250.845405 
L 239.426822 251.580132 
L 240.053328 251.580132 
L 240.195054 252.314859 
L 240.819023 252.314859 
L 240.958279 253.049586 
L 241.723987 253.049586 
L 241.863244 253.784313 
L 242.842155 253.784313 
L 242.98133 254.51904 
L 243.677464 254.51904 
L 243.816667 255.253768 
L 244.860874 255.253768 
L 245.000077 255.988495 
L 245.905028 255.988495 
L 246.044258 256.723222 
L 246.322744 256.723222 
L 246.461919 257.457949 
L 246.879594 257.457949 
L 247.018823 258.192676 
L 247.784545 258.192676 
L 247.923815 258.927403 
L 248.341423 258.927403 
L 248.480679 259.66213 
L 248.550267 259.66213 
L 248.68951 258.927403 
L 248.828726 259.66213 
L 250.152634 259.66213 
L 250.220953 260.396858 
L 250.360169 259.66213 
L 250.569013 259.66213 
L 250.708229 260.396858 
L 251.334735 260.396858 
L 251.474018 261.131585 
L 251.682768 261.131585 
L 251.822011 260.396858 
L 251.892584 260.396858 
L 252.030828 261.131585 
L 252.518105 261.131585 
L 252.726962 262.601039 
L 252.866178 262.601039 
L 253.005421 261.866312 
L 253.492671 261.866312 
L 253.632588 262.601039 
L 254.328034 262.601039 
L 254.46729 263.335766 
L 254.815324 263.335766 
L 255.16337 266.274675 
L 255.232985 266.274675 
L 255.372565 264.070493 
L 255.581045 264.070493 
L 255.720275 264.80522 
L 256.559997 264.80522 
L 256.69924 265.539948 
L 257.813022 265.539948 
L 257.952184 266.274675 
L 258.78752 266.274675 
L 258.926736 267.009402 
L 259.901315 267.009402 
L 260.040545 267.744129 
L 260.249376 267.744129 
L 260.39013 267.009402 
L 260.458179 267.009402 
L 260.597436 267.744129 
L 261.223928 267.744129 
L 261.363144 268.478856 
L 261.711218 268.478856 
L 261.780832 267.744129 
L 261.920021 268.478856 
L 262.824986 268.478856 
L 262.964202 269.213583 
L 263.799565 269.213583 
L 263.938781 269.94831 
L 264.358993 269.94831 
L 264.495699 270.683038 
L 264.982989 270.683038 
L 265.122205 271.417765 
L 265.261394 271.417765 
L 265.331036 270.683038 
L 265.470238 271.417765 
L 265.887913 271.417765 
L 266.027143 272.152492 
L 267.001695 272.152492 
L 267.140965 272.887219 
L 267.628214 272.887219 
L 267.76743 273.621946 
L 268.741983 273.621946 
L 268.881199 274.356673 
L 270.06894 274.356673 
L 270.20817 275.091401 
L 270.277798 275.091401 
L 270.417041 275.826128 
L 270.695459 275.826128 
L 270.765101 275.091401 
L 270.90429 275.826128 
L 271.113121 275.826128 
L 271.252364 276.560855 
L 271.461195 276.560855 
L 271.530796 275.826128 
L 271.670052 276.560855 
L 271.739667 275.826128 
L 271.878856 276.560855 
L 271.948471 276.560855 
L 272.018113 275.826128 
L 272.157329 276.560855 
L 272.923037 276.560855 
L 273.062253 277.295582 
L 274.036832 277.295582 
L 274.176048 278.030309 
L 275.011398 278.030309 
L 275.150601 278.765036 
L 275.220229 278.765036 
L 275.359485 279.499763 
L 276.545513 279.499763 
L 276.682044 280.234491 
L 276.890915 280.234491 
L 276.960489 279.499763 
L 277.099948 280.234491 
L 277.447833 280.234491 
L 277.517421 279.499763 
L 277.65665 280.234491 
L 278.49196 280.234491 
L 278.631216 280.969218 
L 279.744958 280.969218 
L 279.884201 281.703945 
L 280.649949 281.703945 
L 280.789152 282.438672 
L 281.346056 282.438672 
L 281.485245 283.173399 
L 282.599054 283.173399 
L 282.73827 283.908126 
L 283.717181 283.908126 
L 283.856424 284.642853 
L 284.065255 284.642853 
L 284.204498 283.908126 
L 284.274193 283.908126 
L 284.413328 284.642853 
L 285.039807 284.642853 
L 285.17905 286.112308 
L 285.318239 286.112308 
L 285.457495 285.377581 
L 286.22319 285.377581 
L 286.362433 286.112308 
L 286.710493 286.112308 
L 286.849709 286.847035 
L 288.172349 286.847035 
L 288.311565 287.581762 
L 288.868442 287.581762 
L 289.007685 288.316489 
L 289.146901 287.581762 
L 289.355732 287.581762 
L 289.497458 288.316489 
L 290.887175 288.316489 
L 291.026418 289.051216 
L 292.140187 289.051216 
L 292.279497 289.785943 
L 292.905922 289.785943 
L 293.045151 290.520671 
L 293.950089 290.520671 
L 294.019717 291.255398 
L 294.158933 290.520671 
L 294.367777 290.520671 
L 294.507007 291.255398 
L 294.646223 291.255398 
L 294.646223 291.255398 
" style="fill:none;stroke:#1f77b4;stroke-linecap:square;stroke-width:1.5;"/>
   </g>
   <g id="line2d_26">
    <path clip-path="url(#pc215fb5bb8)" d="M 68.562642 66.428891 
L 68.632243 65.694164 
L 68.841074 56.142711 
L 68.910689 55.407984 
L 69.258722 47.325985 
L 69.609643 41.448168 
L 69.676397 41.448168 
L 69.954842 37.774532 
L 70.302916 34.835624 
L 70.378441 34.835624 
L 70.58572 33.366169 
L 70.655321 33.366169 
L 70.864125 31.896715 
L 70.933767 31.896715 
L 71.142611 30.427261 
L 71.281827 30.427261 
L 71.490671 28.957807 
L 71.699475 28.957807 
L 71.838718 28.223079 
L 73.022074 28.223079 
L 73.161304 27.488352 
L 73.230905 27.488352 
L 73.370121 28.223079 
L 74.762348 28.223079 
L 74.901578 27.488352 
L 74.971192 27.488352 
L 75.110422 28.223079 
L 75.249665 28.223079 
L 75.388867 27.488352 
L 75.736928 27.488352 
L 75.876144 28.223079 
L 76.224204 28.223079 
L 76.36346 28.957807 
L 76.641892 28.957807 
L 76.781108 29.692534 
L 77.268398 29.692534 
L 77.4076 30.427261 
L 77.755647 30.427261 
L 77.89489 31.161988 
L 77.964545 31.161988 
L 78.03416 30.427261 
L 78.173376 31.161988 
L 79.008672 31.161988 
L 79.147901 31.896715 
L 79.913623 31.896715 
L 80.052866 32.631442 
L 80.818561 32.631442 
L 80.957817 33.366169 
L 81.097006 33.366169 
L 81.236249 32.631442 
L 81.445066 32.631442 
L 81.584323 33.366169 
L 81.932356 33.366169 
L 82.071599 34.100897 
L 82.1412 34.100897 
L 82.350058 35.570351 
L 82.419673 35.570351 
L 82.558902 34.100897 
L 82.698105 34.835624 
L 82.906922 34.835624 
L 83.046165 35.570351 
L 83.11578 35.570351 
L 83.255009 34.835624 
L 83.536086 37.039805 
L 83.672698 37.039805 
L 83.881528 35.570351 
L 85.486932 35.570351 
L 85.626107 36.305078 
L 86.183025 36.305078 
L 86.322281 37.039805 
L 86.60074 37.039805 
L 86.739929 37.774532 
L 87.436036 37.774532 
L 87.575279 38.509259 
L 87.92334 38.509259 
L 88.062556 39.243987 
L 88.410629 39.243987 
L 88.549832 39.978714 
L 89.524438 39.978714 
L 89.663627 40.713441 
L 89.802843 40.713441 
L 89.942073 41.448168 
L 90.359734 41.448168 
L 90.499355 42.182895 
L 90.63818 42.182895 
L 90.707794 41.448168 
L 90.847037 42.182895 
L 91.3343 42.182895 
L 91.473543 42.917622 
L 91.753716 42.917622 
L 91.891191 43.652349 
L 92.03042 42.917622 
L 93.005 42.917622 
L 93.144216 43.652349 
L 93.701107 43.652349 
L 93.840323 44.387077 
L 94.748108 44.387077 
L 94.884584 45.121804 
L 95.441408 45.121804 
L 95.580637 45.856531 
L 96.346345 45.856531 
L 96.485588 46.591258 
L 96.624818 46.591258 
L 96.764007 45.856531 
L 96.833635 45.856531 
L 96.972865 46.591258 
L 97.529756 46.591258 
L 97.673438 47.325985 
L 97.951749 47.325985 
L 98.091005 48.060712 
L 98.231422 47.325985 
L 98.299822 47.325985 
L 98.508653 48.79544 
L 99.344003 48.79544 
L 99.48581 49.530167 
L 100.248954 49.530167 
L 100.388197 50.264894 
L 101.225881 50.264894 
L 101.362776 50.999621 
L 101.711349 50.999621 
L 101.850026 51.734348 
L 102.198086 51.734348 
L 102.337329 52.469075 
L 103.381469 52.469075 
L 103.520739 53.203802 
L 104.425852 53.203802 
L 104.564893 53.93853 
L 104.634507 53.93853 
L 104.773737 54.673257 
L 104.912939 53.93853 
L 105.121783 53.93853 
L 105.261026 54.673257 
L 105.330668 54.673257 
L 105.469844 55.407984 
L 106.165991 55.407984 
L 106.305207 56.142711 
L 107.349388 56.142711 
L 107.488604 56.877438 
L 107.975893 56.877438 
L 108.184711 58.346892 
L 108.254379 58.346892 
L 108.393582 57.612165 
L 108.950473 57.612165 
L 109.089662 58.346892 
L 109.298533 58.346892 
L 109.437736 59.08162 
L 110.481889 59.08162 
L 110.621119 59.816347 
L 111.251969 59.816347 
L 111.391185 60.551074 
L 111.60007 60.551074 
L 111.7393 59.816347 
L 111.878516 60.551074 
L 112.296177 60.551074 
L 112.437835 61.285801 
L 112.78348 61.285801 
L 112.99227 62.755255 
L 113.131513 62.755255 
L 113.201115 63.489982 
L 113.340331 62.755255 
L 113.47956 62.755255 
L 113.549161 62.020528 
L 113.688391 62.755255 
L 114.454153 62.755255 
L 114.66297 64.22471 
L 114.802186 64.22471 
L 114.941416 63.489982 
L 115.567908 63.489982 
L 115.707191 64.22471 
L 116.403271 64.22471 
L 116.542474 64.959437 
L 117.308209 64.959437 
L 117.447438 65.694164 
L 118.282775 65.694164 
L 118.421991 66.428891 
L 119.187739 66.428891 
L 119.326942 67.163618 
L 120.023062 67.163618 
L 120.162292 67.898345 
L 120.861152 67.898345 
L 120.997642 68.633072 
L 121.415303 68.633072 
L 121.55456 69.3678 
L 122.181052 69.3678 
L 122.320254 70.102527 
L 123.155591 70.102527 
L 123.294807 70.837254 
L 124.547845 70.837254 
L 124.687061 71.571981 
L 124.900291 71.571981 
L 125.039453 72.306708 
L 125.178696 72.306708 
L 125.248311 71.571981 
L 125.387554 72.306708 
L 125.87483 72.306708 
L 126.014019 73.041435 
L 126.153275 73.041435 
L 126.222876 72.306708 
L 126.364319 73.041435 
L 126.501308 73.041435 
L 126.570937 72.306708 
L 126.710166 73.041435 
L 126.849895 73.041435 
L 126.988612 73.776162 
L 127.058213 73.041435 
L 127.197415 73.776162 
L 128.172008 73.776162 
L 128.311224 74.51089 
L 128.93773 74.51089 
L 129.076959 75.245617 
L 129.425006 75.245617 
L 129.564222 75.980344 
L 129.703465 75.980344 
L 129.77308 75.245617 
L 129.912282 75.980344 
L 130.469187 75.980344 
L 130.608403 76.715071 
L 130.747659 76.715071 
L 130.886848 77.449798 
L 131.026078 77.449798 
L 131.165321 76.715071 
L 131.234908 76.715071 
L 131.304537 75.980344 
L 131.443739 76.715071 
L 131.791894 76.715071 
L 131.931042 77.449798 
L 132.279089 77.449798 
L 132.418373 78.184525 
L 132.627136 78.184525 
L 132.696778 77.449798 
L 132.83598 78.184525 
L 133.740945 78.184525 
L 133.880174 78.919253 
L 134.437052 78.919253 
L 134.576308 79.65398 
L 134.715484 79.65398 
L 134.785152 78.919253 
L 134.924382 79.65398 
L 135.759678 79.65398 
L 135.898907 80.388707 
L 136.455771 80.388707 
L 136.595028 81.123434 
L 137.151892 81.123434 
L 137.291135 81.858161 
L 137.987228 81.858161 
L 138.126457 82.592888 
L 138.196072 81.858161 
L 138.33966 82.592888 
L 139.244611 82.592888 
L 139.383881 83.327615 
L 140.49765 83.327615 
L 140.636852 84.062343 
L 141.265315 84.062343 
L 141.402574 84.79707 
L 141.611391 84.79707 
L 141.680979 84.062343 
L 141.820222 84.79707 
L 142.307566 84.79707 
L 142.446728 85.531797 
L 142.655572 85.531797 
L 142.794788 86.266524 
L 143.07322 86.266524 
L 143.212476 85.531797 
L 143.421293 85.531797 
L 143.56055 86.266524 
L 144.465474 86.266524 
L 144.60469 87.001251 
L 145.022432 87.001251 
L 145.161581 87.735978 
L 146.066519 87.735978 
L 146.205762 88.470705 
L 146.901882 88.470705 
L 147.041071 89.205433 
L 147.737205 89.205433 
L 147.876434 89.94016 
L 148.01565 89.205433 
L 148.224481 89.205433 
L 148.363724 89.94016 
L 148.572528 89.94016 
L 148.714132 92.144341 
L 148.920588 92.144341 
L 149.059818 90.674887 
L 149.268702 90.674887 
L 149.407918 93.613795 
L 149.616736 93.613795 
L 149.755952 90.674887 
L 149.895181 90.674887 
L 150.034384 91.409614 
L 150.869801 91.409614 
L 151.008963 92.144341 
L 151.078578 92.144341 
L 151.148165 91.409614 
L 151.287381 92.144341 
L 151.70507 92.144341 
L 151.844286 92.879068 
L 152.335934 92.879068 
L 152.405549 92.144341 
L 152.544778 92.879068 
L 152.892825 92.879068 
L 153.032027 93.613795 
L 153.728161 93.613795 
L 153.867391 94.348523 
L 154.563498 94.348523 
L 154.63314 95.08325 
L 154.772315 94.348523 
L 155.120443 94.348523 
L 155.259632 95.08325 
L 155.677266 95.08325 
L 155.816482 95.817977 
L 155.886151 95.08325 
L 156.025353 95.817977 
L 156.303785 95.817977 
L 156.3734 95.08325 
L 156.512603 95.817977 
L 157.069521 95.817977 
L 157.211692 96.552704 
L 157.904857 96.552704 
L 158.0441 97.287431 
L 159.297071 97.287431 
L 159.43626 98.022158 
L 159.9261 98.022158 
L 160.062779 98.756885 
L 160.689312 98.756885 
L 160.828541 99.491613 
L 160.967771 98.756885 
L 161.315804 98.756885 
L 161.45502 99.491613 
L 161.803107 99.491613 
L 161.942323 100.22634 
L 162.916875 100.22634 
L 163.195334 102.430521 
L 163.334537 102.430521 
L 163.473793 100.961067 
L 163.891441 100.961067 
L 164.030711 101.695794 
L 164.239515 101.695794 
L 164.38058 102.430521 
L 164.726764 102.430521 
L 164.796392 101.695794 
L 164.935622 102.430521 
L 165.914573 102.430521 
L 166.053735 103.165248 
L 167.028328 103.165248 
L 167.167544 103.899975 
L 167.654807 103.899975 
L 167.794063 104.634703 
L 168.002881 104.634703 
L 168.143729 103.899975 
L 168.490197 103.899975 
L 168.629373 104.634703 
L 169.047048 104.634703 
L 169.186264 105.36943 
L 169.398144 105.36943 
L 169.534324 106.104157 
L 169.673526 105.36943 
L 170.50889 105.36943 
L 170.648119 106.104157 
L 170.717721 106.104157 
L 170.787322 106.838884 
L 170.926565 106.104157 
L 171.135369 106.104157 
L 171.274612 106.838884 
L 172.527623 106.838884 
L 172.666906 107.573611 
L 173.502162 107.573611 
L 173.641432 108.308338 
L 174.546369 108.308338 
L 174.685599 109.043065 
L 174.755187 108.308338 
L 174.894443 109.043065 
L 175.520922 109.043065 
L 175.660124 109.777793 
L 176.565102 109.777793 
L 176.704332 110.51252 
L 178.026958 110.51252 
L 178.166174 111.247247 
L 178.374991 111.247247 
L 178.514261 110.51252 
L 178.653437 111.247247 
L 178.792666 111.247247 
L 178.931896 111.981974 
L 179.423517 111.981974 
L 179.562733 112.716701 
L 180.467711 112.716701 
L 180.606927 113.451428 
L 181.999141 113.451428 
L 182.13837 114.186156 
L 182.973734 114.186156 
L 183.112923 114.920883 
L 184.017887 114.920883 
L 184.157117 115.65561 
L 184.226732 115.65561 
L 184.365934 116.390337 
L 184.505177 115.65561 
L 185.064578 115.65561 
L 185.201298 116.390337 
L 186.17585 116.390337 
L 186.315079 117.125064 
L 187.080788 117.125064 
L 187.220044 117.859791 
L 187.359314 117.125064 
L 187.637692 117.125064 
L 187.776895 117.859791 
L 188.544546 117.859791 
L 188.681832 118.594518 
L 189.377993 118.594518 
L 189.517196 119.329246 
L 190.56139 119.329246 
L 190.700606 120.063973 
L 191.187909 120.063973 
L 191.25747 119.329246 
L 191.396713 120.063973 
L 191.884043 120.063973 
L 192.024446 120.7987 
L 193.071744 120.7987 
L 193.210987 121.533427 
L 193.698236 121.533427 
L 193.90708 123.002881 
L 194.115925 123.002881 
L 194.255141 122.268154 
L 195.229693 122.268154 
L 195.368923 123.002881 
L 195.716969 123.002881 
L 195.856199 123.737608 
L 195.995455 123.002881 
L 196.065056 123.737608 
L 196.134644 123.002881 
L 196.273887 123.737608 
L 196.90042 123.737608 
L 197.042011 124.472336 
L 197.318041 124.472336 
L 197.457311 123.737608 
L 197.527587 123.737608 
L 197.666142 124.472336 
L 198.919153 124.472336 
L 199.058382 125.207063 
L 199.336774 125.207063 
L 199.476017 125.94179 
L 200.937872 125.94179 
L 201.077088 126.676517 
L 202.051641 126.676517 
L 202.190843 127.411244 
L 203.443949 127.411244 
L 203.583084 128.145971 
L 204.070387 128.145971 
L 204.20963 128.880698 
L 205.393013 128.880698 
L 205.532216 129.615426 
L 206.650343 129.615426 
L 206.789599 130.350153 
L 207.694604 130.350153 
L 207.83378 131.08488 
L 208.042624 131.08488 
L 208.112198 130.350153 
L 208.251441 131.08488 
L 209.086764 131.08488 
L 209.228531 131.819607 
L 209.643655 131.819607 
L 209.782885 132.554334 
L 210.618235 132.554334 
L 210.757491 133.289061 
L 211.662402 133.289061 
L 211.801591 134.023788 
L 212.010449 134.023788 
L 212.080117 133.289061 
L 212.219333 134.023788 
L 212.985014 134.023788 
L 213.124244 134.758516 
L 213.333061 134.758516 
L 213.472291 134.023788 
L 213.541973 134.023788 
L 213.68297 134.758516 
L 214.586086 134.758516 
L 214.725315 135.493243 
L 215.839097 135.493243 
L 215.9783 136.22797 
L 216.813677 136.22797 
L 216.952879 136.962697 
L 217.927513 136.962697 
L 217.997046 137.697424 
L 218.136289 136.962697 
L 218.275559 136.962697 
L 218.417299 137.697424 
L 219.041227 137.697424 
L 219.180457 138.432151 
L 220.368225 138.432151 
L 220.507428 139.166878 
L 221.273163 139.166878 
L 221.412365 139.901606 
L 222.804606 139.901606 
L 222.943849 140.636333 
L 223.570314 140.636333 
L 223.709544 141.37106 
L 223.920507 141.37106 
L 223.988043 140.636333 
L 224.127246 141.37106 
L 225.171467 141.37106 
L 225.310669 142.105787 
L 226.842126 142.105787 
L 226.981369 142.840514 
L 227.607861 142.840514 
L 227.747077 143.575241 
L 227.816625 143.575241 
L 227.955922 144.309969 
L 228.164766 144.309969 
L 228.303968 143.575241 
L 228.652042 143.575241 
L 228.791271 144.309969 
L 229.55698 144.309969 
L 229.696223 145.779423 
L 229.90504 145.779423 
L 230.044269 145.044696 
L 230.253087 145.044696 
L 230.39233 147.983604 
L 230.461931 147.983604 
L 230.531546 147.248877 
L 230.670775 145.044696 
L 230.949221 145.044696 
L 231.08845 145.779423 
L 231.993401 145.779423 
L 232.132617 146.51415 
L 232.271847 146.51415 
L 232.411076 145.779423 
L 232.550292 146.51415 
L 233.807581 146.51415 
L 233.946824 147.248877 
L 235.060619 147.248877 
L 235.199835 147.983604 
L 236.035185 147.983604 
L 236.174401 148.718331 
L 236.313617 147.983604 
L 236.383232 147.983604 
L 236.522434 148.718331 
L 237.566642 148.718331 
L 237.705858 149.453059 
L 238.332337 149.453059 
L 238.47158 150.187786 
L 238.612402 149.453059 
L 238.750093 150.187786 
L 239.167687 150.187786 
L 239.306943 150.922513 
L 240.490313 150.922513 
L 240.629569 151.65724 
L 240.768745 150.922513 
L 241.395264 150.922513 
L 241.534547 151.65724 
L 241.812912 151.65724 
L 241.882581 152.391967 
L 242.021824 151.65724 
L 242.091384 151.65724 
L 242.2306 152.391967 
L 243.205153 152.391967 
L 243.344463 153.126694 
L 244.04053 153.126694 
L 244.179746 153.861421 
L 245.084683 153.861421 
L 245.293514 155.330876 
L 245.43273 154.596149 
L 246.964214 154.596149 
L 247.107761 155.330876 
L 248.569995 155.330876 
L 248.708887 156.065603 
L 249.753014 156.065603 
L 249.89223 156.80033 
L 250.10106 156.80033 
L 250.24029 157.535057 
L 250.309999 157.535057 
L 250.379519 158.269784 
L 250.518776 157.535057 
L 250.658019 157.535057 
L 250.797194 156.80033 
L 250.93641 156.80033 
L 251.075653 157.535057 
L 251.214856 157.535057 
L 251.354099 158.269784 
L 252.955157 158.269784 
L 253.094373 159.004511 
L 253.372899 159.004511 
L 253.512048 159.739239 
L 253.581716 159.739239 
L 253.720865 159.004511 
L 254.416999 159.004511 
L 254.556242 159.739239 
L 254.904302 159.739239 
L 254.973903 159.004511 
L 255.113119 159.739239 
L 255.739598 159.739239 
L 255.878854 160.473966 
L 256.992623 160.473966 
L 257.131866 161.208693 
L 258.454465 161.208693 
L 258.593708 161.94342 
L 259.707476 161.94342 
L 259.846733 162.678147 
L 260.264394 162.678147 
L 260.473211 164.147601 
L 260.542894 164.147601 
L 260.756083 162.678147 
L 260.96486 162.678147 
L 261.104089 163.412874 
L 262.00904 163.412874 
L 262.148229 164.147601 
L 262.98366 164.147601 
L 263.053194 164.882329 
L 263.192437 164.147601 
L 263.958145 164.147601 
L 264.097388 164.882329 
L 264.723867 164.882329 
L 264.863083 165.617056 
L 266.116121 165.617056 
L 266.255324 166.351783 
L 267.369119 166.351783 
L 267.508335 167.08651 
L 268.413286 167.08651 
L 268.552529 167.821237 
L 269.875155 167.821237 
L 270.014344 168.555964 
L 270.849721 168.555964 
L 270.988951 169.290691 
L 271.4762 169.290691 
L 271.615456 170.025419 
L 271.824287 170.025419 
L 271.965163 169.290691 
L 272.450793 169.290691 
L 272.590022 170.025419 
L 273.425318 170.025419 
L 273.564575 170.760146 
L 273.773419 170.760146 
L 273.843007 170.025419 
L 273.982236 170.760146 
L 274.613073 170.760146 
L 274.752303 171.494873 
L 276.422989 171.494873 
L 276.63182 172.964327 
L 276.771049 172.964327 
L 276.910265 172.2296 
L 277.60644 172.2296 
L 277.745602 172.964327 
L 278.929012 172.964327 
L 279.068282 173.699054 
L 280.321253 173.699054 
L 280.460442 174.433781 
L 281.643892 174.433781 
L 281.783108 175.168509 
L 281.922756 174.433781 
L 282.061513 175.168509 
L 282.618418 175.168509 
L 282.757674 175.903236 
L 284.428333 175.903236 
L 284.56759 176.637963 
L 285.402913 176.637963 
L 285.472514 177.37269 
L 285.611717 176.637963 
L 285.75096 177.37269 
L 286.171549 177.37269 
L 286.307864 178.107417 
L 286.377452 177.37269 
L 286.516681 178.107417 
L 288.40057 178.107417 
L 288.540016 178.842144 
L 288.957434 178.842144 
L 289.096664 179.576872 
L 289.166346 179.576872 
L 289.305521 178.842144 
L 289.583953 178.842144 
L 289.723169 179.576872 
L 290.001628 179.576872 
L 290.140898 178.842144 
L 290.280087 179.576872 
L 291.115424 179.576872 
L 291.254613 180.311599 
L 292.08999 180.311599 
L 292.229192 181.046326 
L 292.298834 180.311599 
L 292.438023 181.046326 
L 292.646894 181.046326 
L 292.786083 181.781053 
L 292.925326 181.781053 
L 293.064556 181.046326 
L 293.691034 181.046326 
L 293.830277 181.781053 
L 294.526384 181.781053 
L 294.665627 182.51578 
L 294.80483 182.51578 
L 294.874822 181.781053 
L 295.01366 182.51578 
L 295.779395 182.51578 
L 295.918625 183.250507 
L 295.98824 183.250507 
L 296.129142 182.51578 
L 296.753961 182.51578 
L 296.893191 183.250507 
L 297.728527 183.250507 
L 297.869093 183.985234 
L 299.399241 183.985234 
L 299.538403 184.719962 
L 300.164962 184.719962 
L 300.304192 185.454689 
L 301.770433 185.454689 
L 301.909568 186.189416 
L 302.048797 186.189416 
L 302.118399 185.454689 
L 302.257642 186.189416 
L 303.301836 186.189416 
L 303.441038 186.924143 
L 304.067571 186.924143 
L 304.20676 187.65887 
L 304.415618 187.65887 
L 304.55482 186.924143 
L 304.69405 187.65887 
L 304.902907 187.65887 
L 305.042218 186.924143 
L 305.181326 187.65887 
L 305.947061 187.65887 
L 306.08629 188.393597 
L 306.852012 188.393597 
L 306.991228 189.128324 
L 307.200072 189.128324 
L 307.269701 188.393597 
L 307.408917 189.128324 
L 308.244239 189.128324 
L 308.383482 189.863052 
L 308.80113 189.863052 
L 308.94036 190.597779 
L 309.149191 190.597779 
L 309.288461 189.863052 
L 309.706068 189.863052 
L 309.77571 190.597779 
L 309.914926 189.863052 
L 310.054142 189.863052 
L 310.193398 190.597779 
L 310.95912 190.597779 
L 311.09839 191.332506 
L 311.167937 191.332506 
L 311.307207 192.80196 
L 311.516024 192.80196 
L 311.655254 191.332506 
L 312.281706 191.332506 
L 312.351334 190.597779 
L 312.49055 191.332506 
L 312.561136 191.332506 
L 312.69938 192.067233 
L 314.71814 192.067233 
L 314.857343 192.80196 
L 315.838656 192.80196 
L 315.97551 193.536687 
L 316.532415 193.536687 
L 316.671617 194.271414 
L 318.133527 194.271414 
L 318.272743 195.006142 
L 318.411905 195.006142 
L 318.551161 194.271414 
L 318.690364 195.006142 
L 319.595328 195.006142 
L 319.734612 195.740869 
L 321.19636 195.740869 
L 321.335603 196.475596 
L 322.936647 196.475596 
L 323.07589 197.210323 
L 323.911227 197.210323 
L 324.05047 197.94505 
L 324.676975 197.94505 
L 324.74659 198.679777 
L 324.885819 197.94505 
L 324.955421 197.94505 
L 325.164251 199.414504 
L 325.303494 199.414504 
L 325.442683 197.94505 
L 325.581953 198.679777 
L 325.860372 198.679777 
L 325.999615 199.414504 
L 326.278047 199.414504 
L 326.417276 198.679777 
L 326.695722 198.679777 
L 326.834924 199.414504 
L 327.461443 199.414504 
L 327.600686 198.679777 
L 327.739889 199.414504 
L 328.718786 199.414504 
L 328.858029 200.149232 
L 329.971825 200.149232 
L 330.111014 200.883959 
L 330.946418 200.883959 
L 331.155194 202.353413 
L 331.224903 202.353413 
L 331.364052 201.618686 
L 332.199375 201.618686 
L 332.338591 202.353413 
L 332.61705 202.353413 
L 332.686665 201.618686 
L 332.825881 202.353413 
L 334.148493 202.353413 
L 334.28775 203.08814 
L 335.680004 203.08814 
L 335.819193 203.822867 
L 336.863374 203.822867 
L 337.002644 204.557594 
L 338.673276 204.557594 
L 338.812532 205.292322 
L 339.995889 205.292322 
L 340.135105 206.027049 
L 340.343962 206.027049 
L 340.483205 205.292322 
L 340.622421 206.027049 
L 341.179326 206.027049 
L 341.318515 206.761776 
L 341.38817 206.761776 
L 341.527386 207.496503 
L 341.666575 206.027049 
L 341.736244 206.027049 
L 341.875419 206.761776 
L 342.645513 206.761776 
L 342.784729 207.496503 
L 344.455456 207.496503 
L 344.594618 208.23123 
L 346.40483 208.23123 
L 346.543803 208.965957 
L 347.657531 208.965957 
L 347.796788 209.700685 
L 347.866389 208.965957 
L 348.005591 209.700685 
L 349.467461 209.700685 
L 349.606717 210.435412 
L 351.138147 210.435412 
L 351.277349 211.170139 
L 352.46076 211.170139 
L 352.600016 211.904866 
L 352.739205 211.904866 
L 352.878488 211.170139 
L 353.017664 211.904866 
L 353.922615 211.904866 
L 354.061845 212.639593 
L 355.314869 212.639593 
L 355.454085 213.37432 
L 355.593301 213.37432 
L 355.732504 214.109047 
L 355.802132 214.109047 
L 355.876119 213.37432 
L 355.945707 214.109047 
L 356.084923 213.37432 
L 356.920259 213.37432 
L 357.059462 214.109047 
L 357.407562 214.109047 
L 357.546778 214.843775 
L 357.755609 214.843775 
L 357.894852 214.109047 
L 358.034081 214.109047 
L 358.174579 214.843775 
L 358.521317 214.843775 
L 358.590986 214.109047 
L 358.730175 214.843775 
L 359.84397 214.843775 
L 359.983173 215.578502 
L 360.540091 215.578502 
L 360.679307 216.313229 
L 360.957739 216.313229 
L 361.096982 215.578502 
L 361.236184 216.313229 
L 361.723528 216.313229 
L 361.862771 215.578502 
L 362.001919 216.313229 
L 363.115715 216.313229 
L 363.254931 217.047956 
L 364.716773 217.047956 
L 364.855989 217.782683 
L 366.178628 217.782683 
L 366.317858 218.51741 
L 367.013992 218.51741 
L 367.153194 219.252137 
L 367.29241 219.252137 
L 367.431667 218.51741 
L 367.570896 219.252137 
L 368.754266 219.252137 
L 368.893495 219.986865 
L 369.032725 219.986865 
L 369.172035 219.252137 
L 369.241596 219.252137 
L 369.380798 219.986865 
L 370.359723 219.986865 
L 370.498925 220.721592 
L 370.777357 220.721592 
L 370.916573 221.456319 
L 371.055816 221.456319 
L 371.195032 220.721592 
L 372.09997 220.721592 
L 372.239213 221.456319 
L 373.074549 221.456319 
L 373.144205 222.191046 
L 373.283353 221.456319 
L 373.492211 221.456319 
L 373.701055 222.925773 
L 373.909886 222.925773 
L 374.049115 222.191046 
L 374.814837 222.191046 
L 374.954066 222.925773 
L 376.555151 222.925773 
L 376.694381 223.6605 
L 376.835446 222.925773 
L 377.042428 222.925773 
L 377.181657 223.6605 
L 378.086581 223.6605 
L 378.225838 224.395227 
L 378.643486 224.395227 
L 378.7131 223.6605 
L 378.852343 224.395227 
L 380.03574 224.395227 
L 380.174943 225.129955 
L 381.010279 225.129955 
L 381.079934 225.864682 
L 381.219137 225.129955 
L 381.427954 225.129955 
L 381.569815 225.864682 
L 382.26329 225.864682 
L 382.40256 226.599409 
L 382.472135 226.599409 
L 382.611351 225.864682 
L 383.799106 225.864682 
L 383.938349 226.599409 
L 384.356037 226.599409 
L 384.495253 227.334136 
L 385.818527 227.334136 
L 385.957095 228.068863 
L 386.096311 228.068863 
L 386.2355 227.334136 
L 386.37477 228.068863 
L 387.975815 228.068863 
L 388.115098 228.80359 
L 389.298427 228.80359 
L 389.43767 229.538317 
L 389.646515 229.538317 
L 389.716183 228.80359 
L 389.855318 230.273045 
L 389.924987 230.273045 
L 390.064176 231.007772 
L 390.27302 229.538317 
L 390.760296 229.538317 
L 390.899512 230.273045 
L 391.10833 230.273045 
L 391.178012 229.538317 
L 391.386802 231.742499 
L 391.527421 231.742499 
L 391.665234 230.273045 
L 392.082923 230.273045 
L 392.361368 232.477226 
L 392.500638 232.477226 
L 392.709428 230.273045 
L 393.057488 230.273045 
L 393.196704 231.007772 
L 394.521773 231.007772 
L 394.658574 231.742499 
L 395.702808 231.742499 
L 395.841943 232.477226 
L 397.168955 232.477226 
L 397.308157 233.211953 
L 397.4474 233.211953 
L 397.586616 232.477226 
L 397.934649 232.477226 
L 398.073892 233.211953 
L 399.048458 233.211953 
L 399.11806 233.94668 
L 399.257276 233.211953 
L 399.396532 233.94668 
L 400.858361 233.94668 
L 400.997577 234.681407 
L 402.250561 234.681407 
L 402.389817 235.416135 
L 402.598662 235.416135 
L 402.668357 234.681407 
L 402.807479 235.416135 
L 404.338963 235.416135 
L 404.47938 236.150862 
L 404.895854 236.150862 
L 405.035097 235.416135 
L 405.104698 235.416135 
L 405.243873 236.150862 
L 405.940034 236.150862 
L 406.079237 236.885589 
L 406.148838 236.885589 
L 406.288068 237.620316 
L 406.427297 236.885589 
L 406.636155 236.885589 
L 406.775357 237.620316 
L 406.844986 237.620316 
L 406.984201 238.355043 
L 407.123444 237.620316 
L 407.26266 237.620316 
L 407.401863 236.885589 
L 407.473758 236.885589 
L 407.610694 237.620316 
L 408.794131 237.620316 
L 408.933333 238.355043 
L 409.072603 238.355043 
L 409.142151 237.620316 
L 409.281393 238.355043 
L 409.699298 238.355043 
L 409.768656 239.08977 
L 409.907913 238.355043 
L 410.399574 238.355043 
L 410.538817 239.08977 
L 411.722578 239.08977 
L 411.930991 240.559225 
L 412.070247 240.559225 
L 412.20945 239.824497 
L 412.279078 239.824497 
L 412.418267 239.08977 
L 412.557496 239.824497 
L 413.114387 239.824497 
L 413.253603 240.559225 
L 413.392819 240.559225 
L 413.532049 239.824497 
L 413.601677 239.824497 
L 413.740907 240.559225 
L 414.924357 240.559225 
L 415.063587 241.293952 
L 416.94587 241.293952 
L 417.012718 242.028679 
L 417.082306 241.293952 
L 417.221536 242.028679 
L 418.892222 242.028679 
L 419.031451 242.763406 
L 419.240228 242.763406 
L 419.30987 242.028679 
L 419.449126 242.763406 
L 420.425811 242.763406 
L 420.562908 243.498133 
L 420.702138 243.498133 
L 420.84134 242.763406 
L 420.980583 243.498133 
L 422.165788 243.498133 
L 422.303196 244.23286 
L 422.929729 244.23286 
L 423.068931 243.498133 
L 423.208147 244.23286 
L 423.416964 244.23286 
L 423.556194 244.967588 
L 423.764984 244.967588 
L 423.908599 244.23286 
L 424.047828 244.967588 
L 425.440069 244.967588 
L 425.579285 245.702315 
L 425.996947 245.702315 
L 426.066588 244.967588 
L 426.205764 245.702315 
L 427.946092 245.702315 
L 428.085295 246.437042 
L 428.502983 246.437042 
L 428.502983 246.437042 
" style="fill:none;stroke:#ff7f0e;stroke-linecap:square;stroke-width:1.5;"/>
   </g>
   <g id="patch_3">
    <path d="M 50.565625 304.44375 
L 50.565625 14.3 
" style="fill:none;stroke:#000000;stroke-linecap:square;stroke-linejoin:miter;stroke-width:0.8;"/>
   </g>
   <g id="patch_4">
    <path d="M 446.5 304.44375 
L 446.5 14.3 
" style="fill:none;stroke:#000000;stroke-linecap:square;stroke-linejoin:miter;stroke-width:0.8;"/>
   </g>
   <g id="patch_5">
    <path d="M 50.565625 304.44375 
L 446.5 304.44375 
" style="fill:none;stroke:#000000;stroke-linecap:square;stroke-linejoin:miter;stroke-width:0.8;"/>
   </g>
   <g id="patch_6">
    <path d="M 50.565625 14.3 
L 446.5 14.3 
" style="fill:none;stroke:#000000;stroke-linecap:square;stroke-linejoin:miter;stroke-width:0.8;"/>
   </g>
   <g id="legend_1">
    <g id="patch_7">
     <path d="M 269.8 52.2125 
L 439.5 52.2125 
Q 441.5 52.2125 441.5 50.2125 
L 441.5 21.3 
Q 441.5 19.3 439.5 19.3 
L 269.8 19.3 
Q 267.8 19.3 267.8 21.3 
L 267.8 50.2125 
Q 267.8 52.2125 269.8 52.2125 
z
" style="fill:#ffffff;opacity:0.8;stroke:#cccccc;stroke-linejoin:miter;"/>
    </g>
    <g id="line2d_27">
     <path d="M 271.8 27.398438 
L 291.8 27.398438 
" style="fill:none;stroke:#1f77b4;stroke-linecap:square;stroke-width:1.5;"/>
    </g>
    <g id="line2d_28"/>
    <g id="text_15">
     <!-- cooldown_open_podlid.csv -->
     <defs>
      <path d="M 48.78125 52.59375 
L 48.78125 44.1875 
Q 44.96875 46.296875 41.140625 47.34375 
Q 37.3125 48.390625 33.40625 48.390625 
Q 24.65625 48.390625 19.8125 42.84375 
Q 14.984375 37.3125 14.984375 27.296875 
Q 14.984375 17.28125 19.8125 11.734375 
Q 24.65625 6.203125 33.40625 6.203125 
Q 37.3125 6.203125 41.140625 7.25 
Q 44.96875 8.296875 48.78125 10.40625 
L 48.78125 2.09375 
Q 45.015625 0.34375 40.984375 -0.53125 
Q 36.96875 -1.421875 32.421875 -1.421875 
Q 20.0625 -1.421875 12.78125 6.34375 
Q 5.515625 14.109375 5.515625 27.296875 
Q 5.515625 40.671875 12.859375 48.328125 
Q 20.21875 56 33.015625 56 
Q 37.15625 56 41.109375 55.140625 
Q 45.0625 54.296875 48.78125 52.59375 
z
" id="DejaVuSans-99"/>
      <path d="M 30.609375 48.390625 
Q 23.390625 48.390625 19.1875 42.75 
Q 14.984375 37.109375 14.984375 27.296875 
Q 14.984375 17.484375 19.15625 11.84375 
Q 23.34375 6.203125 30.609375 6.203125 
Q 37.796875 6.203125 41.984375 11.859375 
Q 46.1875 17.53125 46.1875 27.296875 
Q 46.1875 37.015625 41.984375 42.703125 
Q 37.796875 48.390625 30.609375 48.390625 
z
M 30.609375 56 
Q 42.328125 56 49.015625 48.375 
Q 55.71875 40.765625 55.71875 27.296875 
Q 55.71875 13.875 49.015625 6.21875 
Q 42.328125 -1.421875 30.609375 -1.421875 
Q 18.84375 -1.421875 12.171875 6.21875 
Q 5.515625 13.875 5.515625 27.296875 
Q 5.515625 40.765625 12.171875 48.375 
Q 18.84375 56 30.609375 56 
z
" id="DejaVuSans-111"/>
      <path d="M 9.421875 75.984375 
L 18.40625 75.984375 
L 18.40625 0 
L 9.421875 0 
z
" id="DejaVuSans-108"/>
      <path d="M 4.203125 54.6875 
L 13.1875 54.6875 
L 24.421875 12.015625 
L 35.59375 54.6875 
L 46.1875 54.6875 
L 57.421875 12.015625 
L 68.609375 54.6875 
L 77.59375 54.6875 
L 63.28125 0 
L 52.6875 0 
L 40.921875 44.828125 
L 29.109375 0 
L 18.5 0 
z
" id="DejaVuSans-119"/>
      <path d="M 50.984375 -16.609375 
L 50.984375 -23.578125 
L -0.984375 -23.578125 
L -0.984375 -16.609375 
z
" id="DejaVuSans-95"/>
      <path d="M 18.109375 8.203125 
L 18.109375 -20.796875 
L 9.078125 -20.796875 
L 9.078125 54.6875 
L 18.109375 54.6875 
L 18.109375 46.390625 
Q 20.953125 51.265625 25.265625 53.625 
Q 29.59375 56 35.59375 56 
Q 45.5625 56 51.78125 48.09375 
Q 58.015625 40.1875 58.015625 27.296875 
Q 58.015625 14.40625 51.78125 6.484375 
Q 45.5625 -1.421875 35.59375 -1.421875 
Q 29.59375 -1.421875 25.265625 0.953125 
Q 20.953125 3.328125 18.109375 8.203125 
z
M 48.6875 27.296875 
Q 48.6875 37.203125 44.609375 42.84375 
Q 40.53125 48.484375 33.40625 48.484375 
Q 26.265625 48.484375 22.1875 42.84375 
Q 18.109375 37.203125 18.109375 27.296875 
Q 18.109375 17.390625 22.1875 11.75 
Q 26.265625 6.109375 33.40625 6.109375 
Q 40.53125 6.109375 44.609375 11.75 
Q 48.6875 17.390625 48.6875 27.296875 
z
" id="DejaVuSans-112"/>
      <path d="M 10.6875 12.40625 
L 21 12.40625 
L 21 0 
L 10.6875 0 
z
" id="DejaVuSans-46"/>
      <path d="M 44.28125 53.078125 
L 44.28125 44.578125 
Q 40.484375 46.53125 36.375 47.5 
Q 32.28125 48.484375 27.875 48.484375 
Q 21.1875 48.484375 17.84375 46.4375 
Q 14.5 44.390625 14.5 40.28125 
Q 14.5 37.15625 16.890625 35.375 
Q 19.28125 33.59375 26.515625 31.984375 
L 29.59375 31.296875 
Q 39.15625 29.25 43.1875 25.515625 
Q 47.21875 21.78125 47.21875 15.09375 
Q 47.21875 7.46875 41.1875 3.015625 
Q 35.15625 -1.421875 24.609375 -1.421875 
Q 20.21875 -1.421875 15.453125 -0.5625 
Q 10.6875 0.296875 5.421875 2 
L 5.421875 11.28125 
Q 10.40625 8.6875 15.234375 7.390625 
Q 20.0625 6.109375 24.8125 6.109375 
Q 31.15625 6.109375 34.5625 8.28125 
Q 37.984375 10.453125 37.984375 14.40625 
Q 37.984375 18.0625 35.515625 20.015625 
Q 33.0625 21.96875 24.703125 23.78125 
L 21.578125 24.515625 
Q 13.234375 26.265625 9.515625 29.90625 
Q 5.8125 33.546875 5.8125 39.890625 
Q 5.8125 47.609375 11.28125 51.796875 
Q 16.75 56 26.8125 56 
Q 31.78125 56 36.171875 55.265625 
Q 40.578125 54.546875 44.28125 53.078125 
z
" id="DejaVuSans-115"/>
      <path d="M 2.984375 54.6875 
L 12.5 54.6875 
L 29.59375 8.796875 
L 46.6875 54.6875 
L 56.203125 54.6875 
L 35.6875 0 
L 23.484375 0 
z
" id="DejaVuSans-118"/>
     </defs>
     <g transform="translate(299.8 30.898438)scale(0.1 -0.1)">
      <use xlink:href="#DejaVuSans-99"/>
      <use x="54.980469" xlink:href="#DejaVuSans-111"/>
      <use x="116.162109" xlink:href="#DejaVuSans-111"/>
      <use x="177.34375" xlink:href="#DejaVuSans-108"/>
      <use x="205.126953" xlink:href="#DejaVuSans-100"/>
      <use x="268.603516" xlink:href="#DejaVuSans-111"/>
      <use x="329.785156" xlink:href="#DejaVuSans-119"/>
      <use x="411.572266" xlink:href="#DejaVuSans-110"/>
      <use x="474.951172" xlink:href="#DejaVuSans-95"/>
      <use x="524.951172" xlink:href="#DejaVuSans-111"/>
      <use x="586.132812" xlink:href="#DejaVuSans-112"/>
      <use x="649.609375" xlink:href="#DejaVuSans-101"/>
      <use x="711.132812" xlink:href="#DejaVuSans-110"/>
      <use x="774.511719" xlink:href="#DejaVuSans-95"/>
      <use x="824.511719" xlink:href="#DejaVuSans-112"/>
      <use x="887.988281" xlink:href="#DejaVuSans-111"/>
      <use x="949.169922" xlink:href="#DejaVuSans-100"/>
      <use x="1012.646484" xlink:href="#DejaVuSans-108"/>
      <use x="1040.429688" xlink:href="#DejaVuSans-105"/>
      <use x="1068.212891" xlink:href="#DejaVuSans-100"/>
      <use x="1131.689453" xlink:href="#DejaVuSans-46"/>
      <use x="1163.476562" xlink:href="#DejaVuSans-99"/>
      <use x="1218.457031" xlink:href="#DejaVuSans-115"/>
      <use x="1270.556641" xlink:href="#DejaVuSans-118"/>
     </g>
    </g>
    <g id="line2d_29">
     <path d="M 271.8 42.354688 
L 291.8 42.354688 
" style="fill:none;stroke:#ff7f0e;stroke-linecap:square;stroke-width:1.5;"/>
    </g>
    <g id="line2d_30"/>
    <g id="text_16">
     <!-- cooldown_closed_potlid.csv -->
     <defs>
      <path d="M 18.3125 70.21875 
L 18.3125 54.6875 
L 36.8125 54.6875 
L 36.8125 47.703125 
L 18.3125 47.703125 
L 18.3125 18.015625 
Q 18.3125 11.328125 20.140625 9.421875 
Q 21.96875 7.515625 27.59375 7.515625 
L 36.8125 7.515625 
L 36.8125 0 
L 27.59375 0 
Q 17.1875 0 13.234375 3.875 
Q 9.28125 7.765625 9.28125 18.015625 
L 9.28125 47.703125 
L 2.6875 47.703125 
L 2.6875 54.6875 
L 9.28125 54.6875 
L 9.28125 70.21875 
z
" id="DejaVuSans-116"/>
     </defs>
     <g transform="translate(299.8 45.854688)scale(0.1 -0.1)">
      <use xlink:href="#DejaVuSans-99"/>
      <use x="54.980469" xlink:href="#DejaVuSans-111"/>
      <use x="116.162109" xlink:href="#DejaVuSans-111"/>
      <use x="177.34375" xlink:href="#DejaVuSans-108"/>
      <use x="205.126953" xlink:href="#DejaVuSans-100"/>
      <use x="268.603516" xlink:href="#DejaVuSans-111"/>
      <use x="329.785156" xlink:href="#DejaVuSans-119"/>
      <use x="411.572266" xlink:href="#DejaVuSans-110"/>
      <use x="474.951172" xlink:href="#DejaVuSans-95"/>
      <use x="524.951172" xlink:href="#DejaVuSans-99"/>
      <use x="579.931641" xlink:href="#DejaVuSans-108"/>
      <use x="607.714844" xlink:href="#DejaVuSans-111"/>
      <use x="668.896484" xlink:href="#DejaVuSans-115"/>
      <use x="720.996094" xlink:href="#DejaVuSans-101"/>
      <use x="782.519531" xlink:href="#DejaVuSans-100"/>
      <use x="845.996094" xlink:href="#DejaVuSans-95"/>
      <use x="895.996094" xlink:href="#DejaVuSans-112"/>
      <use x="959.472656" xlink:href="#DejaVuSans-111"/>
      <use x="1020.654297" xlink:href="#DejaVuSans-116"/>
      <use x="1059.863281" xlink:href="#DejaVuSans-108"/>
      <use x="1087.646484" xlink:href="#DejaVuSans-105"/>
      <use x="1115.429688" xlink:href="#DejaVuSans-100"/>
      <use x="1178.90625" xlink:href="#DejaVuSans-46"/>
      <use x="1210.693359" xlink:href="#DejaVuSans-99"/>
      <use x="1265.673828" xlink:href="#DejaVuSans-115"/>
      <use x="1317.773438" xlink:href="#DejaVuSans-118"/>
     </g>
    </g>
   </g>
  </g>
 </g>
 <defs>
  <clipPath id="pc215fb5bb8">
   <rect height="290.14375" width="395.934375" x="50.565625" y="14.3"/>
  </clipPath>
 </defs>
</svg>
